G04 (created by PCBNEW-RS274X (2012-apr-16-27)-stable) date Wed 27 Feb 2013 09:22:31 PM CET*
G01*
G70*
G90*
%MOIN*%
G04 Gerber Fmt 3.4, Leading zero omitted, Abs format*
%FSLAX34Y34*%
G04 APERTURE LIST*
%ADD10C,0.006000*%
%ADD11C,0.015000*%
%ADD12R,0.315000X0.255900*%
%ADD13R,0.057900X0.016500*%
%ADD14R,0.025600X0.041700*%
%ADD15R,0.041700X0.025600*%
%ADD16R,0.078700X0.017700*%
%ADD17R,0.017700X0.078700*%
%ADD18R,0.020000X0.045000*%
%ADD19R,0.055000X0.035000*%
%ADD20R,0.045000X0.025000*%
%ADD21R,0.025000X0.045000*%
%ADD22R,0.060000X0.060000*%
%ADD23C,0.060000*%
%ADD24R,0.047200X0.047200*%
%ADD25R,0.075000X0.075000*%
%ADD26C,0.075000*%
%ADD27R,0.070800X0.066900*%
%ADD28O,0.060000X0.120000*%
%ADD29O,0.120000X0.060000*%
%ADD30R,0.059100X0.039400*%
%ADD31C,0.236200*%
%ADD32C,0.118100*%
%ADD33C,0.047200*%
%ADD34C,0.031500*%
%ADD35C,0.019700*%
%ADD36C,0.023600*%
%ADD37C,0.118100*%
%ADD38C,0.007900*%
%ADD39C,0.011800*%
%ADD40C,0.047200*%
G04 APERTURE END LIST*
G54D10*
G54D11*
X36693Y-37165D02*
X36693Y-37638D01*
X68937Y-35906D02*
X68937Y-27165D01*
X67677Y-37638D02*
X67677Y-37165D01*
X35433Y-38819D02*
X35433Y-49921D01*
X35433Y-27165D02*
X35433Y-35984D01*
X67677Y-25906D02*
X36693Y-25906D01*
X68937Y-49921D02*
X68937Y-38898D01*
X36693Y-51181D02*
X67677Y-51181D01*
X68937Y-38898D02*
X68932Y-38789D01*
X68917Y-38680D01*
X68894Y-38572D01*
X68861Y-38468D01*
X68818Y-38366D01*
X68768Y-38269D01*
X68709Y-38176D01*
X68642Y-38089D01*
X68567Y-38008D01*
X68486Y-37933D01*
X68399Y-37866D01*
X68307Y-37807D01*
X68209Y-37757D01*
X68107Y-37714D01*
X68003Y-37681D01*
X67895Y-37658D01*
X67786Y-37643D01*
X67677Y-37638D01*
X67677Y-37166D02*
X67786Y-37161D01*
X67895Y-37146D01*
X68003Y-37123D01*
X68107Y-37090D01*
X68209Y-37047D01*
X68307Y-36997D01*
X68399Y-36938D01*
X68486Y-36871D01*
X68567Y-36796D01*
X68642Y-36715D01*
X68709Y-36628D01*
X68768Y-36535D01*
X68818Y-36438D01*
X68861Y-36336D01*
X68894Y-36232D01*
X68917Y-36124D01*
X68932Y-36015D01*
X68937Y-35906D01*
X68936Y-27165D02*
X68931Y-27056D01*
X68916Y-26947D01*
X68893Y-26840D01*
X68860Y-26735D01*
X68818Y-26633D01*
X68767Y-26536D01*
X68708Y-26443D01*
X68641Y-26356D01*
X68567Y-26275D01*
X68486Y-26201D01*
X68399Y-26134D01*
X68306Y-26075D01*
X68209Y-26024D01*
X68107Y-25982D01*
X68002Y-25949D01*
X67895Y-25926D01*
X67786Y-25911D01*
X67677Y-25906D01*
X36693Y-25905D02*
X36584Y-25910D01*
X36475Y-25925D01*
X36367Y-25948D01*
X36263Y-25981D01*
X36161Y-26024D01*
X36064Y-26074D01*
X35971Y-26133D01*
X35884Y-26200D01*
X35803Y-26275D01*
X35728Y-26356D01*
X35661Y-26443D01*
X35602Y-26536D01*
X35552Y-26633D01*
X35509Y-26735D01*
X35476Y-26839D01*
X35453Y-26947D01*
X35438Y-27056D01*
X35433Y-27165D01*
X35433Y-35905D02*
X35438Y-36014D01*
X35453Y-36123D01*
X35476Y-36231D01*
X35509Y-36335D01*
X35552Y-36437D01*
X35602Y-36534D01*
X35661Y-36627D01*
X35728Y-36714D01*
X35803Y-36795D01*
X35884Y-36870D01*
X35971Y-36937D01*
X36064Y-36996D01*
X36161Y-37046D01*
X36263Y-37089D01*
X36367Y-37122D01*
X36475Y-37145D01*
X36584Y-37160D01*
X36693Y-37165D01*
X36693Y-37638D02*
X36584Y-37643D01*
X36475Y-37658D01*
X36367Y-37681D01*
X36263Y-37714D01*
X36161Y-37757D01*
X36064Y-37807D01*
X35971Y-37866D01*
X35884Y-37933D01*
X35803Y-38008D01*
X35728Y-38089D01*
X35661Y-38176D01*
X35602Y-38269D01*
X35552Y-38366D01*
X35509Y-38468D01*
X35476Y-38572D01*
X35453Y-38680D01*
X35438Y-38789D01*
X35433Y-38898D01*
X35433Y-49921D02*
X35438Y-50030D01*
X35453Y-50139D01*
X35476Y-50247D01*
X35509Y-50351D01*
X35552Y-50453D01*
X35602Y-50550D01*
X35661Y-50643D01*
X35728Y-50730D01*
X35803Y-50811D01*
X35884Y-50886D01*
X35971Y-50953D01*
X36064Y-51012D01*
X36161Y-51062D01*
X36263Y-51105D01*
X36367Y-51138D01*
X36475Y-51161D01*
X36584Y-51176D01*
X36693Y-51181D01*
X67677Y-51181D02*
X67786Y-51176D01*
X67895Y-51161D01*
X68003Y-51138D01*
X68107Y-51105D01*
X68209Y-51062D01*
X68307Y-51012D01*
X68399Y-50953D01*
X68486Y-50886D01*
X68567Y-50811D01*
X68642Y-50730D01*
X68709Y-50643D01*
X68768Y-50550D01*
X68818Y-50453D01*
X68861Y-50351D01*
X68894Y-50247D01*
X68917Y-50139D01*
X68932Y-50030D01*
X68937Y-49921D01*
G54D12*
X54000Y-49427D03*
X54000Y-46573D03*
G54D13*
X52898Y-40872D03*
X52898Y-41128D03*
X52898Y-41384D03*
X52898Y-41640D03*
X55100Y-40108D03*
X52898Y-40104D03*
X52898Y-40360D03*
X52898Y-40616D03*
X55102Y-41896D03*
X55102Y-41640D03*
X55102Y-41384D03*
X55102Y-41128D03*
X55102Y-40872D03*
X55102Y-40616D03*
X52898Y-41896D03*
X55100Y-40360D03*
X52898Y-39848D03*
X52898Y-42152D03*
X55102Y-42152D03*
X55102Y-39848D03*
X52898Y-39593D03*
X52898Y-42407D03*
X55102Y-42407D03*
X55102Y-39593D03*
X52898Y-39337D03*
X52898Y-42663D03*
X55102Y-42663D03*
X55102Y-39337D03*
G54D14*
X46626Y-43933D03*
X47000Y-43933D03*
X47374Y-43933D03*
X47374Y-43067D03*
X47000Y-43067D03*
X46626Y-43067D03*
X48126Y-43933D03*
X48500Y-43933D03*
X48874Y-43933D03*
X48874Y-43067D03*
X48500Y-43067D03*
X48126Y-43067D03*
X49626Y-43933D03*
X50000Y-43933D03*
X50374Y-43933D03*
X50374Y-43067D03*
X50000Y-43067D03*
X49626Y-43067D03*
X57626Y-43933D03*
X58000Y-43933D03*
X58374Y-43933D03*
X58374Y-43067D03*
X58000Y-43067D03*
X57626Y-43067D03*
X43626Y-43933D03*
X44000Y-43933D03*
X44374Y-43933D03*
X44374Y-43067D03*
X44000Y-43067D03*
X43626Y-43067D03*
X42126Y-43933D03*
X42500Y-43933D03*
X42874Y-43933D03*
X42874Y-43067D03*
X42500Y-43067D03*
X42126Y-43067D03*
X40626Y-43933D03*
X41000Y-43933D03*
X41374Y-43933D03*
X41374Y-43067D03*
X41000Y-43067D03*
X40626Y-43067D03*
X39126Y-43933D03*
X39500Y-43933D03*
X39874Y-43933D03*
X39874Y-43067D03*
X39500Y-43067D03*
X39126Y-43067D03*
X37626Y-43933D03*
X38000Y-43933D03*
X38374Y-43933D03*
X38374Y-43067D03*
X38000Y-43067D03*
X37626Y-43067D03*
X45126Y-43933D03*
X45500Y-43933D03*
X45874Y-43933D03*
X45874Y-43067D03*
X45500Y-43067D03*
X45126Y-43067D03*
X59126Y-43933D03*
X59500Y-43933D03*
X59874Y-43933D03*
X59874Y-43067D03*
X59500Y-43067D03*
X59126Y-43067D03*
X60626Y-43933D03*
X61000Y-43933D03*
X61374Y-43933D03*
X61374Y-43067D03*
X61000Y-43067D03*
X60626Y-43067D03*
X62126Y-43933D03*
X62500Y-43933D03*
X62874Y-43933D03*
X62874Y-43067D03*
X62500Y-43067D03*
X62126Y-43067D03*
X63626Y-43933D03*
X64000Y-43933D03*
X64374Y-43933D03*
X64374Y-43067D03*
X64000Y-43067D03*
X63626Y-43067D03*
X65126Y-43933D03*
X65500Y-43933D03*
X65874Y-43933D03*
X65874Y-43067D03*
X65500Y-43067D03*
X65126Y-43067D03*
X66626Y-43933D03*
X67000Y-43933D03*
X67374Y-43933D03*
X67374Y-43067D03*
X67000Y-43067D03*
X66626Y-43067D03*
G54D15*
X65433Y-33287D03*
X65433Y-32913D03*
X65433Y-32539D03*
X64567Y-32539D03*
X64567Y-32913D03*
X64567Y-33287D03*
X65433Y-32028D03*
X65433Y-31654D03*
X65433Y-31280D03*
X64567Y-31280D03*
X64567Y-31654D03*
X64567Y-32028D03*
X65433Y-30768D03*
X65433Y-30394D03*
X65433Y-30020D03*
X64567Y-30020D03*
X64567Y-30394D03*
X64567Y-30768D03*
X65433Y-29508D03*
X65433Y-29134D03*
X65433Y-28760D03*
X64567Y-28760D03*
X64567Y-29134D03*
X64567Y-29508D03*
G54D16*
X44600Y-33534D03*
X44600Y-33219D03*
X44600Y-32904D03*
X44600Y-32589D03*
X44600Y-32274D03*
X44600Y-31959D03*
X44600Y-31644D03*
X44600Y-31329D03*
X48366Y-31331D03*
X48366Y-33541D03*
X48366Y-33221D03*
X48366Y-32901D03*
X48366Y-32591D03*
X48366Y-32271D03*
X48366Y-31961D03*
X48366Y-31641D03*
G54D17*
X45384Y-30541D03*
X45698Y-30541D03*
X46014Y-30541D03*
X46328Y-30541D03*
X46644Y-30541D03*
X46958Y-30541D03*
X47274Y-30541D03*
X47588Y-30541D03*
X45386Y-34321D03*
X45696Y-34321D03*
X46016Y-34321D03*
X46326Y-34321D03*
X46636Y-34321D03*
X46956Y-34321D03*
X47276Y-34321D03*
X47596Y-34321D03*
G54D18*
X59250Y-29341D03*
X59750Y-29341D03*
X60250Y-29341D03*
X60750Y-29341D03*
X60750Y-31841D03*
X60250Y-31841D03*
X59750Y-31841D03*
X59250Y-31841D03*
G54D19*
X59252Y-26475D03*
X59252Y-27225D03*
X60276Y-26475D03*
X60276Y-27225D03*
X54606Y-30926D03*
X54606Y-30176D03*
G54D20*
X41811Y-32623D03*
X41811Y-32023D03*
X54646Y-29473D03*
X54646Y-28873D03*
X53661Y-28873D03*
X53661Y-29473D03*
G54D21*
X38716Y-34528D03*
X39316Y-34528D03*
G54D20*
X55512Y-35527D03*
X55512Y-36127D03*
X54646Y-35527D03*
X54646Y-36127D03*
X44724Y-27850D03*
X44724Y-28450D03*
X50157Y-32741D03*
X50157Y-32141D03*
G54D21*
X55094Y-38425D03*
X55694Y-38425D03*
G54D20*
X61575Y-30891D03*
X61575Y-30291D03*
G54D22*
X38736Y-36602D03*
G54D23*
X38736Y-35602D03*
X39736Y-36602D03*
X39736Y-35602D03*
X40736Y-36602D03*
X40736Y-35602D03*
X41736Y-36602D03*
X41736Y-35602D03*
G54D22*
X49709Y-36602D03*
G54D23*
X49709Y-35602D03*
X50709Y-36602D03*
X50709Y-35602D03*
X51709Y-36602D03*
X51709Y-35602D03*
G54D24*
X44724Y-26359D03*
X44724Y-27185D03*
G54D25*
X56929Y-31984D03*
G54D26*
X56929Y-29984D03*
G54D27*
X60807Y-32953D03*
X59193Y-32953D03*
G54D22*
X56929Y-26949D03*
G54D23*
X56929Y-28327D03*
G54D22*
X62638Y-26949D03*
G54D23*
X62638Y-28327D03*
G54D28*
X54657Y-27205D03*
X53657Y-27205D03*
X52657Y-27205D03*
X51657Y-27205D03*
X50657Y-27205D03*
X49657Y-27205D03*
X48657Y-27205D03*
X47657Y-27205D03*
X46657Y-27205D03*
X45657Y-27205D03*
G54D29*
X36535Y-29075D03*
X36535Y-30075D03*
X36535Y-31075D03*
X36535Y-32075D03*
X36535Y-33075D03*
X36535Y-34075D03*
X67362Y-33535D03*
X67362Y-32535D03*
X67362Y-31535D03*
X67362Y-30535D03*
X67362Y-29535D03*
G54D28*
X57449Y-38976D03*
X58449Y-38976D03*
X59449Y-38976D03*
X60449Y-38976D03*
X61449Y-38976D03*
X39000Y-46500D03*
X40000Y-46500D03*
X41000Y-46500D03*
X42000Y-46500D03*
X43000Y-46500D03*
X44000Y-46500D03*
X45000Y-46500D03*
X46000Y-46500D03*
X47000Y-46500D03*
X48000Y-46500D03*
X49000Y-46500D03*
X50000Y-46500D03*
X58000Y-46500D03*
X59000Y-46500D03*
X60000Y-46500D03*
X61000Y-46500D03*
X62000Y-46500D03*
X63000Y-46500D03*
X64000Y-46500D03*
X65000Y-46500D03*
X66000Y-46500D03*
X67000Y-46500D03*
X65224Y-35827D03*
X64224Y-35827D03*
G54D30*
X47008Y-39449D03*
X47008Y-38937D03*
X47008Y-39961D03*
X47874Y-39449D03*
X47874Y-38937D03*
X47874Y-39961D03*
X48740Y-39449D03*
X48740Y-38937D03*
X48740Y-39961D03*
X49606Y-39449D03*
X49606Y-38937D03*
X49606Y-39961D03*
X50472Y-39449D03*
X50472Y-38937D03*
X50472Y-39961D03*
X51339Y-39449D03*
X51339Y-38937D03*
X51339Y-39961D03*
G54D28*
X57449Y-35827D03*
X58449Y-35827D03*
X59449Y-35827D03*
X60449Y-35827D03*
X61449Y-35827D03*
G54D31*
X67677Y-49921D03*
X36693Y-49921D03*
X67677Y-27165D03*
X67677Y-38898D03*
X36693Y-38898D03*
X67677Y-35906D03*
X36693Y-35906D03*
X36693Y-27165D03*
G54D32*
X56063Y-50315D03*
G54D33*
X60945Y-26496D03*
G54D32*
X51890Y-50315D03*
X56063Y-48701D03*
X51890Y-48701D03*
G54D34*
X51339Y-31339D03*
X43425Y-31575D03*
X56772Y-32913D03*
X49488Y-32441D03*
X43425Y-32323D03*
X52244Y-39646D03*
X50472Y-39449D03*
X49606Y-39449D03*
X52323Y-40039D03*
X48740Y-39488D03*
X53622Y-39803D03*
X53622Y-40236D03*
X47835Y-39449D03*
X54488Y-40906D03*
X47008Y-39488D03*
G54D33*
X42835Y-42520D03*
X65827Y-42520D03*
X59843Y-42520D03*
X64055Y-31417D03*
G54D34*
X56181Y-32835D03*
G54D33*
X67323Y-42520D03*
G54D32*
X54016Y-44724D03*
G54D33*
X64331Y-42520D03*
X61339Y-42520D03*
X38346Y-42520D03*
X39843Y-42520D03*
G54D34*
X60276Y-32953D03*
G54D33*
X64055Y-30157D03*
G54D34*
X52992Y-30197D03*
G54D33*
X41339Y-42520D03*
X62835Y-42520D03*
G54D34*
X53976Y-29961D03*
G54D33*
X45827Y-42520D03*
X64055Y-28898D03*
X62008Y-30315D03*
X48819Y-42520D03*
G54D32*
X52283Y-45118D03*
G54D34*
X50906Y-39961D03*
X54173Y-40551D03*
G54D33*
X44331Y-42520D03*
X61102Y-32480D03*
X50315Y-42520D03*
X58346Y-42520D03*
G54D32*
X56024Y-46535D03*
X55748Y-45157D03*
X51811Y-46575D03*
G54D33*
X56063Y-40236D03*
X64055Y-32638D03*
G54D34*
X60276Y-27520D03*
G54D33*
X47323Y-42520D03*
G54D34*
X60157Y-28031D03*
X54134Y-29449D03*
X45709Y-34961D03*
X54252Y-33543D03*
X45000Y-34409D03*
X54055Y-33110D03*
X46575Y-33583D03*
X53504Y-34016D03*
X46969Y-33465D03*
X53937Y-33858D03*
X45709Y-31693D03*
X50079Y-31339D03*
X42913Y-33228D03*
X42598Y-33543D03*
X46024Y-29843D03*
X48898Y-35787D03*
X54646Y-36378D03*
X47008Y-28819D03*
X56024Y-34685D03*
X55591Y-34685D03*
X47008Y-29252D03*
X55512Y-36378D03*
X45709Y-31220D03*
X46614Y-31929D03*
X50669Y-32441D03*
G54D35*
X52657Y-27205D02*
X52657Y-26989D01*
G54D36*
X42978Y-49449D02*
X42913Y-49449D01*
X60276Y-26475D02*
X59764Y-26475D01*
X43000Y-46500D02*
X43000Y-49427D01*
X54000Y-49427D02*
X46929Y-49427D01*
X40372Y-49427D02*
X39000Y-48055D01*
X47000Y-49427D02*
X46929Y-49498D01*
X42913Y-49427D02*
X40372Y-49427D01*
G54D37*
X56063Y-50315D02*
X56732Y-50315D01*
X56063Y-48701D02*
X56732Y-48701D01*
G54D36*
X39000Y-48055D02*
X39000Y-46500D01*
X46929Y-49427D02*
X42913Y-49427D01*
X58000Y-49427D02*
X58031Y-49396D01*
G54D37*
X51890Y-48701D02*
X49764Y-48701D01*
G54D36*
X59764Y-26475D02*
X59252Y-26475D01*
X58031Y-49370D02*
X58031Y-49427D01*
G54D35*
X58879Y-26102D02*
X59252Y-26475D01*
G54D36*
X64488Y-49449D02*
X61978Y-49449D01*
X54000Y-49427D02*
X58031Y-49427D01*
X58031Y-49396D02*
X58031Y-49370D01*
G54D35*
X60250Y-28990D02*
X60250Y-29341D01*
G54D36*
X60924Y-26475D02*
X60276Y-26475D01*
X62000Y-49427D02*
X61978Y-49449D01*
X60945Y-26496D02*
X60924Y-26475D01*
G54D35*
X53544Y-26102D02*
X58879Y-26102D01*
X59764Y-28504D02*
X60250Y-28990D01*
G54D36*
X62000Y-46500D02*
X62000Y-49427D01*
X58000Y-46500D02*
X58000Y-49427D01*
G54D35*
X59764Y-26475D02*
X59764Y-28504D01*
G54D36*
X42913Y-49449D02*
X42913Y-49427D01*
G54D35*
X52657Y-26989D02*
X53544Y-26102D01*
G54D37*
X51890Y-50315D02*
X50906Y-50315D01*
G54D36*
X61969Y-49449D02*
X61969Y-49427D01*
X46929Y-49528D02*
X46929Y-49427D01*
X65224Y-35827D02*
X65224Y-35673D01*
X58031Y-49427D02*
X61969Y-49427D01*
X66000Y-47937D02*
X64488Y-49449D01*
X46929Y-49498D02*
X46929Y-49528D01*
X43000Y-49427D02*
X42978Y-49449D01*
X47000Y-46500D02*
X47000Y-49427D01*
X61978Y-49449D02*
X61969Y-49449D01*
X66000Y-46500D02*
X66000Y-47937D01*
G54D35*
X55945Y-33268D02*
X54606Y-31929D01*
G54D38*
X55102Y-39337D02*
X56502Y-39337D01*
G54D39*
X41811Y-32623D02*
X43243Y-32623D01*
G54D35*
X53661Y-28873D02*
X53253Y-28873D01*
G54D39*
X50472Y-38937D02*
X51339Y-38937D01*
G54D38*
X58449Y-39582D02*
X58449Y-38976D01*
G54D39*
X49709Y-35602D02*
X49709Y-33189D01*
G54D35*
X56614Y-33268D02*
X56772Y-33110D01*
G54D39*
X38736Y-34548D02*
X38716Y-34528D01*
X43573Y-32904D02*
X44600Y-32904D01*
X49606Y-38937D02*
X50472Y-38937D01*
X49480Y-32591D02*
X49480Y-32449D01*
G54D35*
X53150Y-29725D02*
X54351Y-30926D01*
G54D39*
X43292Y-32623D02*
X43573Y-32904D01*
X38716Y-34528D02*
X38716Y-34315D01*
X43425Y-30827D02*
X43425Y-31575D01*
X40408Y-32623D02*
X41811Y-32623D01*
G54D35*
X53253Y-28873D02*
X53150Y-28976D01*
G54D39*
X49480Y-32591D02*
X49630Y-32741D01*
X54151Y-38386D02*
X51890Y-38386D01*
X51890Y-38386D02*
X51339Y-38937D01*
X49480Y-32449D02*
X49488Y-32441D01*
X44213Y-26732D02*
X44213Y-30039D01*
X48366Y-33221D02*
X47631Y-33221D01*
X43292Y-32456D02*
X43292Y-32623D01*
X49709Y-33189D02*
X50157Y-32741D01*
X58449Y-38976D02*
X58449Y-35827D01*
X47631Y-33221D02*
X47520Y-33110D01*
X43425Y-32323D02*
X43292Y-32456D01*
X44724Y-26359D02*
X44586Y-26359D01*
X51339Y-31339D02*
X51752Y-30926D01*
X45231Y-32904D02*
X45544Y-32591D01*
G54D38*
X56502Y-39337D02*
X56929Y-39764D01*
G54D39*
X44213Y-30039D02*
X43425Y-30827D01*
X54646Y-35527D02*
X55512Y-35527D01*
X43243Y-32623D02*
X43292Y-32623D01*
G54D35*
X53657Y-27205D02*
X53657Y-27170D01*
X57142Y-29984D02*
X57598Y-29528D01*
G54D39*
X47520Y-33110D02*
X47520Y-32591D01*
X44586Y-26359D02*
X44213Y-26732D01*
X48366Y-32591D02*
X47520Y-32591D01*
X44600Y-32904D02*
X45231Y-32904D01*
G54D38*
X56929Y-39764D02*
X58267Y-39764D01*
G54D39*
X47520Y-32591D02*
X45544Y-32591D01*
G54D35*
X56614Y-33268D02*
X55945Y-33268D01*
G54D39*
X57661Y-35039D02*
X58449Y-35827D01*
G54D35*
X54410Y-26417D02*
X56397Y-26417D01*
X56772Y-33110D02*
X56772Y-32913D01*
G54D39*
X48740Y-38937D02*
X49606Y-38937D01*
X47008Y-38937D02*
X47874Y-38937D01*
X47874Y-38937D02*
X48740Y-38937D01*
G54D35*
X54351Y-30926D02*
X54606Y-30926D01*
G54D39*
X38716Y-34315D02*
X40408Y-32623D01*
X48366Y-32591D02*
X49480Y-32591D01*
G54D38*
X58267Y-39764D02*
X58449Y-39582D01*
G54D35*
X53150Y-28976D02*
X53150Y-29725D01*
X53661Y-27209D02*
X53657Y-27205D01*
X56929Y-29984D02*
X57142Y-29984D01*
G54D39*
X55102Y-39337D02*
X54151Y-38386D01*
X55102Y-39337D02*
X55102Y-38433D01*
X49630Y-32741D02*
X50157Y-32741D01*
G54D35*
X56397Y-26417D02*
X56929Y-26949D01*
X57598Y-27618D02*
X56929Y-26949D01*
G54D39*
X45227Y-32274D02*
X44600Y-32274D01*
G54D35*
X57598Y-29528D02*
X57598Y-27618D01*
X53661Y-28873D02*
X53661Y-27209D01*
G54D39*
X38736Y-35602D02*
X38736Y-34548D01*
G54D35*
X54606Y-30926D02*
X54606Y-31929D01*
G54D39*
X55512Y-35527D02*
X56363Y-35527D01*
X56363Y-35527D02*
X56851Y-35039D01*
X56851Y-35039D02*
X57661Y-35039D01*
X51752Y-30926D02*
X54606Y-30926D01*
X45544Y-32591D02*
X45227Y-32274D01*
G54D35*
X53657Y-27170D02*
X54410Y-26417D01*
G54D39*
X55102Y-38433D02*
X55094Y-38425D01*
G54D38*
X52898Y-39337D02*
X52120Y-39337D01*
X52008Y-39449D02*
X51339Y-39449D01*
X52120Y-39337D02*
X52008Y-39449D01*
X52297Y-39593D02*
X52244Y-39646D01*
X52898Y-39593D02*
X52297Y-39593D01*
X52898Y-39848D02*
X52514Y-39848D01*
X52514Y-39848D02*
X52323Y-40039D01*
X53321Y-40104D02*
X53622Y-39803D01*
X48740Y-39488D02*
X48740Y-39449D01*
X52898Y-40104D02*
X53321Y-40104D01*
X53498Y-40360D02*
X53622Y-40236D01*
X47835Y-39449D02*
X47874Y-39449D01*
X52898Y-40360D02*
X53498Y-40360D01*
X54719Y-40360D02*
X54488Y-40591D01*
X47008Y-39488D02*
X47008Y-39449D01*
X55100Y-40360D02*
X54719Y-40360D01*
X54488Y-40591D02*
X54488Y-40906D01*
G54D40*
X37795Y-43067D02*
X37795Y-43933D01*
G54D36*
X37795Y-43067D02*
X38000Y-43067D01*
X37626Y-43067D02*
X37795Y-43067D01*
G54D40*
X37795Y-43933D02*
X37795Y-44488D01*
X39606Y-45354D02*
X40000Y-45748D01*
X37795Y-44488D02*
X38661Y-45354D01*
X40000Y-45748D02*
X40000Y-46500D01*
G54D39*
X38000Y-43067D02*
X38000Y-43933D01*
G54D40*
X38661Y-45354D02*
X39606Y-45354D01*
G54D36*
X37626Y-43933D02*
X38000Y-43933D01*
G54D40*
X41000Y-45488D02*
X41000Y-46500D01*
G54D36*
X39126Y-43933D02*
X39500Y-43933D01*
G54D40*
X39291Y-43067D02*
X39291Y-43933D01*
G54D36*
X39500Y-43067D02*
X39291Y-43067D01*
G54D40*
X39291Y-44724D02*
X40236Y-44724D01*
X40236Y-44724D02*
X41000Y-45488D01*
G54D36*
X39291Y-43067D02*
X39126Y-43067D01*
G54D39*
X39500Y-43067D02*
X39500Y-43933D01*
G54D40*
X39291Y-43933D02*
X39291Y-44724D01*
X59291Y-43933D02*
X59291Y-44960D01*
X59291Y-43067D02*
X59291Y-43933D01*
G54D36*
X59500Y-43933D02*
X59126Y-43933D01*
G54D40*
X60000Y-45669D02*
X60000Y-46500D01*
G54D39*
X59500Y-43067D02*
X59500Y-43933D01*
G54D36*
X59126Y-43067D02*
X59291Y-43067D01*
X59291Y-43067D02*
X59500Y-43067D01*
G54D40*
X59291Y-44960D02*
X60000Y-45669D01*
X60787Y-44960D02*
X61024Y-45197D01*
X61024Y-46476D02*
X61000Y-46500D01*
G54D36*
X60626Y-43933D02*
X61000Y-43933D01*
G54D39*
X60626Y-43067D02*
X60626Y-43933D01*
G54D36*
X60626Y-43067D02*
X60787Y-43067D01*
G54D40*
X61024Y-45197D02*
X61024Y-46476D01*
G54D36*
X60787Y-43067D02*
X61000Y-43067D01*
G54D40*
X60787Y-43933D02*
X60787Y-44960D01*
X60787Y-43067D02*
X60787Y-43933D01*
X62992Y-45669D02*
X62992Y-46492D01*
X62283Y-43933D02*
X62283Y-44960D01*
G54D39*
X62500Y-43067D02*
X62500Y-43933D01*
G54D40*
X62283Y-43067D02*
X62283Y-43933D01*
X62283Y-44960D02*
X62992Y-45669D01*
G54D36*
X62500Y-43933D02*
X62126Y-43933D01*
X62126Y-43067D02*
X62283Y-43067D01*
X62283Y-43067D02*
X62500Y-43067D01*
G54D40*
X62992Y-46492D02*
X63000Y-46500D01*
X63780Y-43067D02*
X63780Y-43933D01*
X63780Y-45276D02*
X64016Y-45512D01*
X64016Y-45512D02*
X64016Y-46484D01*
G54D36*
X63780Y-43067D02*
X63626Y-43067D01*
G54D40*
X63780Y-43933D02*
X63780Y-45276D01*
G54D36*
X63626Y-43933D02*
X64000Y-43933D01*
G54D40*
X64016Y-46484D02*
X64000Y-46500D01*
G54D36*
X64000Y-43067D02*
X63780Y-43067D01*
G54D39*
X63626Y-43067D02*
X63626Y-43933D01*
G54D36*
X65276Y-43067D02*
X65500Y-43067D01*
X65500Y-43933D02*
X65126Y-43933D01*
G54D40*
X65276Y-44566D02*
X65039Y-44803D01*
X65039Y-44803D02*
X65039Y-46461D01*
X65276Y-43067D02*
X65276Y-43933D01*
G54D39*
X65500Y-43067D02*
X65500Y-43933D01*
G54D36*
X65126Y-43067D02*
X65276Y-43067D01*
G54D40*
X65276Y-43933D02*
X65276Y-44566D01*
X65039Y-46461D02*
X65000Y-46500D01*
X66850Y-43933D02*
X66850Y-45275D01*
G54D36*
X66626Y-43067D02*
X66850Y-43067D01*
G54D40*
X67000Y-45425D02*
X67000Y-46500D01*
X66850Y-43067D02*
X66850Y-43933D01*
X66850Y-45275D02*
X67000Y-45425D01*
G54D36*
X66850Y-43067D02*
X67000Y-43067D01*
G54D39*
X67000Y-43067D02*
X67000Y-43933D01*
G54D36*
X67000Y-43933D02*
X66626Y-43933D01*
G54D39*
X64567Y-33287D02*
X64567Y-33071D01*
X64567Y-33071D02*
X64567Y-32913D01*
G54D40*
X64567Y-33071D02*
X66023Y-33071D01*
X66023Y-33071D02*
X66559Y-32535D01*
G54D39*
X64567Y-32913D02*
X65433Y-32913D01*
G54D40*
X66559Y-32535D02*
X67362Y-32535D01*
G54D39*
X65433Y-32913D02*
X65433Y-33287D01*
G54D40*
X64567Y-31850D02*
X66299Y-31850D01*
X66299Y-31850D02*
X66614Y-31535D01*
G54D39*
X64567Y-31850D02*
X64567Y-31654D01*
X65433Y-31654D02*
X65433Y-32028D01*
X64567Y-32028D02*
X64567Y-31850D01*
G54D40*
X66614Y-31535D02*
X67362Y-31535D01*
G54D39*
X64567Y-31654D02*
X65433Y-31654D01*
G54D40*
X67306Y-30591D02*
X67362Y-30535D01*
X64567Y-30591D02*
X67306Y-30591D01*
G54D39*
X64567Y-30768D02*
X64567Y-30591D01*
X64567Y-30394D02*
X65433Y-30394D01*
X65433Y-30394D02*
X65433Y-30768D01*
X64567Y-30591D02*
X64567Y-30394D01*
G54D40*
X64567Y-29331D02*
X67158Y-29331D01*
G54D39*
X64567Y-29134D02*
X65433Y-29134D01*
X64567Y-29331D02*
X64567Y-29134D01*
G54D40*
X67158Y-29331D02*
X67362Y-29535D01*
G54D39*
X65433Y-29134D02*
X65433Y-29508D01*
X64567Y-29508D02*
X64567Y-29331D01*
G54D40*
X40787Y-44409D02*
X42000Y-45622D01*
X40787Y-43933D02*
X40787Y-44409D01*
G54D39*
X40626Y-43067D02*
X40626Y-43933D01*
G54D40*
X40787Y-43067D02*
X40787Y-43933D01*
X42000Y-45622D02*
X42000Y-46500D01*
G54D36*
X40626Y-43067D02*
X40787Y-43067D01*
X40787Y-43067D02*
X41000Y-43067D01*
X40626Y-43933D02*
X41000Y-43933D01*
G54D40*
X42283Y-43067D02*
X42283Y-43933D01*
G54D39*
X42500Y-43067D02*
X42500Y-43933D01*
G54D36*
X42500Y-43067D02*
X42283Y-43067D01*
G54D40*
X44000Y-45653D02*
X44000Y-46500D01*
G54D36*
X42283Y-43067D02*
X42126Y-43067D01*
G54D40*
X43701Y-45354D02*
X44000Y-45653D01*
X42362Y-44724D02*
X42992Y-45354D01*
X42992Y-45354D02*
X43701Y-45354D01*
X42283Y-43933D02*
X42362Y-44012D01*
G54D36*
X42126Y-43933D02*
X42500Y-43933D01*
G54D40*
X42362Y-44012D02*
X42362Y-44724D01*
G54D36*
X43626Y-43067D02*
X43780Y-43067D01*
X43626Y-43933D02*
X44000Y-43933D01*
G54D40*
X43780Y-43067D02*
X43780Y-43933D01*
X44094Y-44724D02*
X45000Y-45630D01*
G54D36*
X43780Y-43067D02*
X44000Y-43067D01*
G54D40*
X43780Y-44724D02*
X44094Y-44724D01*
X45000Y-45630D02*
X45000Y-46500D01*
X43780Y-43933D02*
X43780Y-44724D01*
G54D39*
X44000Y-43067D02*
X44000Y-43933D01*
G54D36*
X45126Y-43067D02*
X45276Y-43067D01*
X45126Y-43933D02*
X45500Y-43933D01*
G54D40*
X46000Y-45448D02*
X46000Y-46500D01*
X45276Y-44724D02*
X46000Y-45448D01*
X45276Y-43933D02*
X45276Y-44724D01*
X45276Y-43067D02*
X45276Y-43933D01*
G54D36*
X45276Y-43067D02*
X45500Y-43067D01*
G54D39*
X45500Y-43067D02*
X45500Y-43933D01*
G54D36*
X46626Y-43067D02*
X46772Y-43067D01*
G54D40*
X47244Y-45354D02*
X47716Y-45354D01*
X48000Y-45638D02*
X48000Y-46500D01*
G54D36*
X47000Y-43933D02*
X46626Y-43933D01*
X46772Y-43067D02*
X47000Y-43067D01*
G54D40*
X46772Y-44882D02*
X47244Y-45354D01*
X46772Y-43067D02*
X46772Y-43850D01*
G54D39*
X47000Y-43067D02*
X47000Y-43933D01*
G54D40*
X47716Y-45354D02*
X48000Y-45638D01*
X46772Y-43850D02*
X46772Y-44882D01*
G54D39*
X48500Y-43067D02*
X48500Y-43933D01*
G54D36*
X48346Y-43067D02*
X48500Y-43067D01*
G54D40*
X48346Y-43933D02*
X48346Y-44882D01*
X49000Y-45536D02*
X49000Y-46500D01*
X48346Y-44882D02*
X49000Y-45536D01*
X48346Y-43067D02*
X48346Y-43933D01*
G54D36*
X48126Y-43067D02*
X48346Y-43067D01*
X48126Y-43933D02*
X48500Y-43933D01*
X49843Y-43067D02*
X50000Y-43067D01*
X50000Y-43933D02*
X49626Y-43933D01*
G54D40*
X49843Y-43933D02*
X49843Y-45354D01*
X50000Y-45511D02*
X50000Y-46500D01*
X49843Y-45354D02*
X50000Y-45511D01*
G54D39*
X49626Y-43067D02*
X49626Y-43933D01*
G54D40*
X49843Y-43067D02*
X49843Y-43933D01*
G54D36*
X49626Y-43067D02*
X49843Y-43067D01*
X57795Y-43067D02*
X58000Y-43067D01*
X57626Y-43067D02*
X57795Y-43067D01*
G54D40*
X58976Y-46476D02*
X59000Y-46500D01*
X57795Y-44725D02*
X58976Y-45906D01*
G54D39*
X58000Y-43067D02*
X58000Y-43933D01*
G54D40*
X57795Y-43067D02*
X57795Y-43933D01*
X58976Y-45906D02*
X58976Y-46476D01*
G54D36*
X57626Y-43933D02*
X58000Y-43933D01*
G54D40*
X57795Y-43933D02*
X57795Y-44725D01*
G54D36*
X59250Y-29341D02*
X59250Y-27227D01*
X59750Y-29341D02*
X59250Y-29341D01*
X59250Y-27227D02*
X59252Y-27225D01*
X59250Y-29341D02*
X59250Y-31841D01*
G54D35*
X57835Y-32953D02*
X59193Y-32953D01*
X56929Y-31984D02*
X56929Y-32047D01*
G54D36*
X59750Y-32396D02*
X59193Y-32953D01*
G54D35*
X56929Y-32047D02*
X57835Y-32953D01*
G54D36*
X59750Y-31841D02*
X59750Y-32396D01*
G54D39*
X43780Y-32441D02*
X43780Y-31959D01*
G54D36*
X47374Y-42571D02*
X47374Y-43067D01*
X64567Y-32522D02*
X64567Y-32539D01*
G54D35*
X61102Y-32480D02*
X60807Y-32323D01*
G54D39*
X56898Y-38425D02*
X57449Y-38976D01*
X41875Y-31959D02*
X41811Y-32023D01*
G54D36*
X62874Y-42559D02*
X62874Y-43067D01*
G54D39*
X38189Y-36055D02*
X38736Y-36602D01*
X39709Y-29921D02*
X41811Y-32023D01*
G54D36*
X61339Y-42520D02*
X61374Y-42555D01*
G54D35*
X55057Y-30176D02*
X54606Y-30176D01*
G54D36*
X64171Y-32522D02*
X64567Y-32522D01*
X45874Y-42567D02*
X45874Y-43067D01*
G54D39*
X45617Y-32271D02*
X48366Y-32271D01*
G54D36*
X64055Y-28898D02*
X64193Y-28760D01*
X61984Y-30291D02*
X62008Y-30315D01*
G54D39*
X49749Y-32141D02*
X50157Y-32141D01*
G54D36*
X60807Y-32953D02*
X60807Y-32323D01*
G54D39*
X50590Y-30197D02*
X52992Y-30197D01*
G54D35*
X54646Y-28873D02*
X55212Y-28873D01*
G54D36*
X64374Y-42563D02*
X64374Y-43067D01*
G54D39*
X50842Y-32141D02*
X50157Y-32141D01*
G54D35*
X56182Y-32835D02*
X56181Y-32835D01*
G54D36*
X64192Y-30020D02*
X64567Y-30020D01*
X50315Y-42520D02*
X50374Y-42579D01*
X45827Y-42520D02*
X45874Y-42567D01*
X67323Y-42520D02*
X67374Y-42571D01*
G54D37*
X54000Y-46573D02*
X54000Y-44740D01*
G54D35*
X60807Y-32953D02*
X60276Y-32953D01*
X55276Y-30395D02*
X55276Y-31929D01*
G54D36*
X64055Y-32638D02*
X64171Y-32522D01*
X38374Y-42548D02*
X38346Y-42520D01*
X39843Y-42520D02*
X39874Y-42551D01*
G54D39*
X44600Y-31959D02*
X45305Y-31959D01*
G54D37*
X54000Y-44740D02*
X54016Y-44724D01*
G54D36*
X60807Y-31898D02*
X60750Y-31841D01*
X65874Y-42567D02*
X65874Y-43067D01*
G54D39*
X48832Y-32271D02*
X48962Y-32141D01*
X55935Y-40108D02*
X56063Y-40236D01*
X43780Y-31959D02*
X41875Y-31959D01*
G54D36*
X67374Y-42571D02*
X67374Y-43067D01*
G54D39*
X54191Y-30176D02*
X54606Y-30176D01*
G54D36*
X61575Y-30291D02*
X61984Y-30291D01*
G54D39*
X55100Y-40108D02*
X55935Y-40108D01*
G54D36*
X48819Y-42520D02*
X48874Y-42575D01*
G54D39*
X53976Y-29961D02*
X54191Y-30176D01*
X49749Y-31038D02*
X50590Y-30197D01*
G54D35*
X55057Y-30176D02*
X55276Y-30395D01*
G54D39*
X54616Y-40108D02*
X55100Y-40108D01*
G54D36*
X64192Y-31280D02*
X64567Y-31280D01*
G54D35*
X54646Y-28873D02*
X54646Y-27216D01*
G54D36*
X50374Y-42579D02*
X50374Y-43067D01*
X59843Y-42520D02*
X59874Y-42551D01*
G54D35*
X55212Y-28873D02*
X55512Y-29173D01*
G54D36*
X64331Y-42520D02*
X64374Y-42563D01*
G54D39*
X49749Y-32141D02*
X49749Y-31038D01*
G54D35*
X55060Y-30176D02*
X54606Y-30176D01*
G54D36*
X65827Y-42520D02*
X65874Y-42567D01*
X64193Y-28760D02*
X64567Y-28760D01*
G54D35*
X55512Y-29173D02*
X55512Y-29724D01*
G54D36*
X58374Y-42548D02*
X58374Y-43067D01*
X47323Y-42520D02*
X47374Y-42571D01*
G54D39*
X40142Y-32023D02*
X38189Y-33976D01*
X53701Y-42284D02*
X54173Y-41812D01*
X53322Y-42663D02*
X53701Y-42284D01*
G54D37*
X55986Y-46573D02*
X56024Y-46535D01*
G54D36*
X41339Y-42520D02*
X41374Y-42555D01*
G54D39*
X43928Y-32589D02*
X43780Y-32441D01*
G54D37*
X54000Y-46573D02*
X51813Y-46573D01*
G54D39*
X48962Y-32141D02*
X49749Y-32141D01*
G54D36*
X44374Y-42563D02*
X44374Y-43067D01*
X58346Y-42520D02*
X58374Y-42548D01*
G54D35*
X55512Y-29724D02*
X55060Y-30176D01*
X55807Y-27205D02*
X56929Y-28327D01*
G54D39*
X41811Y-32023D02*
X40142Y-32023D01*
G54D35*
X54657Y-27205D02*
X55807Y-27205D01*
G54D39*
X47874Y-39961D02*
X48740Y-39961D01*
G54D36*
X39874Y-42551D02*
X39874Y-43067D01*
G54D39*
X54173Y-41812D02*
X54173Y-41417D01*
X45305Y-31959D02*
X45617Y-32271D01*
X57449Y-38976D02*
X57449Y-35827D01*
G54D36*
X60807Y-32323D02*
X60807Y-31898D01*
G54D39*
X51709Y-35602D02*
X51709Y-33008D01*
G54D37*
X51813Y-46573D02*
X51811Y-46575D01*
G54D39*
X54173Y-40551D02*
X54291Y-40433D01*
X47008Y-39961D02*
X47874Y-39961D01*
X54173Y-41417D02*
X54173Y-40551D01*
X48740Y-39961D02*
X49606Y-39961D01*
X50472Y-39961D02*
X50906Y-39961D01*
X49606Y-39961D02*
X50472Y-39961D01*
X54173Y-40551D02*
X54291Y-40433D01*
X60276Y-27225D02*
X60276Y-27520D01*
X55694Y-38425D02*
X56898Y-38425D01*
G54D37*
X54000Y-46573D02*
X55986Y-46573D01*
G54D35*
X55276Y-31929D02*
X56182Y-32835D01*
G54D36*
X48874Y-42575D02*
X48874Y-43067D01*
G54D39*
X36535Y-29075D02*
X36910Y-29075D01*
X37756Y-29921D02*
X39709Y-29921D01*
G54D35*
X54646Y-27216D02*
X54657Y-27205D01*
G54D36*
X59874Y-42551D02*
X59874Y-43067D01*
G54D39*
X48366Y-32271D02*
X48832Y-32271D01*
X54291Y-40433D02*
X54616Y-40108D01*
X36910Y-29075D02*
X37756Y-29921D01*
G54D36*
X42874Y-42559D02*
X42874Y-43067D01*
G54D39*
X38189Y-33976D02*
X38189Y-36055D01*
G54D36*
X44331Y-42520D02*
X44374Y-42563D01*
G54D37*
X54332Y-46573D02*
X55748Y-45157D01*
G54D36*
X64055Y-30157D02*
X64192Y-30020D01*
X38374Y-43067D02*
X38374Y-42548D01*
X41374Y-42555D02*
X41374Y-43067D01*
X64055Y-31417D02*
X64192Y-31280D01*
G54D39*
X50906Y-39961D02*
X51339Y-39961D01*
X52898Y-42663D02*
X53322Y-42663D01*
G54D36*
X62835Y-42520D02*
X62874Y-42559D01*
G54D39*
X51709Y-33008D02*
X50842Y-32141D01*
X44600Y-31959D02*
X43780Y-31959D01*
G54D36*
X61374Y-42555D02*
X61374Y-43067D01*
G54D39*
X44600Y-32589D02*
X43928Y-32589D01*
G54D36*
X42835Y-42520D02*
X42874Y-42559D01*
G54D37*
X54000Y-46573D02*
X54332Y-46573D01*
X53738Y-46573D02*
X52283Y-45118D01*
X54000Y-46573D02*
X53738Y-46573D01*
G54D39*
X55935Y-40108D02*
X56063Y-40236D01*
G54D38*
X47598Y-36602D02*
X49709Y-36602D01*
X41736Y-36602D02*
X47598Y-36602D01*
X47596Y-36602D02*
X47598Y-36600D01*
X49709Y-36602D02*
X48413Y-36602D01*
X47596Y-35785D02*
X47596Y-36602D01*
X47598Y-36600D02*
X47598Y-36575D01*
X47598Y-36575D02*
X47598Y-36602D01*
X47596Y-34321D02*
X47596Y-35785D01*
X47717Y-33780D02*
X47401Y-33780D01*
X41220Y-36102D02*
X47008Y-36102D01*
X47008Y-36102D02*
X47276Y-35834D01*
X48031Y-34094D02*
X47717Y-33780D01*
X47276Y-34890D02*
X47276Y-34321D01*
X50709Y-35602D02*
X50618Y-35602D01*
X40736Y-35618D02*
X41220Y-36102D01*
X47276Y-35834D02*
X47276Y-35322D01*
X48031Y-35393D02*
X48031Y-34094D01*
X47401Y-33780D02*
X47276Y-33905D01*
X40736Y-35602D02*
X40736Y-35618D01*
X47276Y-33905D02*
X47276Y-34321D01*
X47276Y-35322D02*
X47276Y-34890D01*
X50618Y-35602D02*
X50118Y-36102D01*
X48740Y-36102D02*
X48031Y-35393D01*
X50118Y-36102D02*
X48740Y-36102D01*
X44724Y-27850D02*
X44724Y-27185D01*
X43228Y-42756D02*
X43228Y-43579D01*
X51260Y-41181D02*
X44803Y-41181D01*
X43228Y-43579D02*
X42874Y-43933D01*
X52898Y-41384D02*
X51463Y-41384D01*
X51463Y-41384D02*
X51260Y-41181D01*
X44803Y-41181D02*
X43228Y-42756D01*
X52898Y-41896D02*
X51344Y-41896D01*
X51102Y-41654D02*
X47322Y-41654D01*
X51344Y-41896D02*
X51102Y-41654D01*
X46220Y-42756D02*
X46220Y-43587D01*
X46220Y-43587D02*
X45874Y-43933D01*
X47322Y-41654D02*
X46220Y-42756D01*
X40236Y-42756D02*
X40236Y-43571D01*
X51659Y-40872D02*
X51496Y-40709D01*
X51496Y-40709D02*
X42283Y-40709D01*
X40236Y-43571D02*
X39874Y-43933D01*
X42283Y-40709D02*
X40236Y-42756D01*
X52898Y-40872D02*
X51659Y-40872D01*
X58031Y-41181D02*
X63543Y-41181D01*
X55102Y-41384D02*
X57828Y-41384D01*
X63543Y-41181D02*
X64724Y-42362D01*
X64724Y-43583D02*
X64374Y-43933D01*
X64724Y-42362D02*
X64724Y-43583D01*
X57828Y-41384D02*
X58031Y-41181D01*
X51798Y-40616D02*
X51654Y-40472D01*
X40945Y-40472D02*
X38740Y-42677D01*
X52898Y-40616D02*
X51798Y-40616D01*
X38740Y-42677D02*
X38740Y-43567D01*
X38740Y-43567D02*
X38374Y-43933D01*
X51654Y-40472D02*
X40945Y-40472D01*
X55102Y-40872D02*
X57711Y-40872D01*
X64843Y-40748D02*
X57835Y-40748D01*
X66103Y-42008D02*
X64843Y-40748D01*
X57835Y-40748D02*
X57711Y-40872D01*
X67717Y-43542D02*
X67717Y-42402D01*
X67441Y-42126D02*
X66221Y-42126D01*
X66221Y-42126D02*
X66103Y-42008D01*
X67374Y-43885D02*
X67374Y-43933D01*
X67717Y-42402D02*
X67441Y-42126D01*
X67374Y-43885D02*
X67717Y-43542D01*
X58504Y-42126D02*
X58740Y-42362D01*
X58740Y-43567D02*
X58374Y-43933D01*
X57829Y-42407D02*
X58110Y-42126D01*
X55102Y-42407D02*
X57829Y-42407D01*
X58110Y-42126D02*
X58504Y-42126D01*
X58740Y-42362D02*
X58740Y-43567D01*
X61024Y-41654D02*
X61732Y-42362D01*
X61732Y-43575D02*
X61374Y-43933D01*
X61732Y-42362D02*
X61732Y-43575D01*
X57868Y-41896D02*
X58110Y-41654D01*
X58110Y-41654D02*
X61024Y-41654D01*
X55102Y-41896D02*
X57868Y-41896D01*
X57770Y-41128D02*
X57953Y-40945D01*
X64803Y-40945D02*
X66220Y-42362D01*
X66220Y-42362D02*
X66220Y-43587D01*
X57953Y-40945D02*
X64803Y-40945D01*
X55102Y-41128D02*
X57770Y-41128D01*
X66220Y-43587D02*
X65874Y-43933D01*
X55102Y-41640D02*
X57809Y-41640D01*
X58032Y-41417D02*
X62283Y-41417D01*
X57809Y-41640D02*
X58032Y-41417D01*
X62283Y-41417D02*
X63228Y-42362D01*
X63228Y-43579D02*
X62874Y-43933D01*
X63228Y-42362D02*
X63228Y-43579D01*
X59843Y-41890D02*
X60236Y-42283D01*
X58110Y-41890D02*
X59843Y-41890D01*
X60236Y-43571D02*
X59874Y-43933D01*
X60236Y-42283D02*
X60236Y-43571D01*
X55102Y-42152D02*
X57848Y-42152D01*
X57848Y-42152D02*
X58110Y-41890D01*
X50374Y-43933D02*
X50594Y-43933D01*
X54857Y-42663D02*
X55102Y-42663D01*
X54370Y-43150D02*
X54857Y-42663D01*
X51377Y-43150D02*
X54370Y-43150D01*
X50594Y-43933D02*
X51377Y-43150D01*
X48504Y-41890D02*
X47717Y-42677D01*
X50945Y-41890D02*
X48504Y-41890D01*
X47717Y-42677D02*
X47717Y-43590D01*
X47717Y-43590D02*
X47374Y-43933D01*
X51207Y-42152D02*
X50945Y-41890D01*
X52898Y-42152D02*
X51207Y-42152D01*
X44724Y-43583D02*
X44374Y-43933D01*
X46063Y-41417D02*
X44724Y-42756D01*
X51404Y-41640D02*
X51181Y-41417D01*
X51181Y-41417D02*
X46063Y-41417D01*
X44724Y-42756D02*
X44724Y-43583D01*
X52898Y-41640D02*
X51404Y-41640D01*
X41732Y-43575D02*
X41374Y-43933D01*
X41732Y-42677D02*
X41732Y-43575D01*
X51339Y-40945D02*
X43464Y-40945D01*
X52898Y-41128D02*
X51522Y-41128D01*
X51522Y-41128D02*
X51339Y-40945D01*
X43464Y-40945D02*
X41732Y-42677D01*
X49291Y-42441D02*
X49606Y-42126D01*
X48902Y-43933D02*
X49291Y-43544D01*
X51068Y-42407D02*
X52898Y-42407D01*
X49291Y-43544D02*
X49291Y-42441D01*
X48874Y-43933D02*
X48902Y-43933D01*
X49606Y-42126D02*
X50787Y-42126D01*
X50787Y-42126D02*
X51068Y-42407D01*
X54646Y-29473D02*
X53661Y-29473D01*
X54646Y-29473D02*
X54857Y-29473D01*
X60750Y-29341D02*
X60750Y-28624D01*
X54134Y-29449D02*
X54158Y-29473D01*
X60750Y-28624D02*
X60157Y-28031D01*
X54158Y-29473D02*
X54646Y-29473D01*
X60802Y-30891D02*
X60250Y-31443D01*
X60250Y-31443D02*
X60250Y-31841D01*
X61575Y-30891D02*
X60802Y-30891D01*
X45696Y-34321D02*
X45696Y-34948D01*
X45696Y-34948D02*
X45709Y-34961D01*
X54252Y-33543D02*
X54331Y-33622D01*
X61889Y-33780D02*
X56614Y-33780D01*
X63425Y-30236D02*
X63425Y-32244D01*
X63897Y-29764D02*
X63425Y-30236D01*
X65177Y-29764D02*
X65433Y-30020D01*
X56614Y-33780D02*
X54450Y-33780D01*
X54450Y-33780D02*
X54331Y-33661D01*
X54331Y-33622D02*
X54331Y-33661D01*
X63425Y-32244D02*
X61889Y-33780D01*
X63937Y-29764D02*
X63897Y-29764D01*
X65177Y-29764D02*
X63937Y-29764D01*
X63858Y-28504D02*
X63228Y-29134D01*
X54764Y-33583D02*
X56535Y-33583D01*
X63228Y-32166D02*
X61811Y-33583D01*
X65177Y-28504D02*
X63937Y-28504D01*
X63937Y-28504D02*
X63858Y-28504D01*
X61811Y-33583D02*
X56535Y-33583D01*
X65177Y-28504D02*
X65433Y-28760D01*
X63228Y-29134D02*
X63228Y-32166D01*
X45386Y-34321D02*
X45088Y-34321D01*
X54764Y-33583D02*
X54291Y-33110D01*
X54291Y-33110D02*
X54055Y-33110D01*
X45088Y-34321D02*
X45000Y-34409D01*
X63937Y-32283D02*
X63858Y-32283D01*
X56575Y-34173D02*
X53661Y-34173D01*
X46636Y-33644D02*
X46575Y-33583D01*
X65177Y-32283D02*
X63937Y-32283D01*
X46636Y-34321D02*
X46636Y-33644D01*
X53661Y-34173D02*
X53504Y-34016D01*
X63858Y-32283D02*
X61968Y-34173D01*
X61968Y-34173D02*
X56575Y-34173D01*
X65177Y-32283D02*
X65433Y-32539D01*
X63622Y-31220D02*
X63622Y-32292D01*
X54055Y-33976D02*
X56535Y-33976D01*
X65177Y-31024D02*
X65433Y-31280D01*
X61938Y-33976D02*
X56535Y-33976D01*
X46956Y-33478D02*
X46969Y-33465D01*
X53937Y-33858D02*
X54055Y-33976D01*
X63818Y-31024D02*
X63622Y-31220D01*
X65177Y-31024D02*
X63937Y-31024D01*
X63937Y-31024D02*
X63818Y-31024D01*
X63622Y-32292D02*
X61938Y-33976D01*
X46956Y-34321D02*
X46956Y-33478D01*
X61102Y-40472D02*
X61417Y-40157D01*
X61417Y-39245D02*
X61449Y-38976D01*
X61417Y-40157D02*
X61417Y-39245D01*
X57795Y-40472D02*
X61102Y-40472D01*
X57651Y-40616D02*
X57795Y-40472D01*
G54D39*
X61449Y-38976D02*
X61449Y-35827D01*
G54D38*
X59992Y-34370D02*
X56575Y-34370D01*
X53346Y-34370D02*
X50315Y-31339D01*
X50315Y-31339D02*
X50079Y-31339D01*
X61449Y-35827D02*
X59992Y-34370D01*
X45345Y-31329D02*
X44600Y-31329D01*
X55102Y-40616D02*
X57651Y-40616D01*
X56575Y-34370D02*
X53346Y-34370D01*
X45709Y-31693D02*
X45345Y-31329D01*
X39316Y-34528D02*
X44370Y-34528D01*
X46326Y-33846D02*
X46326Y-34321D01*
X39736Y-34948D02*
X39316Y-34528D01*
X46102Y-33622D02*
X46326Y-33846D01*
X39736Y-35602D02*
X39736Y-34948D01*
X45276Y-33622D02*
X46102Y-33622D01*
X44370Y-34528D02*
X45276Y-33622D01*
X42913Y-33228D02*
X42922Y-33219D01*
X42922Y-33219D02*
X44600Y-33219D01*
X42598Y-33543D02*
X42607Y-33534D01*
X42607Y-33534D02*
X44600Y-33534D01*
X48871Y-31641D02*
X49094Y-31418D01*
X49094Y-29768D02*
X51657Y-27205D01*
X49094Y-31418D02*
X49094Y-29768D01*
X48366Y-31641D02*
X48871Y-31641D01*
X48366Y-31331D02*
X48366Y-29496D01*
X48366Y-29496D02*
X50657Y-27205D01*
X49657Y-27863D02*
X49657Y-27205D01*
X47588Y-29932D02*
X49657Y-27863D01*
X47588Y-30541D02*
X47588Y-29932D01*
X47274Y-30541D02*
X47274Y-29497D01*
X48657Y-28114D02*
X48657Y-27205D01*
X47274Y-29497D02*
X48657Y-28114D01*
X45657Y-28201D02*
X45384Y-28474D01*
X45657Y-27205D02*
X45657Y-28201D01*
X45384Y-28474D02*
X45384Y-30541D01*
X44724Y-29882D02*
X43661Y-30945D01*
X44724Y-28450D02*
X44724Y-29882D01*
X43661Y-31299D02*
X44006Y-31644D01*
X44006Y-31644D02*
X44600Y-31644D01*
X43661Y-30945D02*
X43661Y-31299D01*
X39736Y-36602D02*
X40236Y-36102D01*
X46016Y-35520D02*
X46016Y-34321D01*
X45827Y-35709D02*
X46016Y-35520D01*
X43071Y-35709D02*
X45827Y-35709D01*
X42441Y-35079D02*
X43071Y-35709D01*
X40393Y-35079D02*
X42441Y-35079D01*
X40236Y-35236D02*
X40393Y-35079D01*
X40236Y-36102D02*
X40236Y-35236D01*
X46014Y-29853D02*
X46024Y-29843D01*
X46014Y-30541D02*
X46014Y-29853D01*
X48366Y-35255D02*
X48898Y-35787D01*
X48366Y-33541D02*
X48366Y-35255D01*
X60472Y-39236D02*
X60449Y-38976D01*
X55102Y-39848D02*
X56305Y-39848D01*
X56305Y-39848D02*
X56693Y-40236D01*
X60472Y-40000D02*
X60472Y-39236D01*
G54D39*
X60449Y-38976D02*
X60449Y-35827D01*
G54D38*
X54646Y-36378D02*
X54646Y-36127D01*
X56535Y-34567D02*
X56142Y-34567D01*
X46930Y-28819D02*
X47008Y-28819D01*
X46644Y-29105D02*
X46930Y-28819D01*
X59189Y-34567D02*
X56535Y-34567D01*
X46644Y-30541D02*
X46644Y-29105D01*
X56142Y-34567D02*
X56024Y-34685D01*
X60236Y-40236D02*
X60472Y-40000D01*
X59189Y-34567D02*
X60449Y-35827D01*
X56693Y-40236D02*
X60236Y-40236D01*
X56444Y-39594D02*
X56851Y-40001D01*
G54D39*
X59449Y-38976D02*
X59449Y-35827D01*
G54D38*
X46958Y-30541D02*
X46958Y-29302D01*
X58583Y-34764D02*
X56378Y-34764D01*
X46958Y-29302D02*
X47008Y-29252D01*
X55102Y-39593D02*
X56444Y-39594D01*
X59449Y-35630D02*
X58583Y-34764D01*
X56851Y-40001D02*
X59213Y-40000D01*
X59449Y-35630D02*
X59449Y-35827D01*
X56142Y-35000D02*
X55906Y-35000D01*
X59449Y-39764D02*
X59449Y-38976D01*
X56378Y-34764D02*
X56142Y-35000D01*
X59213Y-40000D02*
X59449Y-39764D01*
X55512Y-36127D02*
X55512Y-36378D01*
X55906Y-35000D02*
X55591Y-34685D01*
X45698Y-31209D02*
X45698Y-30541D01*
X45709Y-31220D02*
X45698Y-31209D01*
X50866Y-32835D02*
X50866Y-32638D01*
X51680Y-36602D02*
X51220Y-36142D01*
X51220Y-36142D02*
X51220Y-33189D01*
X51220Y-33189D02*
X50866Y-32835D01*
X46614Y-31929D02*
X46328Y-31643D01*
X46328Y-30541D02*
X46328Y-31643D01*
X51680Y-36602D02*
X51709Y-36602D01*
X50866Y-32638D02*
X50669Y-32441D01*
G54D10*
G36*
X68607Y-48563D02*
X68485Y-48563D01*
X68485Y-48702D01*
X67964Y-48486D01*
X67393Y-48485D01*
X66865Y-48703D01*
X66461Y-49106D01*
X66242Y-49634D01*
X66241Y-50205D01*
X66459Y-50733D01*
X66576Y-50851D01*
X37793Y-50851D01*
X37909Y-50736D01*
X38128Y-50208D01*
X38129Y-49637D01*
X37911Y-49109D01*
X37508Y-48705D01*
X36980Y-48486D01*
X36409Y-48485D01*
X35881Y-48703D01*
X35763Y-48820D01*
X35763Y-45925D01*
X39483Y-45925D01*
X39508Y-45950D01*
X39456Y-46076D01*
X39456Y-46292D01*
X39456Y-46924D01*
X39539Y-47124D01*
X39692Y-47277D01*
X39892Y-47360D01*
X40108Y-47360D01*
X40308Y-47277D01*
X40461Y-47124D01*
X40500Y-47030D01*
X40539Y-47124D01*
X40692Y-47277D01*
X40892Y-47360D01*
X41108Y-47360D01*
X41308Y-47277D01*
X41461Y-47124D01*
X41500Y-47030D01*
X41539Y-47124D01*
X41692Y-47277D01*
X41892Y-47360D01*
X42108Y-47360D01*
X42308Y-47277D01*
X42461Y-47124D01*
X42544Y-46924D01*
X42544Y-46708D01*
X42544Y-46076D01*
X42491Y-45948D01*
X42491Y-45925D01*
X43509Y-45925D01*
X43509Y-45948D01*
X43456Y-46076D01*
X43456Y-46292D01*
X43456Y-46924D01*
X43539Y-47124D01*
X43692Y-47277D01*
X43892Y-47360D01*
X44108Y-47360D01*
X44308Y-47277D01*
X44461Y-47124D01*
X44500Y-47030D01*
X44539Y-47124D01*
X44692Y-47277D01*
X44892Y-47360D01*
X45108Y-47360D01*
X45308Y-47277D01*
X45461Y-47124D01*
X45500Y-47030D01*
X45539Y-47124D01*
X45692Y-47277D01*
X45892Y-47360D01*
X46108Y-47360D01*
X46308Y-47277D01*
X46461Y-47124D01*
X46544Y-46924D01*
X46544Y-46708D01*
X46544Y-46076D01*
X46491Y-45948D01*
X46491Y-45925D01*
X47509Y-45925D01*
X47509Y-45948D01*
X47456Y-46076D01*
X47456Y-46292D01*
X47456Y-46924D01*
X47539Y-47124D01*
X47692Y-47277D01*
X47892Y-47360D01*
X48108Y-47360D01*
X48308Y-47277D01*
X48461Y-47124D01*
X48500Y-47030D01*
X48539Y-47124D01*
X48692Y-47277D01*
X48892Y-47360D01*
X49108Y-47360D01*
X49308Y-47277D01*
X49461Y-47124D01*
X49500Y-47030D01*
X49539Y-47124D01*
X49692Y-47277D01*
X49892Y-47360D01*
X50108Y-47360D01*
X50308Y-47277D01*
X50461Y-47124D01*
X50544Y-46924D01*
X50544Y-46708D01*
X50544Y-46076D01*
X50491Y-45948D01*
X50491Y-45925D01*
X50650Y-45925D01*
X50650Y-48208D01*
X57185Y-48208D01*
X57185Y-45925D01*
X58301Y-45925D01*
X58456Y-46080D01*
X58456Y-46292D01*
X58456Y-46924D01*
X58539Y-47124D01*
X58692Y-47277D01*
X58892Y-47360D01*
X59108Y-47360D01*
X59308Y-47277D01*
X59461Y-47124D01*
X59500Y-47030D01*
X59539Y-47124D01*
X59692Y-47277D01*
X59892Y-47360D01*
X60108Y-47360D01*
X60308Y-47277D01*
X60461Y-47124D01*
X60500Y-47030D01*
X60539Y-47124D01*
X60692Y-47277D01*
X60892Y-47360D01*
X61108Y-47360D01*
X61308Y-47277D01*
X61461Y-47124D01*
X61544Y-46924D01*
X61544Y-46708D01*
X61544Y-46076D01*
X61515Y-46006D01*
X61515Y-45925D01*
X62501Y-45925D01*
X62501Y-45967D01*
X62456Y-46076D01*
X62456Y-46292D01*
X62456Y-46924D01*
X62539Y-47124D01*
X62692Y-47277D01*
X62892Y-47360D01*
X63108Y-47360D01*
X63308Y-47277D01*
X63461Y-47124D01*
X63500Y-47030D01*
X63539Y-47124D01*
X63692Y-47277D01*
X63892Y-47360D01*
X64108Y-47360D01*
X64308Y-47277D01*
X64461Y-47124D01*
X64500Y-47030D01*
X64539Y-47124D01*
X64692Y-47277D01*
X64892Y-47360D01*
X65108Y-47360D01*
X65308Y-47277D01*
X65461Y-47124D01*
X65544Y-46924D01*
X65544Y-46708D01*
X65544Y-46076D01*
X65530Y-46042D01*
X65530Y-45006D01*
X65623Y-44913D01*
X65730Y-44754D01*
X65767Y-44566D01*
X65767Y-44395D01*
X65796Y-44395D01*
X66052Y-44395D01*
X66145Y-44357D01*
X66217Y-44285D01*
X66250Y-44206D01*
X66282Y-44284D01*
X66354Y-44356D01*
X66359Y-44358D01*
X66359Y-45275D01*
X66396Y-45463D01*
X66503Y-45622D01*
X66509Y-45628D01*
X66509Y-45948D01*
X66456Y-46076D01*
X66456Y-46292D01*
X66456Y-46924D01*
X66539Y-47124D01*
X66692Y-47277D01*
X66892Y-47360D01*
X67108Y-47360D01*
X67308Y-47277D01*
X67461Y-47124D01*
X67544Y-46924D01*
X67544Y-46708D01*
X67544Y-46076D01*
X67491Y-45948D01*
X67491Y-45425D01*
X67454Y-45237D01*
X67347Y-45078D01*
X67341Y-45072D01*
X67341Y-44395D01*
X67552Y-44395D01*
X67645Y-44357D01*
X67717Y-44285D01*
X67756Y-44192D01*
X67756Y-44091D01*
X67756Y-43919D01*
X67925Y-43750D01*
X67989Y-43655D01*
X67989Y-43654D01*
X68011Y-43542D01*
X68011Y-42402D01*
X67989Y-42289D01*
X67925Y-42194D01*
X67649Y-41918D01*
X67554Y-41854D01*
X67441Y-41832D01*
X66343Y-41832D01*
X66311Y-41800D01*
X66310Y-41799D01*
X65051Y-40540D01*
X64956Y-40476D01*
X64843Y-40454D01*
X64586Y-40454D01*
X64586Y-36550D01*
X64685Y-36451D01*
X64768Y-36251D01*
X64768Y-36035D01*
X64768Y-35403D01*
X64685Y-35203D01*
X64586Y-35104D01*
X64586Y-33669D01*
X64825Y-33669D01*
X64918Y-33631D01*
X64987Y-33562D01*
X65013Y-33562D01*
X65081Y-33630D01*
X65174Y-33669D01*
X65275Y-33669D01*
X65691Y-33669D01*
X65784Y-33631D01*
X65853Y-33562D01*
X66023Y-33562D01*
X66211Y-33525D01*
X66370Y-33418D01*
X66659Y-33129D01*
X68607Y-33129D01*
X68607Y-34805D01*
X68492Y-34690D01*
X67964Y-34471D01*
X67393Y-34470D01*
X66865Y-34688D01*
X66461Y-35091D01*
X66242Y-35619D01*
X66241Y-36190D01*
X66459Y-36718D01*
X66862Y-37122D01*
X67347Y-37323D01*
X67347Y-37480D01*
X66865Y-37680D01*
X66461Y-38083D01*
X66242Y-38611D01*
X66241Y-39182D01*
X66459Y-39710D01*
X66862Y-40114D01*
X67390Y-40333D01*
X67961Y-40334D01*
X68489Y-40116D01*
X68607Y-39998D01*
X68607Y-48563D01*
X68607Y-48563D01*
G37*
G54D35*
X68607Y-48563D02*
X68485Y-48563D01*
X68485Y-48702D01*
X67964Y-48486D01*
X67393Y-48485D01*
X66865Y-48703D01*
X66461Y-49106D01*
X66242Y-49634D01*
X66241Y-50205D01*
X66459Y-50733D01*
X66576Y-50851D01*
X37793Y-50851D01*
X37909Y-50736D01*
X38128Y-50208D01*
X38129Y-49637D01*
X37911Y-49109D01*
X37508Y-48705D01*
X36980Y-48486D01*
X36409Y-48485D01*
X35881Y-48703D01*
X35763Y-48820D01*
X35763Y-45925D01*
X39483Y-45925D01*
X39508Y-45950D01*
X39456Y-46076D01*
X39456Y-46292D01*
X39456Y-46924D01*
X39539Y-47124D01*
X39692Y-47277D01*
X39892Y-47360D01*
X40108Y-47360D01*
X40308Y-47277D01*
X40461Y-47124D01*
X40500Y-47030D01*
X40539Y-47124D01*
X40692Y-47277D01*
X40892Y-47360D01*
X41108Y-47360D01*
X41308Y-47277D01*
X41461Y-47124D01*
X41500Y-47030D01*
X41539Y-47124D01*
X41692Y-47277D01*
X41892Y-47360D01*
X42108Y-47360D01*
X42308Y-47277D01*
X42461Y-47124D01*
X42544Y-46924D01*
X42544Y-46708D01*
X42544Y-46076D01*
X42491Y-45948D01*
X42491Y-45925D01*
X43509Y-45925D01*
X43509Y-45948D01*
X43456Y-46076D01*
X43456Y-46292D01*
X43456Y-46924D01*
X43539Y-47124D01*
X43692Y-47277D01*
X43892Y-47360D01*
X44108Y-47360D01*
X44308Y-47277D01*
X44461Y-47124D01*
X44500Y-47030D01*
X44539Y-47124D01*
X44692Y-47277D01*
X44892Y-47360D01*
X45108Y-47360D01*
X45308Y-47277D01*
X45461Y-47124D01*
X45500Y-47030D01*
X45539Y-47124D01*
X45692Y-47277D01*
X45892Y-47360D01*
X46108Y-47360D01*
X46308Y-47277D01*
X46461Y-47124D01*
X46544Y-46924D01*
X46544Y-46708D01*
X46544Y-46076D01*
X46491Y-45948D01*
X46491Y-45925D01*
X47509Y-45925D01*
X47509Y-45948D01*
X47456Y-46076D01*
X47456Y-46292D01*
X47456Y-46924D01*
X47539Y-47124D01*
X47692Y-47277D01*
X47892Y-47360D01*
X48108Y-47360D01*
X48308Y-47277D01*
X48461Y-47124D01*
X48500Y-47030D01*
X48539Y-47124D01*
X48692Y-47277D01*
X48892Y-47360D01*
X49108Y-47360D01*
X49308Y-47277D01*
X49461Y-47124D01*
X49500Y-47030D01*
X49539Y-47124D01*
X49692Y-47277D01*
X49892Y-47360D01*
X50108Y-47360D01*
X50308Y-47277D01*
X50461Y-47124D01*
X50544Y-46924D01*
X50544Y-46708D01*
X50544Y-46076D01*
X50491Y-45948D01*
X50491Y-45925D01*
X50650Y-45925D01*
X50650Y-48208D01*
X57185Y-48208D01*
X57185Y-45925D01*
X58301Y-45925D01*
X58456Y-46080D01*
X58456Y-46292D01*
X58456Y-46924D01*
X58539Y-47124D01*
X58692Y-47277D01*
X58892Y-47360D01*
X59108Y-47360D01*
X59308Y-47277D01*
X59461Y-47124D01*
X59500Y-47030D01*
X59539Y-47124D01*
X59692Y-47277D01*
X59892Y-47360D01*
X60108Y-47360D01*
X60308Y-47277D01*
X60461Y-47124D01*
X60500Y-47030D01*
X60539Y-47124D01*
X60692Y-47277D01*
X60892Y-47360D01*
X61108Y-47360D01*
X61308Y-47277D01*
X61461Y-47124D01*
X61544Y-46924D01*
X61544Y-46708D01*
X61544Y-46076D01*
X61515Y-46006D01*
X61515Y-45925D01*
X62501Y-45925D01*
X62501Y-45967D01*
X62456Y-46076D01*
X62456Y-46292D01*
X62456Y-46924D01*
X62539Y-47124D01*
X62692Y-47277D01*
X62892Y-47360D01*
X63108Y-47360D01*
X63308Y-47277D01*
X63461Y-47124D01*
X63500Y-47030D01*
X63539Y-47124D01*
X63692Y-47277D01*
X63892Y-47360D01*
X64108Y-47360D01*
X64308Y-47277D01*
X64461Y-47124D01*
X64500Y-47030D01*
X64539Y-47124D01*
X64692Y-47277D01*
X64892Y-47360D01*
X65108Y-47360D01*
X65308Y-47277D01*
X65461Y-47124D01*
X65544Y-46924D01*
X65544Y-46708D01*
X65544Y-46076D01*
X65530Y-46042D01*
X65530Y-45006D01*
X65623Y-44913D01*
X65730Y-44754D01*
X65767Y-44566D01*
X65767Y-44395D01*
X65796Y-44395D01*
X66052Y-44395D01*
X66145Y-44357D01*
X66217Y-44285D01*
X66250Y-44206D01*
X66282Y-44284D01*
X66354Y-44356D01*
X66359Y-44358D01*
X66359Y-45275D01*
X66396Y-45463D01*
X66503Y-45622D01*
X66509Y-45628D01*
X66509Y-45948D01*
X66456Y-46076D01*
X66456Y-46292D01*
X66456Y-46924D01*
X66539Y-47124D01*
X66692Y-47277D01*
X66892Y-47360D01*
X67108Y-47360D01*
X67308Y-47277D01*
X67461Y-47124D01*
X67544Y-46924D01*
X67544Y-46708D01*
X67544Y-46076D01*
X67491Y-45948D01*
X67491Y-45425D01*
X67454Y-45237D01*
X67347Y-45078D01*
X67341Y-45072D01*
X67341Y-44395D01*
X67552Y-44395D01*
X67645Y-44357D01*
X67717Y-44285D01*
X67756Y-44192D01*
X67756Y-44091D01*
X67756Y-43919D01*
X67925Y-43750D01*
X67989Y-43655D01*
X67989Y-43654D01*
X68011Y-43542D01*
X68011Y-42402D01*
X67989Y-42289D01*
X67925Y-42194D01*
X67649Y-41918D01*
X67554Y-41854D01*
X67441Y-41832D01*
X66343Y-41832D01*
X66311Y-41800D01*
X66310Y-41799D01*
X65051Y-40540D01*
X64956Y-40476D01*
X64843Y-40454D01*
X64586Y-40454D01*
X64586Y-36550D01*
X64685Y-36451D01*
X64768Y-36251D01*
X64768Y-36035D01*
X64768Y-35403D01*
X64685Y-35203D01*
X64586Y-35104D01*
X64586Y-33669D01*
X64825Y-33669D01*
X64918Y-33631D01*
X64987Y-33562D01*
X65013Y-33562D01*
X65081Y-33630D01*
X65174Y-33669D01*
X65275Y-33669D01*
X65691Y-33669D01*
X65784Y-33631D01*
X65853Y-33562D01*
X66023Y-33562D01*
X66211Y-33525D01*
X66370Y-33418D01*
X66659Y-33129D01*
X68607Y-33129D01*
X68607Y-34805D01*
X68492Y-34690D01*
X67964Y-34471D01*
X67393Y-34470D01*
X66865Y-34688D01*
X66461Y-35091D01*
X66242Y-35619D01*
X66241Y-36190D01*
X66459Y-36718D01*
X66862Y-37122D01*
X67347Y-37323D01*
X67347Y-37480D01*
X66865Y-37680D01*
X66461Y-38083D01*
X66242Y-38611D01*
X66241Y-39182D01*
X66459Y-39710D01*
X66862Y-40114D01*
X67390Y-40333D01*
X67961Y-40334D01*
X68489Y-40116D01*
X68607Y-39998D01*
X68607Y-48563D01*
M02*
