M48
;DRILL file {Pcbnew (2012-apr-16-27)-stable} date Wed 27 Feb 2013 08:41:30 PM CET
;FORMAT={-:-/ absolute / metric / decimal}
FMAT,2
METRIC,TZ
T1C0.300
T2C0.701
T3C0.813
T4C1.016
T5C1.501
T6C3.000
T7C4.399
%
G90
G05
M71
T1
X97.399Y-108.001
X101.201Y-108.001
X105.001Y-108.001
X108.199Y-85.199
X108.801Y-108.001
X108.999Y-84.399
X110.300Y-80.201
X110.300Y-82.100
X112.601Y-108.001
X114.300Y-87.399
X116.101Y-79.299
X116.101Y-80.500
X116.101Y-88.801
X116.401Y-108.001
X116.901Y-75.801
X118.301Y-85.301
X118.400Y-81.100
X119.301Y-85.001
X119.400Y-73.200
X119.400Y-74.300
X119.400Y-100.300
X120.200Y-108.001
X121.501Y-100.200
X123.800Y-100.300
X124.000Y-108.001
X124.201Y-90.899
X125.700Y-82.400
X125.999Y-100.200
X127.201Y-79.601
X127.800Y-108.001
X128.199Y-100.200
X128.699Y-82.400
X129.301Y-101.501
X130.401Y-79.601
X132.700Y-100.701
X132.900Y-101.699
X134.600Y-76.700
X135.900Y-86.401
X136.200Y-101.100
X136.200Y-102.199
X137.000Y-85.999
X137.099Y-76.101
X137.300Y-84.099
X137.500Y-74.800
X137.599Y-103.000
X137.800Y-85.199
X138.400Y-103.901
X138.801Y-92.400
X141.000Y-92.400
X141.201Y-88.100
X142.301Y-88.100
X142.400Y-102.199
X142.700Y-83.401
X144.201Y-83.599
X148.199Y-108.001
X152.001Y-108.001
X152.799Y-71.199
X153.101Y-69.901
X153.101Y-83.701
X155.199Y-82.499
X155.801Y-108.001
X157.500Y-77.000
X159.601Y-108.001
X162.700Y-73.401
X162.700Y-76.599
X162.700Y-79.799
X162.700Y-82.901
X163.401Y-108.001
X167.201Y-108.001
X171.000Y-108.001
T2
X154.800Y-67.300
T3
X144.600Y-68.450
X144.600Y-71.951
X144.600Y-76.159
X144.600Y-81.239
X159.101Y-68.450
X159.101Y-71.951
T4
X92.799Y-73.851
X92.799Y-76.391
X92.799Y-78.931
X92.799Y-81.471
X92.799Y-84.011
X92.799Y-86.550
X98.389Y-90.429
X98.389Y-92.969
X99.060Y-118.110
X100.929Y-90.429
X100.929Y-92.969
X101.600Y-118.110
X103.469Y-90.429
X103.469Y-92.969
X104.140Y-118.110
X106.009Y-90.429
X106.009Y-92.969
X106.680Y-118.110
X109.220Y-118.110
X111.760Y-118.110
X114.300Y-118.110
X115.969Y-69.101
X116.840Y-118.110
X118.509Y-69.101
X119.380Y-118.110
X121.049Y-69.101
X121.920Y-118.110
X123.589Y-69.101
X124.460Y-118.110
X126.129Y-69.101
X126.261Y-90.429
X126.261Y-92.969
X127.000Y-118.110
X128.669Y-69.101
X128.801Y-90.429
X128.801Y-92.969
X131.209Y-69.101
X131.341Y-90.429
X131.341Y-92.969
X133.749Y-69.101
X136.289Y-69.101
X138.829Y-69.101
X145.920Y-91.001
X145.920Y-98.999
X147.320Y-118.110
X148.460Y-91.001
X148.460Y-98.999
X149.860Y-118.110
X151.000Y-91.001
X151.000Y-98.999
X152.400Y-118.110
X153.540Y-91.001
X153.540Y-98.999
X154.940Y-118.110
X156.080Y-91.001
X156.080Y-98.999
X157.480Y-118.110
X160.020Y-118.110
X162.560Y-118.110
X163.129Y-91.001
X165.100Y-118.110
X165.669Y-91.001
X167.640Y-118.110
X170.180Y-118.110
X171.099Y-75.019
X171.099Y-77.559
X171.099Y-80.099
X171.099Y-82.639
X171.099Y-85.179
T5
X131.600Y-118.301
X131.801Y-123.701
X131.801Y-127.800
X132.799Y-114.600
X137.201Y-113.599
X141.600Y-114.699
X142.301Y-118.199
X142.400Y-123.701
X142.400Y-127.800
T6
X93.200Y-68.999
X93.200Y-91.201
X93.200Y-98.801
X93.200Y-126.799
X171.900Y-68.999
X171.900Y-91.201
X171.900Y-98.801
X171.900Y-126.799
T7
X137.160Y-118.295
X137.160Y-125.545
T0
M30
