G04 (created by PCBNEW-RS274X (2012-apr-16-27)-stable) date Wed 27 Feb 2013 09:22:31 PM CET*
G01*
G70*
G90*
%MOIN*%
G04 Gerber Fmt 3.4, Leading zero omitted, Abs format*
%FSLAX34Y34*%
G04 APERTURE LIST*
%ADD10C,0.006000*%
%ADD11C,0.015000*%
%ADD12C,0.000100*%
G04 APERTURE END LIST*
G54D10*
G54D11*
X36693Y-37165D02*
X36693Y-37638D01*
X68937Y-35906D02*
X68937Y-27165D01*
X67677Y-37638D02*
X67677Y-37165D01*
X35433Y-38819D02*
X35433Y-49921D01*
X35433Y-27165D02*
X35433Y-35984D01*
X67677Y-25906D02*
X36693Y-25906D01*
X68937Y-49921D02*
X68937Y-38898D01*
X36693Y-51181D02*
X67677Y-51181D01*
X68937Y-38898D02*
X68932Y-38789D01*
X68917Y-38680D01*
X68894Y-38572D01*
X68861Y-38468D01*
X68818Y-38366D01*
X68768Y-38269D01*
X68709Y-38176D01*
X68642Y-38089D01*
X68567Y-38008D01*
X68486Y-37933D01*
X68399Y-37866D01*
X68307Y-37807D01*
X68209Y-37757D01*
X68107Y-37714D01*
X68003Y-37681D01*
X67895Y-37658D01*
X67786Y-37643D01*
X67677Y-37638D01*
X67677Y-37166D02*
X67786Y-37161D01*
X67895Y-37146D01*
X68003Y-37123D01*
X68107Y-37090D01*
X68209Y-37047D01*
X68307Y-36997D01*
X68399Y-36938D01*
X68486Y-36871D01*
X68567Y-36796D01*
X68642Y-36715D01*
X68709Y-36628D01*
X68768Y-36535D01*
X68818Y-36438D01*
X68861Y-36336D01*
X68894Y-36232D01*
X68917Y-36124D01*
X68932Y-36015D01*
X68937Y-35906D01*
X68936Y-27165D02*
X68931Y-27056D01*
X68916Y-26947D01*
X68893Y-26840D01*
X68860Y-26735D01*
X68818Y-26633D01*
X68767Y-26536D01*
X68708Y-26443D01*
X68641Y-26356D01*
X68567Y-26275D01*
X68486Y-26201D01*
X68399Y-26134D01*
X68306Y-26075D01*
X68209Y-26024D01*
X68107Y-25982D01*
X68002Y-25949D01*
X67895Y-25926D01*
X67786Y-25911D01*
X67677Y-25906D01*
X36693Y-25905D02*
X36584Y-25910D01*
X36475Y-25925D01*
X36367Y-25948D01*
X36263Y-25981D01*
X36161Y-26024D01*
X36064Y-26074D01*
X35971Y-26133D01*
X35884Y-26200D01*
X35803Y-26275D01*
X35728Y-26356D01*
X35661Y-26443D01*
X35602Y-26536D01*
X35552Y-26633D01*
X35509Y-26735D01*
X35476Y-26839D01*
X35453Y-26947D01*
X35438Y-27056D01*
X35433Y-27165D01*
X35433Y-35905D02*
X35438Y-36014D01*
X35453Y-36123D01*
X35476Y-36231D01*
X35509Y-36335D01*
X35552Y-36437D01*
X35602Y-36534D01*
X35661Y-36627D01*
X35728Y-36714D01*
X35803Y-36795D01*
X35884Y-36870D01*
X35971Y-36937D01*
X36064Y-36996D01*
X36161Y-37046D01*
X36263Y-37089D01*
X36367Y-37122D01*
X36475Y-37145D01*
X36584Y-37160D01*
X36693Y-37165D01*
X36693Y-37638D02*
X36584Y-37643D01*
X36475Y-37658D01*
X36367Y-37681D01*
X36263Y-37714D01*
X36161Y-37757D01*
X36064Y-37807D01*
X35971Y-37866D01*
X35884Y-37933D01*
X35803Y-38008D01*
X35728Y-38089D01*
X35661Y-38176D01*
X35602Y-38269D01*
X35552Y-38366D01*
X35509Y-38468D01*
X35476Y-38572D01*
X35453Y-38680D01*
X35438Y-38789D01*
X35433Y-38898D01*
X35433Y-49921D02*
X35438Y-50030D01*
X35453Y-50139D01*
X35476Y-50247D01*
X35509Y-50351D01*
X35552Y-50453D01*
X35602Y-50550D01*
X35661Y-50643D01*
X35728Y-50730D01*
X35803Y-50811D01*
X35884Y-50886D01*
X35971Y-50953D01*
X36064Y-51012D01*
X36161Y-51062D01*
X36263Y-51105D01*
X36367Y-51138D01*
X36475Y-51161D01*
X36584Y-51176D01*
X36693Y-51181D01*
X67677Y-51181D02*
X67786Y-51176D01*
X67895Y-51161D01*
X68003Y-51138D01*
X68107Y-51105D01*
X68209Y-51062D01*
X68307Y-51012D01*
X68399Y-50953D01*
X68486Y-50886D01*
X68567Y-50811D01*
X68642Y-50730D01*
X68709Y-50643D01*
X68768Y-50550D01*
X68818Y-50453D01*
X68861Y-50351D01*
X68894Y-50247D01*
X68917Y-50139D01*
X68932Y-50030D01*
X68937Y-49921D01*
G54D12*
G36*
X39516Y-33264D02*
X39536Y-33253D01*
X39583Y-33224D01*
X39648Y-33181D01*
X39726Y-33129D01*
X39804Y-33077D01*
X39868Y-33034D01*
X39913Y-33005D01*
X39932Y-32994D01*
X39942Y-32998D01*
X39979Y-33016D01*
X40033Y-33044D01*
X40064Y-33060D01*
X40113Y-33081D01*
X40138Y-33086D01*
X40142Y-33079D01*
X40160Y-33041D01*
X40188Y-32977D01*
X40225Y-32891D01*
X40268Y-32791D01*
X40313Y-32684D01*
X40359Y-32574D01*
X40403Y-32469D01*
X40441Y-32375D01*
X40472Y-32298D01*
X40492Y-32245D01*
X40500Y-32222D01*
X40498Y-32217D01*
X40473Y-32193D01*
X40430Y-32161D01*
X40337Y-32085D01*
X40245Y-31970D01*
X40189Y-31840D01*
X40170Y-31695D01*
X40186Y-31561D01*
X40239Y-31432D01*
X40329Y-31316D01*
X40438Y-31229D01*
X40566Y-31175D01*
X40709Y-31157D01*
X40846Y-31173D01*
X40978Y-31225D01*
X41094Y-31313D01*
X41143Y-31370D01*
X41211Y-31487D01*
X41249Y-31613D01*
X41253Y-31645D01*
X41248Y-31783D01*
X41207Y-31916D01*
X41134Y-32035D01*
X41032Y-32132D01*
X41020Y-32141D01*
X40973Y-32176D01*
X40941Y-32200D01*
X40917Y-32220D01*
X41093Y-32644D01*
X41121Y-32711D01*
X41169Y-32827D01*
X41212Y-32927D01*
X41245Y-33006D01*
X41269Y-33059D01*
X41279Y-33081D01*
X41280Y-33082D01*
X41296Y-33085D01*
X41328Y-33073D01*
X41387Y-33044D01*
X41426Y-33024D01*
X41471Y-33002D01*
X41492Y-32994D01*
X41509Y-33004D01*
X41552Y-33032D01*
X41615Y-33074D01*
X41691Y-33125D01*
X41763Y-33174D01*
X41829Y-33218D01*
X41878Y-33249D01*
X41901Y-33262D01*
X41905Y-33262D01*
X41926Y-33250D01*
X41964Y-33218D01*
X42022Y-33164D01*
X42103Y-33083D01*
X42116Y-33071D01*
X42183Y-33002D01*
X42237Y-32945D01*
X42274Y-32904D01*
X42287Y-32886D01*
X42287Y-32886D01*
X42275Y-32863D01*
X42245Y-32815D01*
X42201Y-32747D01*
X42147Y-32669D01*
X42007Y-32465D01*
X42084Y-32272D01*
X42107Y-32213D01*
X42137Y-32142D01*
X42160Y-32091D01*
X42171Y-32069D01*
X42192Y-32061D01*
X42245Y-32049D01*
X42321Y-32033D01*
X42412Y-32016D01*
X42499Y-32000D01*
X42577Y-31985D01*
X42634Y-31974D01*
X42659Y-31969D01*
X42665Y-31965D01*
X42671Y-31953D01*
X42674Y-31926D01*
X42676Y-31879D01*
X42677Y-31804D01*
X42677Y-31695D01*
X42677Y-31683D01*
X42676Y-31580D01*
X42674Y-31497D01*
X42671Y-31443D01*
X42668Y-31422D01*
X42667Y-31422D01*
X42643Y-31416D01*
X42588Y-31404D01*
X42509Y-31389D01*
X42416Y-31371D01*
X42410Y-31370D01*
X42317Y-31352D01*
X42239Y-31336D01*
X42184Y-31323D01*
X42161Y-31316D01*
X42156Y-31309D01*
X42138Y-31273D01*
X42111Y-31215D01*
X42080Y-31145D01*
X42050Y-31072D01*
X42023Y-31006D01*
X42006Y-30957D01*
X42000Y-30935D01*
X42001Y-30934D01*
X42015Y-30912D01*
X42047Y-30864D01*
X42092Y-30797D01*
X42146Y-30717D01*
X42150Y-30711D01*
X42204Y-30633D01*
X42247Y-30566D01*
X42276Y-30519D01*
X42287Y-30497D01*
X42287Y-30496D01*
X42269Y-30472D01*
X42229Y-30428D01*
X42172Y-30368D01*
X42103Y-30298D01*
X42081Y-30277D01*
X42004Y-30202D01*
X41951Y-30153D01*
X41918Y-30127D01*
X41902Y-30121D01*
X41902Y-30122D01*
X41878Y-30136D01*
X41828Y-30168D01*
X41761Y-30214D01*
X41681Y-30268D01*
X41675Y-30272D01*
X41597Y-30326D01*
X41531Y-30370D01*
X41485Y-30401D01*
X41464Y-30413D01*
X41461Y-30413D01*
X41429Y-30404D01*
X41373Y-30384D01*
X41304Y-30357D01*
X41231Y-30328D01*
X41165Y-30300D01*
X41115Y-30278D01*
X41092Y-30264D01*
X41091Y-30263D01*
X41083Y-30235D01*
X41069Y-30176D01*
X41053Y-30095D01*
X41034Y-29999D01*
X41031Y-29983D01*
X41014Y-29889D01*
X40999Y-29812D01*
X40988Y-29758D01*
X40982Y-29736D01*
X40969Y-29733D01*
X40923Y-29730D01*
X40853Y-29728D01*
X40768Y-29727D01*
X40679Y-29728D01*
X40592Y-29730D01*
X40518Y-29732D01*
X40465Y-29736D01*
X40443Y-29740D01*
X40442Y-29742D01*
X40434Y-29771D01*
X40421Y-29830D01*
X40404Y-29911D01*
X40386Y-30008D01*
X40382Y-30025D01*
X40365Y-30118D01*
X40349Y-30195D01*
X40338Y-30248D01*
X40332Y-30269D01*
X40323Y-30273D01*
X40285Y-30290D01*
X40222Y-30316D01*
X40144Y-30347D01*
X39964Y-30420D01*
X39743Y-30269D01*
X39723Y-30255D01*
X39643Y-30201D01*
X39578Y-30158D01*
X39533Y-30128D01*
X39514Y-30118D01*
X39512Y-30118D01*
X39490Y-30138D01*
X39447Y-30179D01*
X39387Y-30237D01*
X39317Y-30306D01*
X39266Y-30358D01*
X39205Y-30420D01*
X39166Y-30461D01*
X39145Y-30488D01*
X39138Y-30504D01*
X39140Y-30515D01*
X39154Y-30538D01*
X39186Y-30586D01*
X39232Y-30653D01*
X39286Y-30731D01*
X39330Y-30797D01*
X39378Y-30871D01*
X39409Y-30924D01*
X39420Y-30950D01*
X39417Y-30960D01*
X39402Y-31004D01*
X39375Y-31069D01*
X39342Y-31147D01*
X39265Y-31322D01*
X39151Y-31344D01*
X39081Y-31357D01*
X38984Y-31376D01*
X38891Y-31394D01*
X38746Y-31422D01*
X38741Y-31955D01*
X38763Y-31965D01*
X38785Y-31971D01*
X38839Y-31983D01*
X38915Y-31998D01*
X39006Y-32015D01*
X39083Y-32029D01*
X39161Y-32044D01*
X39217Y-32055D01*
X39241Y-32060D01*
X39248Y-32069D01*
X39267Y-32106D01*
X39295Y-32166D01*
X39326Y-32238D01*
X39357Y-32313D01*
X39384Y-32382D01*
X39403Y-32434D01*
X39411Y-32461D01*
X39400Y-32482D01*
X39371Y-32528D01*
X39328Y-32593D01*
X39275Y-32670D01*
X39222Y-32747D01*
X39177Y-32813D01*
X39146Y-32861D01*
X39133Y-32883D01*
X39140Y-32897D01*
X39171Y-32935D01*
X39229Y-32995D01*
X39316Y-33081D01*
X39330Y-33095D01*
X39399Y-33161D01*
X39457Y-33215D01*
X39498Y-33251D01*
X39516Y-33264D01*
X39516Y-33264D01*
G37*
M02*
