G04 (created by PCBNEW-RS274X (2012-apr-16-27)-stable) date Wed 27 Feb 2013 09:22:31 PM CET*
G01*
G70*
G90*
%MOIN*%
G04 Gerber Fmt 3.4, Leading zero omitted, Abs format*
%FSLAX34Y34*%
G04 APERTURE LIST*
%ADD10C,0.006000*%
%ADD11C,0.006700*%
%ADD12C,0.039400*%
%ADD13C,0.004900*%
%ADD14C,0.006900*%
%ADD15C,0.015000*%
%ADD16C,0.009900*%
%ADD17C,0.005000*%
%ADD18C,0.012000*%
%ADD19C,0.008000*%
%ADD20C,0.002600*%
%ADD21C,0.004000*%
%ADD22C,0.002000*%
%ADD23C,0.010000*%
%ADD24C,0.000100*%
%ADD25C,0.007900*%
%ADD26C,0.003500*%
G04 APERTURE END LIST*
G54D10*
G54D11*
X40607Y-41411D02*
X40660Y-41411D01*
X40686Y-41424D01*
X40712Y-41450D01*
X40726Y-41503D01*
X40726Y-41595D01*
X40712Y-41647D01*
X40686Y-41674D01*
X40660Y-41687D01*
X40607Y-41687D01*
X40581Y-41674D01*
X40555Y-41647D01*
X40542Y-41595D01*
X40542Y-41503D01*
X40555Y-41450D01*
X40581Y-41424D01*
X40607Y-41411D01*
X40844Y-41503D02*
X40844Y-41779D01*
X40844Y-41516D02*
X40870Y-41503D01*
X40923Y-41503D01*
X40949Y-41516D01*
X40962Y-41529D01*
X40975Y-41555D01*
X40975Y-41634D01*
X40962Y-41660D01*
X40949Y-41674D01*
X40923Y-41687D01*
X40870Y-41687D01*
X40844Y-41674D01*
X41199Y-41674D02*
X41173Y-41687D01*
X41120Y-41687D01*
X41094Y-41674D01*
X41081Y-41647D01*
X41081Y-41542D01*
X41094Y-41516D01*
X41120Y-41503D01*
X41173Y-41503D01*
X41199Y-41516D01*
X41212Y-41542D01*
X41212Y-41568D01*
X41081Y-41595D01*
X41331Y-41503D02*
X41331Y-41687D01*
X41331Y-41529D02*
X41344Y-41516D01*
X41370Y-41503D01*
X41410Y-41503D01*
X41436Y-41516D01*
X41449Y-41542D01*
X41449Y-41687D01*
X41778Y-41674D02*
X41817Y-41687D01*
X41883Y-41687D01*
X41909Y-41674D01*
X41922Y-41660D01*
X41935Y-41634D01*
X41935Y-41608D01*
X41922Y-41582D01*
X41909Y-41568D01*
X41883Y-41555D01*
X41830Y-41542D01*
X41804Y-41529D01*
X41791Y-41516D01*
X41778Y-41490D01*
X41778Y-41463D01*
X41791Y-41437D01*
X41804Y-41424D01*
X41830Y-41411D01*
X41896Y-41411D01*
X41935Y-41424D01*
X42093Y-41687D02*
X42067Y-41674D01*
X42054Y-41660D01*
X42041Y-41634D01*
X42041Y-41555D01*
X42054Y-41529D01*
X42067Y-41516D01*
X42093Y-41503D01*
X42133Y-41503D01*
X42159Y-41516D01*
X42172Y-41529D01*
X42185Y-41555D01*
X42185Y-41634D01*
X42172Y-41660D01*
X42159Y-41674D01*
X42133Y-41687D01*
X42093Y-41687D01*
X42422Y-41503D02*
X42422Y-41687D01*
X42304Y-41503D02*
X42304Y-41647D01*
X42317Y-41674D01*
X42343Y-41687D01*
X42383Y-41687D01*
X42409Y-41674D01*
X42422Y-41660D01*
X42554Y-41687D02*
X42554Y-41503D01*
X42554Y-41555D02*
X42567Y-41529D01*
X42580Y-41516D01*
X42606Y-41503D01*
X42633Y-41503D01*
X42843Y-41674D02*
X42817Y-41687D01*
X42764Y-41687D01*
X42738Y-41674D01*
X42725Y-41660D01*
X42712Y-41634D01*
X42712Y-41555D01*
X42725Y-41529D01*
X42738Y-41516D01*
X42764Y-41503D01*
X42817Y-41503D01*
X42843Y-41516D01*
X43067Y-41674D02*
X43041Y-41687D01*
X42988Y-41687D01*
X42962Y-41674D01*
X42949Y-41647D01*
X42949Y-41542D01*
X42962Y-41516D01*
X42988Y-41503D01*
X43041Y-41503D01*
X43067Y-41516D01*
X43080Y-41542D01*
X43080Y-41568D01*
X42949Y-41595D01*
X40924Y-42140D02*
X40924Y-41864D01*
X40924Y-41995D02*
X41081Y-41995D01*
X41081Y-42140D02*
X41081Y-41864D01*
X41331Y-42140D02*
X41331Y-41995D01*
X41318Y-41969D01*
X41292Y-41956D01*
X41239Y-41956D01*
X41213Y-41969D01*
X41331Y-42127D02*
X41305Y-42140D01*
X41239Y-42140D01*
X41213Y-42127D01*
X41200Y-42100D01*
X41200Y-42074D01*
X41213Y-42048D01*
X41239Y-42035D01*
X41305Y-42035D01*
X41331Y-42021D01*
X41463Y-42140D02*
X41463Y-41956D01*
X41463Y-42008D02*
X41476Y-41982D01*
X41489Y-41969D01*
X41515Y-41956D01*
X41542Y-41956D01*
X41752Y-42140D02*
X41752Y-41864D01*
X41752Y-42127D02*
X41726Y-42140D01*
X41673Y-42140D01*
X41647Y-42127D01*
X41634Y-42113D01*
X41621Y-42087D01*
X41621Y-42008D01*
X41634Y-41982D01*
X41647Y-41969D01*
X41673Y-41956D01*
X41726Y-41956D01*
X41752Y-41969D01*
X41857Y-41956D02*
X41910Y-42140D01*
X41963Y-42008D01*
X42015Y-42140D01*
X42068Y-41956D01*
X42291Y-42140D02*
X42291Y-41995D01*
X42278Y-41969D01*
X42252Y-41956D01*
X42199Y-41956D01*
X42173Y-41969D01*
X42291Y-42127D02*
X42265Y-42140D01*
X42199Y-42140D01*
X42173Y-42127D01*
X42160Y-42100D01*
X42160Y-42074D01*
X42173Y-42048D01*
X42199Y-42035D01*
X42265Y-42035D01*
X42291Y-42021D01*
X42423Y-42140D02*
X42423Y-41956D01*
X42423Y-42008D02*
X42436Y-41982D01*
X42449Y-41969D01*
X42475Y-41956D01*
X42502Y-41956D01*
X42699Y-42127D02*
X42673Y-42140D01*
X42620Y-42140D01*
X42594Y-42127D01*
X42581Y-42100D01*
X42581Y-41995D01*
X42594Y-41969D01*
X42620Y-41956D01*
X42673Y-41956D01*
X42699Y-41969D01*
X42712Y-41995D01*
X42712Y-42021D01*
X42581Y-42048D01*
X39077Y-49490D02*
X38890Y-49490D01*
X38890Y-49096D01*
X39209Y-49284D02*
X39340Y-49284D01*
X39396Y-49490D02*
X39209Y-49490D01*
X39209Y-49096D01*
X39396Y-49096D01*
X39565Y-49490D02*
X39565Y-49096D01*
X39659Y-49096D01*
X39715Y-49115D01*
X39752Y-49153D01*
X39771Y-49190D01*
X39790Y-49265D01*
X39790Y-49322D01*
X39771Y-49397D01*
X39752Y-49434D01*
X39715Y-49472D01*
X39659Y-49490D01*
X39565Y-49490D01*
X40240Y-49472D02*
X40296Y-49490D01*
X40390Y-49490D01*
X40428Y-49472D01*
X40446Y-49453D01*
X40465Y-49415D01*
X40465Y-49378D01*
X40446Y-49340D01*
X40428Y-49322D01*
X40390Y-49303D01*
X40315Y-49284D01*
X40278Y-49265D01*
X40259Y-49247D01*
X40240Y-49209D01*
X40240Y-49172D01*
X40259Y-49134D01*
X40278Y-49115D01*
X40315Y-49096D01*
X40409Y-49096D01*
X40465Y-49115D01*
X40578Y-49228D02*
X40728Y-49228D01*
X40634Y-49096D02*
X40634Y-49434D01*
X40653Y-49472D01*
X40690Y-49490D01*
X40728Y-49490D01*
X40859Y-49490D02*
X40859Y-49228D01*
X40859Y-49303D02*
X40878Y-49265D01*
X40896Y-49247D01*
X40934Y-49228D01*
X40971Y-49228D01*
X41103Y-49490D02*
X41103Y-49228D01*
X41103Y-49096D02*
X41084Y-49115D01*
X41103Y-49134D01*
X41122Y-49115D01*
X41103Y-49096D01*
X41103Y-49134D01*
X41291Y-49228D02*
X41291Y-49622D01*
X41291Y-49247D02*
X41328Y-49228D01*
X41403Y-49228D01*
X41441Y-49247D01*
X41460Y-49265D01*
X41478Y-49303D01*
X41478Y-49415D01*
X41460Y-49453D01*
X41441Y-49472D01*
X41403Y-49490D01*
X41328Y-49490D01*
X41291Y-49472D01*
X42116Y-49472D02*
X42078Y-49490D01*
X42003Y-49490D01*
X41966Y-49472D01*
X41947Y-49453D01*
X41928Y-49415D01*
X41928Y-49303D01*
X41947Y-49265D01*
X41966Y-49247D01*
X42003Y-49228D01*
X42078Y-49228D01*
X42116Y-49247D01*
X42341Y-49490D02*
X42304Y-49472D01*
X42285Y-49453D01*
X42266Y-49415D01*
X42266Y-49303D01*
X42285Y-49265D01*
X42304Y-49247D01*
X42341Y-49228D01*
X42397Y-49228D01*
X42435Y-49247D01*
X42454Y-49265D01*
X42472Y-49303D01*
X42472Y-49415D01*
X42454Y-49453D01*
X42435Y-49472D01*
X42397Y-49490D01*
X42341Y-49490D01*
X42641Y-49228D02*
X42641Y-49490D01*
X42641Y-49265D02*
X42660Y-49247D01*
X42697Y-49228D01*
X42753Y-49228D01*
X42791Y-49247D01*
X42810Y-49284D01*
X42810Y-49490D01*
X42941Y-49228D02*
X43091Y-49228D01*
X42997Y-49096D02*
X42997Y-49434D01*
X43016Y-49472D01*
X43053Y-49490D01*
X43091Y-49490D01*
X43222Y-49490D02*
X43222Y-49228D01*
X43222Y-49303D02*
X43241Y-49265D01*
X43259Y-49247D01*
X43297Y-49228D01*
X43334Y-49228D01*
X43522Y-49490D02*
X43485Y-49472D01*
X43466Y-49453D01*
X43447Y-49415D01*
X43447Y-49303D01*
X43466Y-49265D01*
X43485Y-49247D01*
X43522Y-49228D01*
X43578Y-49228D01*
X43616Y-49247D01*
X43635Y-49265D01*
X43653Y-49303D01*
X43653Y-49415D01*
X43635Y-49453D01*
X43616Y-49472D01*
X43578Y-49490D01*
X43522Y-49490D01*
X43878Y-49490D02*
X43841Y-49472D01*
X43822Y-49434D01*
X43822Y-49096D01*
X44084Y-49490D02*
X44047Y-49472D01*
X44028Y-49434D01*
X44028Y-49096D01*
X44384Y-49472D02*
X44346Y-49490D01*
X44271Y-49490D01*
X44234Y-49472D01*
X44215Y-49434D01*
X44215Y-49284D01*
X44234Y-49247D01*
X44271Y-49228D01*
X44346Y-49228D01*
X44384Y-49247D01*
X44403Y-49284D01*
X44403Y-49322D01*
X44215Y-49359D01*
X44572Y-49490D02*
X44572Y-49228D01*
X44572Y-49303D02*
X44591Y-49265D01*
X44609Y-49247D01*
X44647Y-49228D01*
X44684Y-49228D01*
X45116Y-49340D02*
X45416Y-49340D01*
X45885Y-49134D02*
X45904Y-49115D01*
X45941Y-49096D01*
X46035Y-49096D01*
X46073Y-49115D01*
X46091Y-49134D01*
X46110Y-49172D01*
X46110Y-49209D01*
X46091Y-49265D01*
X45866Y-49490D01*
X46110Y-49490D01*
X46354Y-49096D02*
X46391Y-49096D01*
X46429Y-49115D01*
X46448Y-49134D01*
X46466Y-49172D01*
X46485Y-49247D01*
X46485Y-49340D01*
X46466Y-49415D01*
X46448Y-49453D01*
X46429Y-49472D01*
X46391Y-49490D01*
X46354Y-49490D01*
X46316Y-49472D01*
X46298Y-49453D01*
X46279Y-49415D01*
X46260Y-49340D01*
X46260Y-49247D01*
X46279Y-49172D01*
X46298Y-49134D01*
X46316Y-49115D01*
X46354Y-49096D01*
X46860Y-49490D02*
X46635Y-49490D01*
X46748Y-49490D02*
X46748Y-49096D01*
X46710Y-49153D01*
X46673Y-49190D01*
X46635Y-49209D01*
X46991Y-49096D02*
X47235Y-49096D01*
X47104Y-49247D01*
X47160Y-49247D01*
X47198Y-49265D01*
X47216Y-49284D01*
X47235Y-49322D01*
X47235Y-49415D01*
X47216Y-49453D01*
X47198Y-49472D01*
X47160Y-49490D01*
X47048Y-49490D01*
X47010Y-49472D01*
X46991Y-49453D01*
X47404Y-49340D02*
X47704Y-49340D01*
X47967Y-49096D02*
X48004Y-49096D01*
X48042Y-49115D01*
X48061Y-49134D01*
X48079Y-49172D01*
X48098Y-49247D01*
X48098Y-49340D01*
X48079Y-49415D01*
X48061Y-49453D01*
X48042Y-49472D01*
X48004Y-49490D01*
X47967Y-49490D01*
X47929Y-49472D01*
X47911Y-49453D01*
X47892Y-49415D01*
X47873Y-49340D01*
X47873Y-49247D01*
X47892Y-49172D01*
X47911Y-49134D01*
X47929Y-49115D01*
X47967Y-49096D01*
X48248Y-49134D02*
X48267Y-49115D01*
X48304Y-49096D01*
X48398Y-49096D01*
X48436Y-49115D01*
X48454Y-49134D01*
X48473Y-49172D01*
X48473Y-49209D01*
X48454Y-49265D01*
X48229Y-49490D01*
X48473Y-49490D01*
X48642Y-49340D02*
X48942Y-49340D01*
X49111Y-49134D02*
X49130Y-49115D01*
X49167Y-49096D01*
X49261Y-49096D01*
X49299Y-49115D01*
X49317Y-49134D01*
X49336Y-49172D01*
X49336Y-49209D01*
X49317Y-49265D01*
X49092Y-49490D01*
X49336Y-49490D01*
X49467Y-49096D02*
X49730Y-49096D01*
X49561Y-49490D01*
X38908Y-49902D02*
X38777Y-49902D01*
X38777Y-50108D02*
X38777Y-49714D01*
X38964Y-49714D01*
X39171Y-50108D02*
X39134Y-50090D01*
X39115Y-50052D01*
X39115Y-49714D01*
X39471Y-50090D02*
X39433Y-50108D01*
X39358Y-50108D01*
X39321Y-50090D01*
X39302Y-50052D01*
X39302Y-49902D01*
X39321Y-49865D01*
X39358Y-49846D01*
X39433Y-49846D01*
X39471Y-49865D01*
X39490Y-49902D01*
X39490Y-49940D01*
X39302Y-49977D01*
X39659Y-50108D02*
X39659Y-49846D01*
X39659Y-49883D02*
X39678Y-49865D01*
X39715Y-49846D01*
X39771Y-49846D01*
X39809Y-49865D01*
X39828Y-49902D01*
X39828Y-50108D01*
X39828Y-49902D02*
X39846Y-49865D01*
X39884Y-49846D01*
X39940Y-49846D01*
X39978Y-49865D01*
X39997Y-49902D01*
X39997Y-50108D01*
X40184Y-50108D02*
X40184Y-49846D01*
X40184Y-49883D02*
X40203Y-49865D01*
X40240Y-49846D01*
X40296Y-49846D01*
X40334Y-49865D01*
X40353Y-49902D01*
X40353Y-50108D01*
X40353Y-49902D02*
X40371Y-49865D01*
X40409Y-49846D01*
X40465Y-49846D01*
X40503Y-49865D01*
X40522Y-49902D01*
X40522Y-50108D01*
X40709Y-50108D02*
X40709Y-49846D01*
X40709Y-49714D02*
X40690Y-49733D01*
X40709Y-49752D01*
X40728Y-49733D01*
X40709Y-49714D01*
X40709Y-49752D01*
X40897Y-49846D02*
X40897Y-50108D01*
X40897Y-49883D02*
X40916Y-49865D01*
X40953Y-49846D01*
X41009Y-49846D01*
X41047Y-49865D01*
X41066Y-49902D01*
X41066Y-50108D01*
X41422Y-49846D02*
X41422Y-50165D01*
X41403Y-50202D01*
X41384Y-50221D01*
X41347Y-50240D01*
X41290Y-50240D01*
X41253Y-50221D01*
X41422Y-50090D02*
X41384Y-50108D01*
X41309Y-50108D01*
X41272Y-50090D01*
X41253Y-50071D01*
X41234Y-50033D01*
X41234Y-49921D01*
X41253Y-49883D01*
X41272Y-49865D01*
X41309Y-49846D01*
X41384Y-49846D01*
X41422Y-49865D01*
X42040Y-49902D02*
X41909Y-49902D01*
X41909Y-50108D02*
X41909Y-49714D01*
X42096Y-49714D01*
X42247Y-50108D02*
X42247Y-49846D01*
X42247Y-49921D02*
X42266Y-49883D01*
X42284Y-49865D01*
X42322Y-49846D01*
X42359Y-49846D01*
X42660Y-50108D02*
X42660Y-49902D01*
X42641Y-49865D01*
X42603Y-49846D01*
X42528Y-49846D01*
X42491Y-49865D01*
X42660Y-50090D02*
X42622Y-50108D01*
X42528Y-50108D01*
X42491Y-50090D01*
X42472Y-50052D01*
X42472Y-50015D01*
X42491Y-49977D01*
X42528Y-49958D01*
X42622Y-49958D01*
X42660Y-49940D01*
X42847Y-49846D02*
X42847Y-50108D01*
X42847Y-49883D02*
X42866Y-49865D01*
X42903Y-49846D01*
X42959Y-49846D01*
X42997Y-49865D01*
X43016Y-49902D01*
X43016Y-50108D01*
X43372Y-50108D02*
X43372Y-49714D01*
X43372Y-50090D02*
X43334Y-50108D01*
X43259Y-50108D01*
X43222Y-50090D01*
X43203Y-50071D01*
X43184Y-50033D01*
X43184Y-49921D01*
X43203Y-49883D01*
X43222Y-49865D01*
X43259Y-49846D01*
X43334Y-49846D01*
X43372Y-49865D01*
X43540Y-50090D02*
X43578Y-50108D01*
X43653Y-50108D01*
X43690Y-50090D01*
X43709Y-50052D01*
X43709Y-50033D01*
X43690Y-49996D01*
X43653Y-49977D01*
X43596Y-49977D01*
X43559Y-49958D01*
X43540Y-49921D01*
X43540Y-49902D01*
X43559Y-49865D01*
X43596Y-49846D01*
X43653Y-49846D01*
X43690Y-49865D01*
X44028Y-50090D02*
X43990Y-50108D01*
X43915Y-50108D01*
X43878Y-50090D01*
X43859Y-50052D01*
X43859Y-49902D01*
X43878Y-49865D01*
X43915Y-49846D01*
X43990Y-49846D01*
X44028Y-49865D01*
X44047Y-49902D01*
X44047Y-49940D01*
X43859Y-49977D01*
X44216Y-49846D02*
X44216Y-50108D01*
X44216Y-49883D02*
X44235Y-49865D01*
X44272Y-49846D01*
X44328Y-49846D01*
X44366Y-49865D01*
X44385Y-49902D01*
X44385Y-50108D01*
X44872Y-49958D02*
X45172Y-49958D01*
X45660Y-50108D02*
X45660Y-49714D01*
X45829Y-50108D02*
X45829Y-49902D01*
X45810Y-49865D01*
X45772Y-49846D01*
X45716Y-49846D01*
X45679Y-49865D01*
X45660Y-49883D01*
X45960Y-49846D02*
X46110Y-49846D01*
X46016Y-49714D02*
X46016Y-50052D01*
X46035Y-50090D01*
X46072Y-50108D01*
X46110Y-50108D01*
X46185Y-49846D02*
X46335Y-49846D01*
X46241Y-49714D02*
X46241Y-50052D01*
X46260Y-50090D01*
X46297Y-50108D01*
X46335Y-50108D01*
X46466Y-49846D02*
X46466Y-50240D01*
X46466Y-49865D02*
X46503Y-49846D01*
X46578Y-49846D01*
X46616Y-49865D01*
X46635Y-49883D01*
X46653Y-49921D01*
X46653Y-50033D01*
X46635Y-50071D01*
X46616Y-50090D01*
X46578Y-50108D01*
X46503Y-50108D01*
X46466Y-50090D01*
X46822Y-50071D02*
X46841Y-50090D01*
X46822Y-50108D01*
X46803Y-50090D01*
X46822Y-50071D01*
X46822Y-50108D01*
X46822Y-49865D02*
X46841Y-49883D01*
X46822Y-49902D01*
X46803Y-49883D01*
X46822Y-49865D01*
X46822Y-49902D01*
X47291Y-49696D02*
X46954Y-50202D01*
X47704Y-49696D02*
X47367Y-50202D01*
X48005Y-50108D02*
X48005Y-49714D01*
X48005Y-50090D02*
X47967Y-50108D01*
X47892Y-50108D01*
X47855Y-50090D01*
X47836Y-50071D01*
X47817Y-50033D01*
X47817Y-49921D01*
X47836Y-49883D01*
X47855Y-49865D01*
X47892Y-49846D01*
X47967Y-49846D01*
X48005Y-49865D01*
X48192Y-50108D02*
X48192Y-49846D01*
X48192Y-49921D02*
X48211Y-49883D01*
X48229Y-49865D01*
X48267Y-49846D01*
X48304Y-49846D01*
X48586Y-50090D02*
X48548Y-50108D01*
X48473Y-50108D01*
X48436Y-50090D01*
X48417Y-50052D01*
X48417Y-49902D01*
X48436Y-49865D01*
X48473Y-49846D01*
X48548Y-49846D01*
X48586Y-49865D01*
X48605Y-49902D01*
X48605Y-49940D01*
X48417Y-49977D01*
X48774Y-49846D02*
X48774Y-50108D01*
X48774Y-49883D02*
X48793Y-49865D01*
X48830Y-49846D01*
X48886Y-49846D01*
X48924Y-49865D01*
X48943Y-49902D01*
X48943Y-50108D01*
X49130Y-50071D02*
X49149Y-50090D01*
X49130Y-50108D01*
X49111Y-50090D01*
X49130Y-50071D01*
X49130Y-50108D01*
X49487Y-50108D02*
X49487Y-49714D01*
X49487Y-50090D02*
X49449Y-50108D01*
X49374Y-50108D01*
X49337Y-50090D01*
X49318Y-50071D01*
X49299Y-50033D01*
X49299Y-49921D01*
X49318Y-49883D01*
X49337Y-49865D01*
X49374Y-49846D01*
X49449Y-49846D01*
X49487Y-49865D01*
X49674Y-50108D02*
X49674Y-49714D01*
X49711Y-49958D02*
X49824Y-50108D01*
X49824Y-49846D02*
X49674Y-49996D01*
X38674Y-50726D02*
X38674Y-50332D01*
X38843Y-50726D02*
X38843Y-50520D01*
X38824Y-50483D01*
X38786Y-50464D01*
X38730Y-50464D01*
X38693Y-50483D01*
X38674Y-50501D01*
X38974Y-50464D02*
X39124Y-50464D01*
X39030Y-50332D02*
X39030Y-50670D01*
X39049Y-50708D01*
X39086Y-50726D01*
X39124Y-50726D01*
X39199Y-50464D02*
X39349Y-50464D01*
X39255Y-50332D02*
X39255Y-50670D01*
X39274Y-50708D01*
X39311Y-50726D01*
X39349Y-50726D01*
X39480Y-50464D02*
X39480Y-50858D01*
X39480Y-50483D02*
X39517Y-50464D01*
X39592Y-50464D01*
X39630Y-50483D01*
X39649Y-50501D01*
X39667Y-50539D01*
X39667Y-50651D01*
X39649Y-50689D01*
X39630Y-50708D01*
X39592Y-50726D01*
X39517Y-50726D01*
X39480Y-50708D01*
X39817Y-50708D02*
X39855Y-50726D01*
X39930Y-50726D01*
X39967Y-50708D01*
X39986Y-50670D01*
X39986Y-50651D01*
X39967Y-50614D01*
X39930Y-50595D01*
X39873Y-50595D01*
X39836Y-50576D01*
X39817Y-50539D01*
X39817Y-50520D01*
X39836Y-50483D01*
X39873Y-50464D01*
X39930Y-50464D01*
X39967Y-50483D01*
X40155Y-50689D02*
X40174Y-50708D01*
X40155Y-50726D01*
X40136Y-50708D01*
X40155Y-50689D01*
X40155Y-50726D01*
X40155Y-50483D02*
X40174Y-50501D01*
X40155Y-50520D01*
X40136Y-50501D01*
X40155Y-50483D01*
X40155Y-50520D01*
X40624Y-50314D02*
X40287Y-50820D01*
X41037Y-50314D02*
X40700Y-50820D01*
X41338Y-50464D02*
X41338Y-50783D01*
X41319Y-50820D01*
X41300Y-50839D01*
X41263Y-50858D01*
X41206Y-50858D01*
X41169Y-50839D01*
X41338Y-50708D02*
X41300Y-50726D01*
X41225Y-50726D01*
X41188Y-50708D01*
X41169Y-50689D01*
X41150Y-50651D01*
X41150Y-50539D01*
X41169Y-50501D01*
X41188Y-50483D01*
X41225Y-50464D01*
X41300Y-50464D01*
X41338Y-50483D01*
X41525Y-50726D02*
X41525Y-50464D01*
X41525Y-50332D02*
X41506Y-50351D01*
X41525Y-50370D01*
X41544Y-50351D01*
X41525Y-50332D01*
X41525Y-50370D01*
X41657Y-50464D02*
X41807Y-50464D01*
X41713Y-50332D02*
X41713Y-50670D01*
X41732Y-50708D01*
X41769Y-50726D01*
X41807Y-50726D01*
X41938Y-50726D02*
X41938Y-50332D01*
X42107Y-50726D02*
X42107Y-50520D01*
X42088Y-50483D01*
X42050Y-50464D01*
X41994Y-50464D01*
X41957Y-50483D01*
X41938Y-50501D01*
X42463Y-50464D02*
X42463Y-50726D01*
X42294Y-50464D02*
X42294Y-50670D01*
X42313Y-50708D01*
X42350Y-50726D01*
X42406Y-50726D01*
X42444Y-50708D01*
X42463Y-50689D01*
X42650Y-50726D02*
X42650Y-50332D01*
X42650Y-50483D02*
X42687Y-50464D01*
X42762Y-50464D01*
X42800Y-50483D01*
X42819Y-50501D01*
X42837Y-50539D01*
X42837Y-50651D01*
X42819Y-50689D01*
X42800Y-50708D01*
X42762Y-50726D01*
X42687Y-50726D01*
X42650Y-50708D01*
X43006Y-50689D02*
X43025Y-50708D01*
X43006Y-50726D01*
X42987Y-50708D01*
X43006Y-50689D01*
X43006Y-50726D01*
X43363Y-50708D02*
X43325Y-50726D01*
X43250Y-50726D01*
X43213Y-50708D01*
X43194Y-50689D01*
X43175Y-50651D01*
X43175Y-50539D01*
X43194Y-50501D01*
X43213Y-50483D01*
X43250Y-50464D01*
X43325Y-50464D01*
X43363Y-50483D01*
X43588Y-50726D02*
X43551Y-50708D01*
X43532Y-50689D01*
X43513Y-50651D01*
X43513Y-50539D01*
X43532Y-50501D01*
X43551Y-50483D01*
X43588Y-50464D01*
X43644Y-50464D01*
X43682Y-50483D01*
X43701Y-50501D01*
X43719Y-50539D01*
X43719Y-50651D01*
X43701Y-50689D01*
X43682Y-50708D01*
X43644Y-50726D01*
X43588Y-50726D01*
X43888Y-50726D02*
X43888Y-50464D01*
X43888Y-50501D02*
X43907Y-50483D01*
X43944Y-50464D01*
X44000Y-50464D01*
X44038Y-50483D01*
X44057Y-50520D01*
X44057Y-50726D01*
X44057Y-50520D02*
X44075Y-50483D01*
X44113Y-50464D01*
X44169Y-50464D01*
X44207Y-50483D01*
X44226Y-50520D01*
X44226Y-50726D01*
X44694Y-50314D02*
X44357Y-50820D01*
X44995Y-50726D02*
X44995Y-50332D01*
X44995Y-50708D02*
X44957Y-50726D01*
X44882Y-50726D01*
X44845Y-50708D01*
X44826Y-50689D01*
X44807Y-50651D01*
X44807Y-50539D01*
X44826Y-50501D01*
X44845Y-50483D01*
X44882Y-50464D01*
X44957Y-50464D01*
X44995Y-50483D01*
X45182Y-50726D02*
X45182Y-50464D01*
X45182Y-50539D02*
X45201Y-50501D01*
X45219Y-50483D01*
X45257Y-50464D01*
X45294Y-50464D01*
X45576Y-50708D02*
X45538Y-50726D01*
X45463Y-50726D01*
X45426Y-50708D01*
X45407Y-50670D01*
X45407Y-50520D01*
X45426Y-50483D01*
X45463Y-50464D01*
X45538Y-50464D01*
X45576Y-50483D01*
X45595Y-50520D01*
X45595Y-50558D01*
X45407Y-50595D01*
X45764Y-50464D02*
X45764Y-50726D01*
X45764Y-50501D02*
X45783Y-50483D01*
X45820Y-50464D01*
X45876Y-50464D01*
X45914Y-50483D01*
X45933Y-50520D01*
X45933Y-50726D01*
X46120Y-50576D02*
X46420Y-50576D01*
X46777Y-50726D02*
X46777Y-50332D01*
X46777Y-50708D02*
X46739Y-50726D01*
X46664Y-50726D01*
X46627Y-50708D01*
X46608Y-50689D01*
X46589Y-50651D01*
X46589Y-50539D01*
X46608Y-50501D01*
X46627Y-50483D01*
X46664Y-50464D01*
X46739Y-50464D01*
X46777Y-50483D01*
X46964Y-50726D02*
X46964Y-50332D01*
X47001Y-50576D02*
X47114Y-50726D01*
X47114Y-50464D02*
X46964Y-50614D01*
X47564Y-50314D02*
X47227Y-50820D01*
X47883Y-50726D02*
X47696Y-50726D01*
X47696Y-50332D01*
X48015Y-50520D02*
X48146Y-50520D01*
X48202Y-50726D02*
X48015Y-50726D01*
X48015Y-50332D01*
X48202Y-50332D01*
X48371Y-50726D02*
X48371Y-50332D01*
X48465Y-50332D01*
X48521Y-50351D01*
X48558Y-50389D01*
X48577Y-50426D01*
X48596Y-50501D01*
X48596Y-50558D01*
X48577Y-50633D01*
X48558Y-50670D01*
X48521Y-50708D01*
X48465Y-50726D01*
X48371Y-50726D01*
X48746Y-50708D02*
X48784Y-50726D01*
X48859Y-50726D01*
X48896Y-50708D01*
X48915Y-50670D01*
X48915Y-50651D01*
X48896Y-50614D01*
X48859Y-50595D01*
X48802Y-50595D01*
X48765Y-50576D01*
X48746Y-50539D01*
X48746Y-50520D01*
X48765Y-50483D01*
X48802Y-50464D01*
X48859Y-50464D01*
X48896Y-50483D01*
X49028Y-50464D02*
X49178Y-50464D01*
X49084Y-50332D02*
X49084Y-50670D01*
X49103Y-50708D01*
X49140Y-50726D01*
X49178Y-50726D01*
X49309Y-50726D02*
X49309Y-50464D01*
X49309Y-50539D02*
X49328Y-50501D01*
X49346Y-50483D01*
X49384Y-50464D01*
X49421Y-50464D01*
X49553Y-50726D02*
X49553Y-50464D01*
X49553Y-50332D02*
X49534Y-50351D01*
X49553Y-50370D01*
X49572Y-50351D01*
X49553Y-50332D01*
X49553Y-50370D01*
X49741Y-50464D02*
X49741Y-50858D01*
X49741Y-50483D02*
X49778Y-50464D01*
X49853Y-50464D01*
X49891Y-50483D01*
X49910Y-50501D01*
X49928Y-50539D01*
X49928Y-50651D01*
X49910Y-50689D01*
X49891Y-50708D01*
X49853Y-50726D01*
X49778Y-50726D01*
X49741Y-50708D01*
G54D12*
X67402Y-37402D02*
X36969Y-37402D01*
G54D13*
X54496Y-28435D02*
X54477Y-28425D01*
X54449Y-28425D01*
X54421Y-28435D01*
X54402Y-28453D01*
X54393Y-28472D01*
X54384Y-28510D01*
X54384Y-28538D01*
X54393Y-28575D01*
X54402Y-28594D01*
X54421Y-28613D01*
X54449Y-28622D01*
X54468Y-28622D01*
X54496Y-28613D01*
X54505Y-28603D01*
X54505Y-28538D01*
X54468Y-28538D01*
X54590Y-28622D02*
X54590Y-28425D01*
X54702Y-28622D01*
X54702Y-28425D01*
X54796Y-28622D02*
X54796Y-28425D01*
X54843Y-28425D01*
X54871Y-28435D01*
X54890Y-28453D01*
X54899Y-28472D01*
X54908Y-28510D01*
X54908Y-28538D01*
X54899Y-28575D01*
X54890Y-28594D01*
X54871Y-28613D01*
X54843Y-28622D01*
X54796Y-28622D01*
X53426Y-28425D02*
X53548Y-28425D01*
X53482Y-28500D01*
X53511Y-28500D01*
X53529Y-28510D01*
X53539Y-28519D01*
X53548Y-28538D01*
X53548Y-28585D01*
X53539Y-28603D01*
X53529Y-28613D01*
X53511Y-28622D01*
X53454Y-28622D01*
X53436Y-28613D01*
X53426Y-28603D01*
X53614Y-28491D02*
X53661Y-28622D01*
X53708Y-28491D01*
X53764Y-28425D02*
X53886Y-28425D01*
X53820Y-28500D01*
X53849Y-28500D01*
X53867Y-28510D01*
X53877Y-28519D01*
X53886Y-28538D01*
X53886Y-28585D01*
X53877Y-28603D01*
X53867Y-28613D01*
X53849Y-28622D01*
X53792Y-28622D01*
X53774Y-28613D01*
X53764Y-28603D01*
G54D11*
X52152Y-28668D02*
X52362Y-28668D01*
X52257Y-28773D02*
X52257Y-28562D01*
X52638Y-28773D02*
X52481Y-28773D01*
X52559Y-28773D02*
X52559Y-28497D01*
X52533Y-28536D01*
X52507Y-28562D01*
X52481Y-28576D01*
X52744Y-28523D02*
X52757Y-28510D01*
X52783Y-28497D01*
X52849Y-28497D01*
X52875Y-28510D01*
X52888Y-28523D01*
X52901Y-28549D01*
X52901Y-28576D01*
X52888Y-28615D01*
X52730Y-28773D01*
X52901Y-28773D01*
X52980Y-28497D02*
X53072Y-28773D01*
X53164Y-28497D01*
X51313Y-28813D02*
X51313Y-28537D01*
X51418Y-28537D01*
X51444Y-28550D01*
X51457Y-28563D01*
X51470Y-28589D01*
X51470Y-28629D01*
X51457Y-28655D01*
X51444Y-28668D01*
X51418Y-28681D01*
X51313Y-28681D01*
X51746Y-28786D02*
X51733Y-28800D01*
X51694Y-28813D01*
X51668Y-28813D01*
X51628Y-28800D01*
X51602Y-28773D01*
X51589Y-28747D01*
X51576Y-28694D01*
X51576Y-28655D01*
X51589Y-28602D01*
X51602Y-28576D01*
X51628Y-28550D01*
X51668Y-28537D01*
X51694Y-28537D01*
X51733Y-28550D01*
X51746Y-28563D01*
X51917Y-28537D02*
X51944Y-28537D01*
X51970Y-28550D01*
X51983Y-28563D01*
X51996Y-28589D01*
X52009Y-28642D01*
X52009Y-28708D01*
X51996Y-28760D01*
X51983Y-28786D01*
X51970Y-28800D01*
X51944Y-28813D01*
X51917Y-28813D01*
X51891Y-28800D01*
X51878Y-28786D01*
X51865Y-28760D01*
X51852Y-28708D01*
X51852Y-28642D01*
X51865Y-28589D01*
X51878Y-28563D01*
X51891Y-28550D01*
X51917Y-28537D01*
X50289Y-28813D02*
X50289Y-28537D01*
X50394Y-28537D01*
X50420Y-28550D01*
X50433Y-28563D01*
X50446Y-28589D01*
X50446Y-28629D01*
X50433Y-28655D01*
X50420Y-28668D01*
X50394Y-28681D01*
X50289Y-28681D01*
X50722Y-28786D02*
X50709Y-28800D01*
X50670Y-28813D01*
X50644Y-28813D01*
X50604Y-28800D01*
X50578Y-28773D01*
X50565Y-28747D01*
X50552Y-28694D01*
X50552Y-28655D01*
X50565Y-28602D01*
X50578Y-28576D01*
X50604Y-28550D01*
X50644Y-28537D01*
X50670Y-28537D01*
X50709Y-28550D01*
X50722Y-28563D01*
X50985Y-28813D02*
X50828Y-28813D01*
X50906Y-28813D02*
X50906Y-28537D01*
X50880Y-28576D01*
X50854Y-28602D01*
X50828Y-28616D01*
X49265Y-28813D02*
X49265Y-28537D01*
X49370Y-28537D01*
X49396Y-28550D01*
X49409Y-28563D01*
X49422Y-28589D01*
X49422Y-28629D01*
X49409Y-28655D01*
X49396Y-28668D01*
X49370Y-28681D01*
X49265Y-28681D01*
X49698Y-28786D02*
X49685Y-28800D01*
X49646Y-28813D01*
X49620Y-28813D01*
X49580Y-28800D01*
X49554Y-28773D01*
X49541Y-28747D01*
X49528Y-28694D01*
X49528Y-28655D01*
X49541Y-28602D01*
X49554Y-28576D01*
X49580Y-28550D01*
X49620Y-28537D01*
X49646Y-28537D01*
X49685Y-28550D01*
X49698Y-28563D01*
X49804Y-28563D02*
X49817Y-28550D01*
X49843Y-28537D01*
X49909Y-28537D01*
X49935Y-28550D01*
X49948Y-28563D01*
X49961Y-28589D01*
X49961Y-28616D01*
X49948Y-28655D01*
X49790Y-28813D01*
X49961Y-28813D01*
X48320Y-28813D02*
X48320Y-28537D01*
X48425Y-28537D01*
X48451Y-28550D01*
X48464Y-28563D01*
X48477Y-28589D01*
X48477Y-28629D01*
X48464Y-28655D01*
X48451Y-28668D01*
X48425Y-28681D01*
X48320Y-28681D01*
X48753Y-28786D02*
X48740Y-28800D01*
X48701Y-28813D01*
X48675Y-28813D01*
X48635Y-28800D01*
X48609Y-28773D01*
X48596Y-28747D01*
X48583Y-28694D01*
X48583Y-28655D01*
X48596Y-28602D01*
X48609Y-28576D01*
X48635Y-28550D01*
X48675Y-28537D01*
X48701Y-28537D01*
X48740Y-28550D01*
X48753Y-28563D01*
X48845Y-28537D02*
X49016Y-28537D01*
X48924Y-28642D01*
X48964Y-28642D01*
X48990Y-28655D01*
X49003Y-28668D01*
X49016Y-28694D01*
X49016Y-28760D01*
X49003Y-28786D01*
X48990Y-28800D01*
X48964Y-28813D01*
X48885Y-28813D01*
X48859Y-28800D01*
X48845Y-28786D01*
X47336Y-28813D02*
X47336Y-28537D01*
X47441Y-28537D01*
X47467Y-28550D01*
X47480Y-28563D01*
X47493Y-28589D01*
X47493Y-28629D01*
X47480Y-28655D01*
X47467Y-28668D01*
X47441Y-28681D01*
X47336Y-28681D01*
X47704Y-28668D02*
X47743Y-28681D01*
X47756Y-28694D01*
X47769Y-28721D01*
X47769Y-28760D01*
X47756Y-28786D01*
X47743Y-28800D01*
X47717Y-28813D01*
X47612Y-28813D01*
X47612Y-28537D01*
X47704Y-28537D01*
X47730Y-28550D01*
X47743Y-28563D01*
X47756Y-28589D01*
X47756Y-28616D01*
X47743Y-28642D01*
X47730Y-28655D01*
X47704Y-28668D01*
X47612Y-28668D01*
X48006Y-28537D02*
X47953Y-28537D01*
X47927Y-28550D01*
X47914Y-28563D01*
X47888Y-28602D01*
X47875Y-28655D01*
X47875Y-28760D01*
X47888Y-28786D01*
X47901Y-28800D01*
X47927Y-28813D01*
X47980Y-28813D01*
X48006Y-28800D01*
X48019Y-28786D01*
X48032Y-28760D01*
X48032Y-28694D01*
X48019Y-28668D01*
X48006Y-28655D01*
X47980Y-28642D01*
X47927Y-28642D01*
X47901Y-28655D01*
X47888Y-28668D01*
X47875Y-28694D01*
X46313Y-28813D02*
X46313Y-28537D01*
X46418Y-28537D01*
X46444Y-28550D01*
X46457Y-28563D01*
X46470Y-28589D01*
X46470Y-28629D01*
X46457Y-28655D01*
X46444Y-28668D01*
X46418Y-28681D01*
X46313Y-28681D01*
X46681Y-28668D02*
X46720Y-28681D01*
X46733Y-28694D01*
X46746Y-28721D01*
X46746Y-28760D01*
X46733Y-28786D01*
X46720Y-28800D01*
X46694Y-28813D01*
X46589Y-28813D01*
X46589Y-28537D01*
X46681Y-28537D01*
X46707Y-28550D01*
X46720Y-28563D01*
X46733Y-28589D01*
X46733Y-28616D01*
X46720Y-28642D01*
X46707Y-28655D01*
X46681Y-28668D01*
X46589Y-28668D01*
X46838Y-28537D02*
X47022Y-28537D01*
X46904Y-28813D01*
X45328Y-28813D02*
X45328Y-28537D01*
X45433Y-28537D01*
X45459Y-28550D01*
X45472Y-28563D01*
X45485Y-28589D01*
X45485Y-28629D01*
X45472Y-28655D01*
X45459Y-28668D01*
X45433Y-28681D01*
X45328Y-28681D01*
X45604Y-28813D02*
X45604Y-28537D01*
X45669Y-28537D01*
X45709Y-28550D01*
X45735Y-28576D01*
X45748Y-28602D01*
X45761Y-28655D01*
X45761Y-28694D01*
X45748Y-28747D01*
X45735Y-28773D01*
X45709Y-28800D01*
X45669Y-28813D01*
X45604Y-28813D01*
X45867Y-28563D02*
X45880Y-28550D01*
X45906Y-28537D01*
X45972Y-28537D01*
X45998Y-28550D01*
X46011Y-28563D01*
X46024Y-28589D01*
X46024Y-28616D01*
X46011Y-28655D01*
X45853Y-28813D01*
X46024Y-28813D01*
X38176Y-28904D02*
X38150Y-28891D01*
X38111Y-28891D01*
X38071Y-28904D01*
X38045Y-28930D01*
X38032Y-28956D01*
X38019Y-29009D01*
X38019Y-29048D01*
X38032Y-29101D01*
X38045Y-29127D01*
X38071Y-29154D01*
X38111Y-29167D01*
X38137Y-29167D01*
X38176Y-29154D01*
X38189Y-29140D01*
X38189Y-29048D01*
X38137Y-29048D01*
X38308Y-29167D02*
X38308Y-28891D01*
X38465Y-29167D01*
X38465Y-28891D01*
X38597Y-29167D02*
X38597Y-28891D01*
X38662Y-28891D01*
X38702Y-28904D01*
X38728Y-28930D01*
X38741Y-28956D01*
X38754Y-29009D01*
X38754Y-29048D01*
X38741Y-29101D01*
X38728Y-29127D01*
X38702Y-29154D01*
X38662Y-29167D01*
X38597Y-29167D01*
X37880Y-32907D02*
X38038Y-32907D01*
X37959Y-33183D02*
X37959Y-32907D01*
X38103Y-32907D02*
X38287Y-33183D01*
X38287Y-32907D02*
X38103Y-33183D01*
X38393Y-33183D02*
X38393Y-32907D01*
X38458Y-32907D01*
X38498Y-32920D01*
X38524Y-32946D01*
X38537Y-32972D01*
X38550Y-33025D01*
X38550Y-33064D01*
X38537Y-33117D01*
X38524Y-33143D01*
X38498Y-33170D01*
X38458Y-33183D01*
X38393Y-33183D01*
X38044Y-32199D02*
X37952Y-32067D01*
X37887Y-32199D02*
X37887Y-31923D01*
X37992Y-31923D01*
X38018Y-31936D01*
X38031Y-31949D01*
X38044Y-31975D01*
X38044Y-32015D01*
X38031Y-32041D01*
X38018Y-32054D01*
X37992Y-32067D01*
X37887Y-32067D01*
X38136Y-31923D02*
X38320Y-32199D01*
X38320Y-31923D02*
X38136Y-32199D01*
X38426Y-32199D02*
X38426Y-31923D01*
X38491Y-31923D01*
X38531Y-31936D01*
X38557Y-31962D01*
X38570Y-31988D01*
X38583Y-32041D01*
X38583Y-32080D01*
X38570Y-32133D01*
X38557Y-32159D01*
X38531Y-32186D01*
X38491Y-32199D01*
X38426Y-32199D01*
X61306Y-40427D02*
X61359Y-40427D01*
X61385Y-40440D01*
X61411Y-40466D01*
X61425Y-40519D01*
X61425Y-40611D01*
X61411Y-40663D01*
X61385Y-40690D01*
X61359Y-40703D01*
X61306Y-40703D01*
X61280Y-40690D01*
X61254Y-40663D01*
X61241Y-40611D01*
X61241Y-40519D01*
X61254Y-40466D01*
X61280Y-40440D01*
X61306Y-40427D01*
X61543Y-40558D02*
X61635Y-40558D01*
X61674Y-40703D02*
X61543Y-40703D01*
X61543Y-40427D01*
X61674Y-40427D01*
X61188Y-40287D02*
X61727Y-40287D01*
X60144Y-40571D02*
X60183Y-40584D01*
X60249Y-40584D01*
X60275Y-40571D01*
X60288Y-40557D01*
X60301Y-40531D01*
X60301Y-40505D01*
X60288Y-40479D01*
X60275Y-40465D01*
X60249Y-40452D01*
X60196Y-40439D01*
X60170Y-40426D01*
X60157Y-40413D01*
X60144Y-40387D01*
X60144Y-40360D01*
X60157Y-40334D01*
X60170Y-40321D01*
X60196Y-40308D01*
X60262Y-40308D01*
X60301Y-40321D01*
X60577Y-40557D02*
X60564Y-40571D01*
X60525Y-40584D01*
X60499Y-40584D01*
X60459Y-40571D01*
X60433Y-40544D01*
X60420Y-40518D01*
X60407Y-40465D01*
X60407Y-40426D01*
X60420Y-40373D01*
X60433Y-40347D01*
X60459Y-40321D01*
X60499Y-40308D01*
X60525Y-40308D01*
X60564Y-40321D01*
X60577Y-40334D01*
X60827Y-40584D02*
X60696Y-40584D01*
X60696Y-40308D01*
G54D14*
X59114Y-40571D02*
X59153Y-40584D01*
X59219Y-40584D01*
X59245Y-40571D01*
X59258Y-40557D01*
X59271Y-40531D01*
X59271Y-40505D01*
X59258Y-40479D01*
X59245Y-40465D01*
X59219Y-40452D01*
X59166Y-40439D01*
X59140Y-40426D01*
X59127Y-40413D01*
X59114Y-40387D01*
X59114Y-40360D01*
X59127Y-40334D01*
X59140Y-40321D01*
X59166Y-40308D01*
X59232Y-40308D01*
X59271Y-40321D01*
X59390Y-40584D02*
X59390Y-40308D01*
X59455Y-40308D01*
X59495Y-40321D01*
X59521Y-40347D01*
X59534Y-40373D01*
X59547Y-40426D01*
X59547Y-40465D01*
X59534Y-40518D01*
X59521Y-40544D01*
X59495Y-40571D01*
X59455Y-40584D01*
X59390Y-40584D01*
X59653Y-40505D02*
X59784Y-40505D01*
X59626Y-40584D02*
X59718Y-40308D01*
X59810Y-40584D01*
X57952Y-40479D02*
X58162Y-40479D01*
X58057Y-40584D02*
X58057Y-40373D01*
X58267Y-40308D02*
X58438Y-40308D01*
X58346Y-40413D01*
X58386Y-40413D01*
X58412Y-40426D01*
X58425Y-40439D01*
X58438Y-40465D01*
X58438Y-40531D01*
X58425Y-40557D01*
X58412Y-40571D01*
X58386Y-40584D01*
X58307Y-40584D01*
X58281Y-40571D01*
X58267Y-40557D01*
X58530Y-40400D02*
X58596Y-40584D01*
X58662Y-40400D01*
X58740Y-40308D02*
X58911Y-40308D01*
X58819Y-40413D01*
X58859Y-40413D01*
X58885Y-40426D01*
X58898Y-40439D01*
X58911Y-40465D01*
X58911Y-40531D01*
X58898Y-40557D01*
X58885Y-40571D01*
X58859Y-40584D01*
X58780Y-40584D01*
X58754Y-40571D01*
X58740Y-40557D01*
X57231Y-40321D02*
X57205Y-40308D01*
X57166Y-40308D01*
X57126Y-40321D01*
X57100Y-40347D01*
X57087Y-40373D01*
X57074Y-40426D01*
X57074Y-40465D01*
X57087Y-40518D01*
X57100Y-40544D01*
X57126Y-40571D01*
X57166Y-40584D01*
X57192Y-40584D01*
X57231Y-40571D01*
X57244Y-40557D01*
X57244Y-40465D01*
X57192Y-40465D01*
X57363Y-40584D02*
X57363Y-40308D01*
X57520Y-40584D01*
X57520Y-40308D01*
X57652Y-40584D02*
X57652Y-40308D01*
X57717Y-40308D01*
X57757Y-40321D01*
X57783Y-40347D01*
X57796Y-40373D01*
X57809Y-40426D01*
X57809Y-40465D01*
X57796Y-40518D01*
X57783Y-40544D01*
X57757Y-40571D01*
X57717Y-40584D01*
X57652Y-40584D01*
X57231Y-34258D02*
X57205Y-34245D01*
X57166Y-34245D01*
X57126Y-34258D01*
X57100Y-34284D01*
X57087Y-34310D01*
X57074Y-34363D01*
X57074Y-34402D01*
X57087Y-34455D01*
X57100Y-34481D01*
X57126Y-34508D01*
X57166Y-34521D01*
X57192Y-34521D01*
X57231Y-34508D01*
X57244Y-34494D01*
X57244Y-34402D01*
X57192Y-34402D01*
X57363Y-34521D02*
X57363Y-34245D01*
X57520Y-34521D01*
X57520Y-34245D01*
X57652Y-34521D02*
X57652Y-34245D01*
X57717Y-34245D01*
X57757Y-34258D01*
X57783Y-34284D01*
X57796Y-34310D01*
X57809Y-34363D01*
X57809Y-34402D01*
X57796Y-34455D01*
X57783Y-34481D01*
X57757Y-34508D01*
X57717Y-34521D01*
X57652Y-34521D01*
X57952Y-34377D02*
X58162Y-34377D01*
X58057Y-34482D02*
X58057Y-34271D01*
X58267Y-34206D02*
X58438Y-34206D01*
X58346Y-34311D01*
X58386Y-34311D01*
X58412Y-34324D01*
X58425Y-34337D01*
X58438Y-34363D01*
X58438Y-34429D01*
X58425Y-34455D01*
X58412Y-34469D01*
X58386Y-34482D01*
X58307Y-34482D01*
X58281Y-34469D01*
X58267Y-34455D01*
X58530Y-34298D02*
X58596Y-34482D01*
X58662Y-34298D01*
X58740Y-34206D02*
X58911Y-34206D01*
X58819Y-34311D01*
X58859Y-34311D01*
X58885Y-34324D01*
X58898Y-34337D01*
X58911Y-34363D01*
X58911Y-34429D01*
X58898Y-34455D01*
X58885Y-34469D01*
X58859Y-34482D01*
X58780Y-34482D01*
X58754Y-34469D01*
X58740Y-34455D01*
X59114Y-34469D02*
X59153Y-34482D01*
X59219Y-34482D01*
X59245Y-34469D01*
X59258Y-34455D01*
X59271Y-34429D01*
X59271Y-34403D01*
X59258Y-34377D01*
X59245Y-34363D01*
X59219Y-34350D01*
X59166Y-34337D01*
X59140Y-34324D01*
X59127Y-34311D01*
X59114Y-34285D01*
X59114Y-34258D01*
X59127Y-34232D01*
X59140Y-34219D01*
X59166Y-34206D01*
X59232Y-34206D01*
X59271Y-34219D01*
X59390Y-34482D02*
X59390Y-34206D01*
X59455Y-34206D01*
X59495Y-34219D01*
X59521Y-34245D01*
X59534Y-34271D01*
X59547Y-34324D01*
X59547Y-34363D01*
X59534Y-34416D01*
X59521Y-34442D01*
X59495Y-34469D01*
X59455Y-34482D01*
X59390Y-34482D01*
X59653Y-34403D02*
X59784Y-34403D01*
X59626Y-34482D02*
X59718Y-34206D01*
X59810Y-34482D01*
X60105Y-34469D02*
X60144Y-34482D01*
X60210Y-34482D01*
X60236Y-34469D01*
X60249Y-34455D01*
X60262Y-34429D01*
X60262Y-34403D01*
X60249Y-34377D01*
X60236Y-34363D01*
X60210Y-34350D01*
X60157Y-34337D01*
X60131Y-34324D01*
X60118Y-34311D01*
X60105Y-34285D01*
X60105Y-34258D01*
X60118Y-34232D01*
X60131Y-34219D01*
X60157Y-34206D01*
X60223Y-34206D01*
X60262Y-34219D01*
X60538Y-34455D02*
X60525Y-34469D01*
X60486Y-34482D01*
X60460Y-34482D01*
X60420Y-34469D01*
X60394Y-34442D01*
X60381Y-34416D01*
X60368Y-34363D01*
X60368Y-34324D01*
X60381Y-34271D01*
X60394Y-34245D01*
X60420Y-34219D01*
X60460Y-34206D01*
X60486Y-34206D01*
X60525Y-34219D01*
X60538Y-34232D01*
X60788Y-34482D02*
X60657Y-34482D01*
X60657Y-34206D01*
X61306Y-34206D02*
X61359Y-34206D01*
X61385Y-34219D01*
X61411Y-34245D01*
X61425Y-34298D01*
X61425Y-34390D01*
X61411Y-34442D01*
X61385Y-34469D01*
X61359Y-34482D01*
X61306Y-34482D01*
X61280Y-34469D01*
X61254Y-34442D01*
X61241Y-34390D01*
X61241Y-34298D01*
X61254Y-34245D01*
X61280Y-34219D01*
X61306Y-34206D01*
X61543Y-34337D02*
X61635Y-34337D01*
X61674Y-34482D02*
X61543Y-34482D01*
X61543Y-34206D01*
X61674Y-34206D01*
X61188Y-34063D02*
X61727Y-34063D01*
X61306Y-34206D02*
X61359Y-34206D01*
X61385Y-34219D01*
X61411Y-34245D01*
X61425Y-34298D01*
X61425Y-34390D01*
X61411Y-34442D01*
X61385Y-34469D01*
X61359Y-34482D01*
X61306Y-34482D01*
X61280Y-34469D01*
X61254Y-34442D01*
X61241Y-34390D01*
X61241Y-34298D01*
X61254Y-34245D01*
X61280Y-34219D01*
X61306Y-34206D01*
X61543Y-34337D02*
X61635Y-34337D01*
X61674Y-34482D02*
X61543Y-34482D01*
X61543Y-34206D01*
X61674Y-34206D01*
X61188Y-34063D02*
X61727Y-34063D01*
X60105Y-34469D02*
X60144Y-34482D01*
X60210Y-34482D01*
X60236Y-34469D01*
X60249Y-34455D01*
X60262Y-34429D01*
X60262Y-34403D01*
X60249Y-34377D01*
X60236Y-34363D01*
X60210Y-34350D01*
X60157Y-34337D01*
X60131Y-34324D01*
X60118Y-34311D01*
X60105Y-34285D01*
X60105Y-34258D01*
X60118Y-34232D01*
X60131Y-34219D01*
X60157Y-34206D01*
X60223Y-34206D01*
X60262Y-34219D01*
X60538Y-34455D02*
X60525Y-34469D01*
X60486Y-34482D01*
X60460Y-34482D01*
X60420Y-34469D01*
X60394Y-34442D01*
X60381Y-34416D01*
X60368Y-34363D01*
X60368Y-34324D01*
X60381Y-34271D01*
X60394Y-34245D01*
X60420Y-34219D01*
X60460Y-34206D01*
X60486Y-34206D01*
X60525Y-34219D01*
X60538Y-34232D01*
X60788Y-34482D02*
X60657Y-34482D01*
X60657Y-34206D01*
X59114Y-34469D02*
X59153Y-34482D01*
X59219Y-34482D01*
X59245Y-34469D01*
X59258Y-34455D01*
X59271Y-34429D01*
X59271Y-34403D01*
X59258Y-34377D01*
X59245Y-34363D01*
X59219Y-34350D01*
X59166Y-34337D01*
X59140Y-34324D01*
X59127Y-34311D01*
X59114Y-34285D01*
X59114Y-34258D01*
X59127Y-34232D01*
X59140Y-34219D01*
X59166Y-34206D01*
X59232Y-34206D01*
X59271Y-34219D01*
X59390Y-34482D02*
X59390Y-34206D01*
X59455Y-34206D01*
X59495Y-34219D01*
X59521Y-34245D01*
X59534Y-34271D01*
X59547Y-34324D01*
X59547Y-34363D01*
X59534Y-34416D01*
X59521Y-34442D01*
X59495Y-34469D01*
X59455Y-34482D01*
X59390Y-34482D01*
X59653Y-34403D02*
X59784Y-34403D01*
X59626Y-34482D02*
X59718Y-34206D01*
X59810Y-34482D01*
X57952Y-34377D02*
X58162Y-34377D01*
X58057Y-34482D02*
X58057Y-34271D01*
X58267Y-34206D02*
X58438Y-34206D01*
X58346Y-34311D01*
X58386Y-34311D01*
X58412Y-34324D01*
X58425Y-34337D01*
X58438Y-34363D01*
X58438Y-34429D01*
X58425Y-34455D01*
X58412Y-34469D01*
X58386Y-34482D01*
X58307Y-34482D01*
X58281Y-34469D01*
X58267Y-34455D01*
X58530Y-34298D02*
X58596Y-34482D01*
X58662Y-34298D01*
X58740Y-34206D02*
X58911Y-34206D01*
X58819Y-34311D01*
X58859Y-34311D01*
X58885Y-34324D01*
X58898Y-34337D01*
X58911Y-34363D01*
X58911Y-34429D01*
X58898Y-34455D01*
X58885Y-34469D01*
X58859Y-34482D01*
X58780Y-34482D01*
X58754Y-34469D01*
X58740Y-34455D01*
X57231Y-34258D02*
X57205Y-34245D01*
X57166Y-34245D01*
X57126Y-34258D01*
X57100Y-34284D01*
X57087Y-34310D01*
X57074Y-34363D01*
X57074Y-34402D01*
X57087Y-34455D01*
X57100Y-34481D01*
X57126Y-34508D01*
X57166Y-34521D01*
X57192Y-34521D01*
X57231Y-34508D01*
X57244Y-34494D01*
X57244Y-34402D01*
X57192Y-34402D01*
X57363Y-34521D02*
X57363Y-34245D01*
X57520Y-34521D01*
X57520Y-34245D01*
X57652Y-34521D02*
X57652Y-34245D01*
X57717Y-34245D01*
X57757Y-34258D01*
X57783Y-34284D01*
X57796Y-34310D01*
X57809Y-34363D01*
X57809Y-34402D01*
X57796Y-34455D01*
X57783Y-34481D01*
X57757Y-34508D01*
X57717Y-34521D01*
X57652Y-34521D01*
X64003Y-34219D02*
X63977Y-34206D01*
X63938Y-34206D01*
X63898Y-34219D01*
X63872Y-34245D01*
X63859Y-34271D01*
X63846Y-34324D01*
X63846Y-34363D01*
X63859Y-34416D01*
X63872Y-34442D01*
X63898Y-34469D01*
X63938Y-34482D01*
X63964Y-34482D01*
X64003Y-34469D01*
X64016Y-34455D01*
X64016Y-34363D01*
X63964Y-34363D01*
X64135Y-34482D02*
X64135Y-34206D01*
X64292Y-34482D01*
X64292Y-34206D01*
X64424Y-34482D02*
X64424Y-34206D01*
X64489Y-34206D01*
X64529Y-34219D01*
X64555Y-34245D01*
X64568Y-34271D01*
X64581Y-34324D01*
X64581Y-34363D01*
X64568Y-34416D01*
X64555Y-34442D01*
X64529Y-34469D01*
X64489Y-34482D01*
X64424Y-34482D01*
X64908Y-34377D02*
X65118Y-34377D01*
X65013Y-34482D02*
X65013Y-34271D01*
X65394Y-34482D02*
X65237Y-34482D01*
X65315Y-34482D02*
X65315Y-34206D01*
X65289Y-34245D01*
X65263Y-34271D01*
X65237Y-34285D01*
X65500Y-34232D02*
X65513Y-34219D01*
X65539Y-34206D01*
X65605Y-34206D01*
X65631Y-34219D01*
X65644Y-34232D01*
X65657Y-34258D01*
X65657Y-34285D01*
X65644Y-34324D01*
X65486Y-34482D01*
X65657Y-34482D01*
X65736Y-34206D02*
X65828Y-34482D01*
X65920Y-34206D01*
G54D15*
X36693Y-37165D02*
X36693Y-37638D01*
X68937Y-35906D02*
X68937Y-27165D01*
X67677Y-37638D02*
X67677Y-37165D01*
X35433Y-38819D02*
X35433Y-49921D01*
X35433Y-27165D02*
X35433Y-35984D01*
X67677Y-25906D02*
X36693Y-25906D01*
X68937Y-49921D02*
X68937Y-38898D01*
X36693Y-51181D02*
X67677Y-51181D01*
X68937Y-38898D02*
X68932Y-38789D01*
X68917Y-38680D01*
X68894Y-38572D01*
X68861Y-38468D01*
X68818Y-38366D01*
X68768Y-38269D01*
X68709Y-38176D01*
X68642Y-38089D01*
X68567Y-38008D01*
X68486Y-37933D01*
X68399Y-37866D01*
X68307Y-37807D01*
X68209Y-37757D01*
X68107Y-37714D01*
X68003Y-37681D01*
X67895Y-37658D01*
X67786Y-37643D01*
X67677Y-37638D01*
X67677Y-37166D02*
X67786Y-37161D01*
X67895Y-37146D01*
X68003Y-37123D01*
X68107Y-37090D01*
X68209Y-37047D01*
X68307Y-36997D01*
X68399Y-36938D01*
X68486Y-36871D01*
X68567Y-36796D01*
X68642Y-36715D01*
X68709Y-36628D01*
X68768Y-36535D01*
X68818Y-36438D01*
X68861Y-36336D01*
X68894Y-36232D01*
X68917Y-36124D01*
X68932Y-36015D01*
X68937Y-35906D01*
X68936Y-27165D02*
X68931Y-27056D01*
X68916Y-26947D01*
X68893Y-26840D01*
X68860Y-26735D01*
X68818Y-26633D01*
X68767Y-26536D01*
X68708Y-26443D01*
X68641Y-26356D01*
X68567Y-26275D01*
X68486Y-26201D01*
X68399Y-26134D01*
X68306Y-26075D01*
X68209Y-26024D01*
X68107Y-25982D01*
X68002Y-25949D01*
X67895Y-25926D01*
X67786Y-25911D01*
X67677Y-25906D01*
X36693Y-25905D02*
X36584Y-25910D01*
X36475Y-25925D01*
X36367Y-25948D01*
X36263Y-25981D01*
X36161Y-26024D01*
X36064Y-26074D01*
X35971Y-26133D01*
X35884Y-26200D01*
X35803Y-26275D01*
X35728Y-26356D01*
X35661Y-26443D01*
X35602Y-26536D01*
X35552Y-26633D01*
X35509Y-26735D01*
X35476Y-26839D01*
X35453Y-26947D01*
X35438Y-27056D01*
X35433Y-27165D01*
X35433Y-35905D02*
X35438Y-36014D01*
X35453Y-36123D01*
X35476Y-36231D01*
X35509Y-36335D01*
X35552Y-36437D01*
X35602Y-36534D01*
X35661Y-36627D01*
X35728Y-36714D01*
X35803Y-36795D01*
X35884Y-36870D01*
X35971Y-36937D01*
X36064Y-36996D01*
X36161Y-37046D01*
X36263Y-37089D01*
X36367Y-37122D01*
X36475Y-37145D01*
X36584Y-37160D01*
X36693Y-37165D01*
X36693Y-37638D02*
X36584Y-37643D01*
X36475Y-37658D01*
X36367Y-37681D01*
X36263Y-37714D01*
X36161Y-37757D01*
X36064Y-37807D01*
X35971Y-37866D01*
X35884Y-37933D01*
X35803Y-38008D01*
X35728Y-38089D01*
X35661Y-38176D01*
X35602Y-38269D01*
X35552Y-38366D01*
X35509Y-38468D01*
X35476Y-38572D01*
X35453Y-38680D01*
X35438Y-38789D01*
X35433Y-38898D01*
X35433Y-49921D02*
X35438Y-50030D01*
X35453Y-50139D01*
X35476Y-50247D01*
X35509Y-50351D01*
X35552Y-50453D01*
X35602Y-50550D01*
X35661Y-50643D01*
X35728Y-50730D01*
X35803Y-50811D01*
X35884Y-50886D01*
X35971Y-50953D01*
X36064Y-51012D01*
X36161Y-51062D01*
X36263Y-51105D01*
X36367Y-51138D01*
X36475Y-51161D01*
X36584Y-51176D01*
X36693Y-51181D01*
X67677Y-51181D02*
X67786Y-51176D01*
X67895Y-51161D01*
X68003Y-51138D01*
X68107Y-51105D01*
X68209Y-51062D01*
X68307Y-51012D01*
X68399Y-50953D01*
X68486Y-50886D01*
X68567Y-50811D01*
X68642Y-50730D01*
X68709Y-50643D01*
X68768Y-50550D01*
X68818Y-50453D01*
X68861Y-50351D01*
X68894Y-50247D01*
X68917Y-50139D01*
X68932Y-50030D01*
X68937Y-49921D01*
G54D16*
X56078Y-46319D02*
X56041Y-46300D01*
X55984Y-46300D01*
X55928Y-46319D01*
X55891Y-46357D01*
X55872Y-46394D01*
X55853Y-46469D01*
X55853Y-46526D01*
X55872Y-46601D01*
X55891Y-46638D01*
X55928Y-46676D01*
X55984Y-46694D01*
X56022Y-46694D01*
X56078Y-46676D01*
X56097Y-46657D01*
X56097Y-46526D01*
X56022Y-46526D01*
X56266Y-46694D02*
X56266Y-46300D01*
X56491Y-46694D01*
X56491Y-46300D01*
X56679Y-46694D02*
X56679Y-46300D01*
X56773Y-46300D01*
X56829Y-46319D01*
X56866Y-46357D01*
X56885Y-46394D01*
X56904Y-46469D01*
X56904Y-46526D01*
X56885Y-46601D01*
X56866Y-46638D01*
X56829Y-46676D01*
X56773Y-46694D01*
X56679Y-46694D01*
X56275Y-49458D02*
X56575Y-49458D01*
X56425Y-49608D02*
X56425Y-49308D01*
X56969Y-49608D02*
X56744Y-49608D01*
X56857Y-49608D02*
X56857Y-49214D01*
X56819Y-49271D01*
X56782Y-49308D01*
X56744Y-49327D01*
X57119Y-49252D02*
X57138Y-49233D01*
X57175Y-49214D01*
X57269Y-49214D01*
X57307Y-49233D01*
X57325Y-49252D01*
X57344Y-49290D01*
X57344Y-49327D01*
X57325Y-49383D01*
X57100Y-49608D01*
X57344Y-49608D01*
X57457Y-49214D02*
X57588Y-49608D01*
X57719Y-49214D01*
X39224Y-27141D02*
X39224Y-27403D01*
X39224Y-27178D02*
X39243Y-27160D01*
X39280Y-27141D01*
X39336Y-27141D01*
X39374Y-27160D01*
X39393Y-27197D01*
X39393Y-27403D01*
X39805Y-27403D02*
X39674Y-27216D01*
X39580Y-27403D02*
X39580Y-27009D01*
X39730Y-27009D01*
X39767Y-27028D01*
X39786Y-27047D01*
X39805Y-27085D01*
X39805Y-27141D01*
X39786Y-27178D01*
X39767Y-27197D01*
X39730Y-27216D01*
X39580Y-27216D01*
X40105Y-27197D02*
X39974Y-27197D01*
X39974Y-27403D02*
X39974Y-27009D01*
X40161Y-27009D01*
X40293Y-27047D02*
X40312Y-27028D01*
X40349Y-27009D01*
X40443Y-27009D01*
X40481Y-27028D01*
X40499Y-27047D01*
X40518Y-27085D01*
X40518Y-27122D01*
X40499Y-27178D01*
X40274Y-27403D01*
X40518Y-27403D01*
X40856Y-27141D02*
X40856Y-27403D01*
X40762Y-26991D02*
X40668Y-27272D01*
X40912Y-27272D01*
X41249Y-27403D02*
X41062Y-27403D01*
X41062Y-27009D01*
X41456Y-27009D02*
X41493Y-27009D01*
X41531Y-27028D01*
X41550Y-27047D01*
X41568Y-27085D01*
X41587Y-27160D01*
X41587Y-27253D01*
X41568Y-27328D01*
X41550Y-27366D01*
X41531Y-27385D01*
X41493Y-27403D01*
X41456Y-27403D01*
X41418Y-27385D01*
X41400Y-27366D01*
X41381Y-27328D01*
X41362Y-27253D01*
X41362Y-27160D01*
X41381Y-27085D01*
X41400Y-27047D01*
X41418Y-27028D01*
X41456Y-27009D01*
X41962Y-27403D02*
X41737Y-27403D01*
X41850Y-27403D02*
X41850Y-27009D01*
X41812Y-27066D01*
X41775Y-27103D01*
X41737Y-27122D01*
X42131Y-27253D02*
X42431Y-27253D01*
X42281Y-27403D02*
X42281Y-27103D01*
X39740Y-27941D02*
X39928Y-27941D01*
X39703Y-28053D02*
X39834Y-27659D01*
X39965Y-28053D01*
X40097Y-27791D02*
X40097Y-28053D01*
X40097Y-27828D02*
X40116Y-27810D01*
X40153Y-27791D01*
X40209Y-27791D01*
X40247Y-27810D01*
X40266Y-27847D01*
X40266Y-28053D01*
X40397Y-27791D02*
X40547Y-27791D01*
X40453Y-27659D02*
X40453Y-27997D01*
X40472Y-28035D01*
X40509Y-28053D01*
X40547Y-28053D01*
X40828Y-28035D02*
X40790Y-28053D01*
X40715Y-28053D01*
X40678Y-28035D01*
X40659Y-27997D01*
X40659Y-27847D01*
X40678Y-27810D01*
X40715Y-27791D01*
X40790Y-27791D01*
X40828Y-27810D01*
X40847Y-27847D01*
X40847Y-27885D01*
X40659Y-27922D01*
X41016Y-27791D02*
X41016Y-28053D01*
X41016Y-27828D02*
X41035Y-27810D01*
X41072Y-27791D01*
X41128Y-27791D01*
X41166Y-27810D01*
X41185Y-27847D01*
X41185Y-28053D01*
X41372Y-27791D02*
X41372Y-28053D01*
X41372Y-27828D02*
X41391Y-27810D01*
X41428Y-27791D01*
X41484Y-27791D01*
X41522Y-27810D01*
X41541Y-27847D01*
X41541Y-28053D01*
X41897Y-28053D02*
X41897Y-27847D01*
X41878Y-27810D01*
X41840Y-27791D01*
X41765Y-27791D01*
X41728Y-27810D01*
X41897Y-28035D02*
X41859Y-28053D01*
X41765Y-28053D01*
X41728Y-28035D01*
X41709Y-27997D01*
X41709Y-27960D01*
X41728Y-27922D01*
X41765Y-27903D01*
X41859Y-27903D01*
X41897Y-27885D01*
X40264Y-28591D02*
X40452Y-28591D01*
X40227Y-28703D02*
X40358Y-28309D01*
X40489Y-28703D01*
X40621Y-28703D02*
X40621Y-28441D01*
X40621Y-28516D02*
X40640Y-28478D01*
X40658Y-28460D01*
X40696Y-28441D01*
X40733Y-28441D01*
X41015Y-28685D02*
X40977Y-28703D01*
X40902Y-28703D01*
X40865Y-28685D01*
X40846Y-28647D01*
X40846Y-28497D01*
X40865Y-28460D01*
X40902Y-28441D01*
X40977Y-28441D01*
X41015Y-28460D01*
X41034Y-28497D01*
X41034Y-28535D01*
X40846Y-28572D01*
X41372Y-28703D02*
X41372Y-28497D01*
X41353Y-28460D01*
X41315Y-28441D01*
X41240Y-28441D01*
X41203Y-28460D01*
X41372Y-28685D02*
X41334Y-28703D01*
X41240Y-28703D01*
X41203Y-28685D01*
X41184Y-28647D01*
X41184Y-28610D01*
X41203Y-28572D01*
X41240Y-28553D01*
X41334Y-28553D01*
X41372Y-28535D01*
G54D15*
X43898Y-26024D02*
X37835Y-26024D01*
X43898Y-29528D02*
X43898Y-26024D01*
X37835Y-29528D02*
X43898Y-29528D01*
X37835Y-25984D02*
X37835Y-29528D01*
X54630Y-44850D02*
X55614Y-45835D01*
X55614Y-45835D02*
X55614Y-48000D01*
X52386Y-45835D02*
X52386Y-48000D01*
X53370Y-44850D02*
X52386Y-45835D01*
X52386Y-51150D02*
X52386Y-48000D01*
X55614Y-51150D02*
X55614Y-48000D01*
X54630Y-44850D02*
X53370Y-44850D01*
X55614Y-51150D02*
X52386Y-51150D01*
G54D17*
X54700Y-39050D02*
X53300Y-39050D01*
X54700Y-42950D02*
X53300Y-42950D01*
X54700Y-42950D02*
X54700Y-39050D01*
X53300Y-39050D02*
X53300Y-42950D01*
X53711Y-39350D02*
X53708Y-39371D01*
X53702Y-39392D01*
X53692Y-39411D01*
X53678Y-39428D01*
X53662Y-39442D01*
X53643Y-39452D01*
X53622Y-39458D01*
X53600Y-39460D01*
X53580Y-39459D01*
X53559Y-39452D01*
X53540Y-39442D01*
X53523Y-39429D01*
X53509Y-39412D01*
X53498Y-39393D01*
X53492Y-39373D01*
X53490Y-39351D01*
X53491Y-39330D01*
X53497Y-39310D01*
X53507Y-39290D01*
X53521Y-39273D01*
X53537Y-39259D01*
X53556Y-39249D01*
X53577Y-39242D01*
X53598Y-39240D01*
X53619Y-39241D01*
X53640Y-39247D01*
X53659Y-39257D01*
X53676Y-39270D01*
X53690Y-39287D01*
X53701Y-39305D01*
X53708Y-39326D01*
X53710Y-39347D01*
X53711Y-39350D01*
G54D15*
X46724Y-44307D02*
X46429Y-44307D01*
X48224Y-44307D02*
X47929Y-44307D01*
X49724Y-44307D02*
X49429Y-44307D01*
X57724Y-44307D02*
X57429Y-44307D01*
X43724Y-44307D02*
X43429Y-44307D01*
X42224Y-44307D02*
X41929Y-44307D01*
X40724Y-44307D02*
X40429Y-44307D01*
X39224Y-44307D02*
X38929Y-44307D01*
X37724Y-44307D02*
X37429Y-44307D01*
X45224Y-44307D02*
X44929Y-44307D01*
X59224Y-44307D02*
X58929Y-44307D01*
X60724Y-44307D02*
X60429Y-44307D01*
X62224Y-44307D02*
X61929Y-44307D01*
X63724Y-44307D02*
X63429Y-44307D01*
X65224Y-44307D02*
X64929Y-44307D01*
X66724Y-44307D02*
X66429Y-44307D01*
X65807Y-33189D02*
X65807Y-33484D01*
X65807Y-31930D02*
X65807Y-32225D01*
X65807Y-30670D02*
X65807Y-30965D01*
X65807Y-29410D02*
X65807Y-29705D01*
G54D10*
X48476Y-33531D02*
X48026Y-33531D01*
X48476Y-31351D02*
X48036Y-31351D01*
X48476Y-33531D02*
X48476Y-31351D01*
X47596Y-34001D02*
X47596Y-34431D01*
X45386Y-34011D02*
X45386Y-34431D01*
X45376Y-34431D02*
X47596Y-34441D01*
X45396Y-30461D02*
X47566Y-30451D01*
X44966Y-31151D02*
X44966Y-33981D01*
X47576Y-30461D02*
X47576Y-30871D01*
X45216Y-30911D02*
X47996Y-30911D01*
X48016Y-33991D02*
X48016Y-30951D01*
X44966Y-33991D02*
X47966Y-33991D01*
X44516Y-31321D02*
X44516Y-33541D01*
X44516Y-33541D02*
X44966Y-33541D01*
X44970Y-31141D02*
X45200Y-30911D01*
X44518Y-31321D02*
X44970Y-31321D01*
X45396Y-30911D02*
X45396Y-30459D01*
X45566Y-31315D02*
X45562Y-31351D01*
X45551Y-31386D01*
X45534Y-31419D01*
X45511Y-31447D01*
X45483Y-31470D01*
X45450Y-31488D01*
X45415Y-31499D01*
X45379Y-31502D01*
X45343Y-31499D01*
X45308Y-31489D01*
X45276Y-31472D01*
X45247Y-31449D01*
X45223Y-31421D01*
X45206Y-31389D01*
X45195Y-31354D01*
X45191Y-31317D01*
X45194Y-31282D01*
X45204Y-31246D01*
X45220Y-31214D01*
X45243Y-31185D01*
X45271Y-31161D01*
X45303Y-31143D01*
X45338Y-31132D01*
X45375Y-31128D01*
X45410Y-31130D01*
X45445Y-31140D01*
X45478Y-31157D01*
X45507Y-31179D01*
X45531Y-31207D01*
X45549Y-31239D01*
X45561Y-31274D01*
X45565Y-31310D01*
X45566Y-31315D01*
G54D17*
X59000Y-29691D02*
X61000Y-29691D01*
X61000Y-29691D02*
X61000Y-31491D01*
X61000Y-31491D02*
X59000Y-31491D01*
X59000Y-31491D02*
X59000Y-29691D01*
X59000Y-30291D02*
X59200Y-30291D01*
X59200Y-30291D02*
X59200Y-30791D01*
X59200Y-30791D02*
X59000Y-30791D01*
X59002Y-26200D02*
X59001Y-26209D01*
X58998Y-26219D01*
X58993Y-26227D01*
X58987Y-26235D01*
X58979Y-26241D01*
X58971Y-26246D01*
X58962Y-26248D01*
X58952Y-26249D01*
X58943Y-26249D01*
X58934Y-26246D01*
X58925Y-26241D01*
X58918Y-26235D01*
X58911Y-26228D01*
X58907Y-26219D01*
X58904Y-26210D01*
X58903Y-26200D01*
X58903Y-26191D01*
X58906Y-26182D01*
X58910Y-26173D01*
X58917Y-26166D01*
X58924Y-26159D01*
X58932Y-26155D01*
X58942Y-26152D01*
X58951Y-26151D01*
X58960Y-26151D01*
X58970Y-26154D01*
X58978Y-26158D01*
X58986Y-26164D01*
X58992Y-26172D01*
X58997Y-26180D01*
X59000Y-26189D01*
X59001Y-26199D01*
X59002Y-26200D01*
X58952Y-26650D02*
X58952Y-26250D01*
X58952Y-26250D02*
X59552Y-26250D01*
X59552Y-26250D02*
X59552Y-26650D01*
X59552Y-27050D02*
X59552Y-27450D01*
X59552Y-27450D02*
X58952Y-27450D01*
X58952Y-27450D02*
X58952Y-27050D01*
X60026Y-26200D02*
X60025Y-26209D01*
X60022Y-26219D01*
X60017Y-26227D01*
X60011Y-26235D01*
X60003Y-26241D01*
X59995Y-26246D01*
X59986Y-26248D01*
X59976Y-26249D01*
X59967Y-26249D01*
X59958Y-26246D01*
X59949Y-26241D01*
X59942Y-26235D01*
X59935Y-26228D01*
X59931Y-26219D01*
X59928Y-26210D01*
X59927Y-26200D01*
X59927Y-26191D01*
X59930Y-26182D01*
X59934Y-26173D01*
X59941Y-26166D01*
X59948Y-26159D01*
X59956Y-26155D01*
X59966Y-26152D01*
X59975Y-26151D01*
X59984Y-26151D01*
X59994Y-26154D01*
X60002Y-26158D01*
X60010Y-26164D01*
X60016Y-26172D01*
X60021Y-26180D01*
X60024Y-26189D01*
X60025Y-26199D01*
X60026Y-26200D01*
X59976Y-26650D02*
X59976Y-26250D01*
X59976Y-26250D02*
X60576Y-26250D01*
X60576Y-26250D02*
X60576Y-26650D01*
X60576Y-27050D02*
X60576Y-27450D01*
X60576Y-27450D02*
X59976Y-27450D01*
X59976Y-27450D02*
X59976Y-27050D01*
X54956Y-31201D02*
X54955Y-31210D01*
X54952Y-31220D01*
X54947Y-31228D01*
X54941Y-31236D01*
X54933Y-31242D01*
X54925Y-31247D01*
X54916Y-31249D01*
X54906Y-31250D01*
X54897Y-31250D01*
X54888Y-31247D01*
X54879Y-31242D01*
X54872Y-31236D01*
X54865Y-31229D01*
X54861Y-31220D01*
X54858Y-31211D01*
X54857Y-31201D01*
X54857Y-31192D01*
X54860Y-31183D01*
X54864Y-31174D01*
X54871Y-31167D01*
X54878Y-31160D01*
X54886Y-31156D01*
X54896Y-31153D01*
X54905Y-31152D01*
X54914Y-31152D01*
X54924Y-31155D01*
X54932Y-31159D01*
X54940Y-31165D01*
X54946Y-31173D01*
X54951Y-31181D01*
X54954Y-31190D01*
X54955Y-31200D01*
X54956Y-31201D01*
X54906Y-30751D02*
X54906Y-31151D01*
X54906Y-31151D02*
X54306Y-31151D01*
X54306Y-31151D02*
X54306Y-30751D01*
X54306Y-30351D02*
X54306Y-29951D01*
X54306Y-29951D02*
X54906Y-29951D01*
X54906Y-29951D02*
X54906Y-30351D01*
X41561Y-32773D02*
X41561Y-31873D01*
X41561Y-31873D02*
X42061Y-31873D01*
X42061Y-31873D02*
X42061Y-32773D01*
X42061Y-32773D02*
X41561Y-32773D01*
X54396Y-29623D02*
X54396Y-28723D01*
X54396Y-28723D02*
X54896Y-28723D01*
X54896Y-28723D02*
X54896Y-29623D01*
X54896Y-29623D02*
X54396Y-29623D01*
X53911Y-28723D02*
X53911Y-29623D01*
X53911Y-29623D02*
X53411Y-29623D01*
X53411Y-29623D02*
X53411Y-28723D01*
X53411Y-28723D02*
X53911Y-28723D01*
X38566Y-34278D02*
X39466Y-34278D01*
X39466Y-34278D02*
X39466Y-34778D01*
X39466Y-34778D02*
X38566Y-34778D01*
X38566Y-34778D02*
X38566Y-34278D01*
X55762Y-35377D02*
X55762Y-36277D01*
X55762Y-36277D02*
X55262Y-36277D01*
X55262Y-36277D02*
X55262Y-35377D01*
X55262Y-35377D02*
X55762Y-35377D01*
X54896Y-35377D02*
X54896Y-36277D01*
X54896Y-36277D02*
X54396Y-36277D01*
X54396Y-36277D02*
X54396Y-35377D01*
X54396Y-35377D02*
X54896Y-35377D01*
X44974Y-27700D02*
X44974Y-28600D01*
X44974Y-28600D02*
X44474Y-28600D01*
X44474Y-28600D02*
X44474Y-27700D01*
X44474Y-27700D02*
X44974Y-27700D01*
X49907Y-32891D02*
X49907Y-31991D01*
X49907Y-31991D02*
X50407Y-31991D01*
X50407Y-31991D02*
X50407Y-32891D01*
X50407Y-32891D02*
X49907Y-32891D01*
X54944Y-38175D02*
X55844Y-38175D01*
X55844Y-38175D02*
X55844Y-38675D01*
X55844Y-38675D02*
X54944Y-38675D01*
X54944Y-38675D02*
X54944Y-38175D01*
X61325Y-31041D02*
X61325Y-30141D01*
X61325Y-30141D02*
X61825Y-30141D01*
X61825Y-30141D02*
X61825Y-31041D01*
X61825Y-31041D02*
X61325Y-31041D01*
G54D18*
X38236Y-35102D02*
X42236Y-35102D01*
X42236Y-35102D02*
X42236Y-37102D01*
X42236Y-37102D02*
X38236Y-37102D01*
X38236Y-37102D02*
X38236Y-35102D01*
G54D19*
X52209Y-37102D02*
X49209Y-37102D01*
X49209Y-35102D02*
X52209Y-35102D01*
X52209Y-35102D02*
X52209Y-37102D01*
X49209Y-37102D02*
X49209Y-35102D01*
G54D20*
X44606Y-26968D02*
X44478Y-26968D01*
X44478Y-26968D02*
X44478Y-27165D01*
X44606Y-27165D02*
X44478Y-27165D01*
X44606Y-26968D02*
X44606Y-27165D01*
X44851Y-26968D02*
X44792Y-26968D01*
X44792Y-26968D02*
X44792Y-27067D01*
X44851Y-27067D02*
X44792Y-27067D01*
X44851Y-26968D02*
X44851Y-27067D01*
X44656Y-26968D02*
X44597Y-26968D01*
X44597Y-26968D02*
X44597Y-27067D01*
X44656Y-27067D02*
X44597Y-27067D01*
X44656Y-26968D02*
X44656Y-27067D01*
X44802Y-26968D02*
X44646Y-26968D01*
X44646Y-26968D02*
X44646Y-27037D01*
X44802Y-27037D02*
X44646Y-27037D01*
X44802Y-26968D02*
X44802Y-27037D01*
X44606Y-26379D02*
X44478Y-26379D01*
X44478Y-26379D02*
X44478Y-26576D01*
X44606Y-26576D02*
X44478Y-26576D01*
X44606Y-26379D02*
X44606Y-26576D01*
X44970Y-26379D02*
X44842Y-26379D01*
X44842Y-26379D02*
X44842Y-26576D01*
X44970Y-26576D02*
X44842Y-26576D01*
X44970Y-26379D02*
X44970Y-26576D01*
X44656Y-26477D02*
X44597Y-26477D01*
X44597Y-26477D02*
X44597Y-26576D01*
X44656Y-26576D02*
X44597Y-26576D01*
X44656Y-26477D02*
X44656Y-26576D01*
X44851Y-26477D02*
X44792Y-26477D01*
X44792Y-26477D02*
X44792Y-26576D01*
X44851Y-26576D02*
X44792Y-26576D01*
X44851Y-26477D02*
X44851Y-26576D01*
X44802Y-26507D02*
X44646Y-26507D01*
X44646Y-26507D02*
X44646Y-26576D01*
X44802Y-26576D02*
X44646Y-26576D01*
X44802Y-26507D02*
X44802Y-26576D01*
X44763Y-26772D02*
X44685Y-26772D01*
X44685Y-26772D02*
X44685Y-26850D01*
X44763Y-26850D02*
X44685Y-26850D01*
X44763Y-26772D02*
X44763Y-26850D01*
X44960Y-26968D02*
X44842Y-26968D01*
X44842Y-26968D02*
X44842Y-27086D01*
X44960Y-27086D02*
X44842Y-27086D01*
X44960Y-26968D02*
X44960Y-27086D01*
X44970Y-27136D02*
X44881Y-27136D01*
X44881Y-27136D02*
X44881Y-27165D01*
X44970Y-27165D02*
X44881Y-27165D01*
X44970Y-27136D02*
X44970Y-27165D01*
G54D21*
X44498Y-26978D02*
X44498Y-26566D01*
X44950Y-26576D02*
X44950Y-27136D01*
G54D22*
X44929Y-27106D02*
X44928Y-27111D01*
X44926Y-27116D01*
X44924Y-27121D01*
X44920Y-27125D01*
X44916Y-27129D01*
X44911Y-27131D01*
X44906Y-27133D01*
X44901Y-27133D01*
X44896Y-27133D01*
X44891Y-27131D01*
X44886Y-27129D01*
X44882Y-27126D01*
X44878Y-27121D01*
X44876Y-27117D01*
X44874Y-27111D01*
X44874Y-27106D01*
X44874Y-27101D01*
X44875Y-27096D01*
X44878Y-27091D01*
X44881Y-27087D01*
X44886Y-27084D01*
X44890Y-27081D01*
X44895Y-27079D01*
X44901Y-27079D01*
X44905Y-27079D01*
X44911Y-27080D01*
X44916Y-27083D01*
X44920Y-27086D01*
X44923Y-27090D01*
X44926Y-27095D01*
X44928Y-27100D01*
X44928Y-27106D01*
X44929Y-27106D01*
G54D21*
X44861Y-27165D02*
X44860Y-27154D01*
X44858Y-27142D01*
X44856Y-27130D01*
X44852Y-27119D01*
X44848Y-27108D01*
X44842Y-27097D01*
X44836Y-27087D01*
X44828Y-27077D01*
X44820Y-27069D01*
X44812Y-27061D01*
X44802Y-27053D01*
X44792Y-27047D01*
X44781Y-27041D01*
X44770Y-27037D01*
X44759Y-27033D01*
X44747Y-27031D01*
X44735Y-27029D01*
X44724Y-27028D01*
X44713Y-27029D01*
X44701Y-27031D01*
X44689Y-27033D01*
X44678Y-27037D01*
X44667Y-27041D01*
X44656Y-27047D01*
X44646Y-27053D01*
X44636Y-27061D01*
X44628Y-27069D01*
X44620Y-27077D01*
X44612Y-27087D01*
X44606Y-27097D01*
X44600Y-27108D01*
X44596Y-27119D01*
X44592Y-27130D01*
X44590Y-27142D01*
X44588Y-27154D01*
X44587Y-27165D01*
X44587Y-26379D02*
X44588Y-26390D01*
X44590Y-26402D01*
X44592Y-26414D01*
X44596Y-26425D01*
X44600Y-26436D01*
X44606Y-26447D01*
X44612Y-26457D01*
X44620Y-26467D01*
X44628Y-26475D01*
X44636Y-26483D01*
X44646Y-26491D01*
X44656Y-26497D01*
X44667Y-26503D01*
X44678Y-26507D01*
X44689Y-26511D01*
X44701Y-26513D01*
X44713Y-26515D01*
X44724Y-26516D01*
X44735Y-26515D01*
X44747Y-26513D01*
X44759Y-26511D01*
X44770Y-26507D01*
X44781Y-26503D01*
X44792Y-26497D01*
X44802Y-26491D01*
X44812Y-26483D01*
X44820Y-26475D01*
X44828Y-26467D01*
X44836Y-26457D01*
X44842Y-26447D01*
X44848Y-26436D01*
X44852Y-26425D01*
X44856Y-26414D01*
X44858Y-26402D01*
X44860Y-26390D01*
X44861Y-26379D01*
G54D15*
X58429Y-30984D02*
X58400Y-31275D01*
X58315Y-31555D01*
X58178Y-31814D01*
X57993Y-32040D01*
X57767Y-32227D01*
X57510Y-32366D01*
X57230Y-32453D01*
X56939Y-32483D01*
X56648Y-32457D01*
X56368Y-32374D01*
X56108Y-32239D01*
X55880Y-32055D01*
X55692Y-31831D01*
X55551Y-31574D01*
X55462Y-31295D01*
X55430Y-31004D01*
X55454Y-30714D01*
X55535Y-30432D01*
X55669Y-30172D01*
X55850Y-29943D01*
X56073Y-29753D01*
X56329Y-29610D01*
X56607Y-29519D01*
X56898Y-29485D01*
X57189Y-29507D01*
X57471Y-29586D01*
X57732Y-29718D01*
X57963Y-29898D01*
X58154Y-30120D01*
X58299Y-30374D01*
X58391Y-30652D01*
X58428Y-30943D01*
X58429Y-30984D01*
G54D20*
X60937Y-32703D02*
X60625Y-32703D01*
X60625Y-32703D02*
X60625Y-33203D01*
X60937Y-33203D02*
X60625Y-33203D01*
X60937Y-32703D02*
X60937Y-33203D01*
X59375Y-32703D02*
X59063Y-32703D01*
X59063Y-32703D02*
X59063Y-33203D01*
X59375Y-33203D02*
X59063Y-33203D01*
X59375Y-32703D02*
X59375Y-33203D01*
G54D17*
X60875Y-33203D02*
X59125Y-33203D01*
X60875Y-32703D02*
X59125Y-32703D01*
X59875Y-32953D02*
X60125Y-33140D01*
X60125Y-33140D02*
X60125Y-32953D01*
X60125Y-32953D02*
X60125Y-32766D01*
X60125Y-32766D02*
X59875Y-32953D01*
X59875Y-32953D02*
X59875Y-33140D01*
X59875Y-32953D02*
X59875Y-32766D01*
X60125Y-32953D02*
X60437Y-32953D01*
X59875Y-32953D02*
X59563Y-32953D01*
G54D15*
X57323Y-29114D02*
X56437Y-29114D01*
X57618Y-29016D02*
X56240Y-29016D01*
X56240Y-29016D02*
X56142Y-28918D01*
X56142Y-28918D02*
X57815Y-28918D01*
X57815Y-28918D02*
X57913Y-28819D01*
X57913Y-28819D02*
X55945Y-28819D01*
X55945Y-28819D02*
X55846Y-28721D01*
X55846Y-28721D02*
X58012Y-28721D01*
X58012Y-28721D02*
X58110Y-28622D01*
X58110Y-28622D02*
X55748Y-28622D01*
X55748Y-28622D02*
X55649Y-28524D01*
X55649Y-28524D02*
X58209Y-28524D01*
X58504Y-27638D02*
X58474Y-27943D01*
X58385Y-28238D01*
X58240Y-28509D01*
X58046Y-28747D01*
X57809Y-28943D01*
X57539Y-29089D01*
X57245Y-29180D01*
X56939Y-29212D01*
X56634Y-29185D01*
X56339Y-29098D01*
X56067Y-28955D01*
X55828Y-28763D01*
X55630Y-28527D01*
X55482Y-28258D01*
X55389Y-27965D01*
X55355Y-27659D01*
X55380Y-27354D01*
X55465Y-27059D01*
X55606Y-26785D01*
X55797Y-26544D01*
X56031Y-26345D01*
X56299Y-26195D01*
X56591Y-26100D01*
X56897Y-26064D01*
X57202Y-26087D01*
X57498Y-26170D01*
X57772Y-26309D01*
X58015Y-26498D01*
X58216Y-26731D01*
X58367Y-26998D01*
X58464Y-27290D01*
X58503Y-27595D01*
X58504Y-27638D01*
X63032Y-29114D02*
X62146Y-29114D01*
X63327Y-29016D02*
X61949Y-29016D01*
X61949Y-29016D02*
X61851Y-28918D01*
X61851Y-28918D02*
X63524Y-28918D01*
X63524Y-28918D02*
X63622Y-28819D01*
X63622Y-28819D02*
X61654Y-28819D01*
X61654Y-28819D02*
X61555Y-28721D01*
X61555Y-28721D02*
X63721Y-28721D01*
X63721Y-28721D02*
X63819Y-28622D01*
X63819Y-28622D02*
X61457Y-28622D01*
X61457Y-28622D02*
X61358Y-28524D01*
X61358Y-28524D02*
X63918Y-28524D01*
X64213Y-27638D02*
X64183Y-27943D01*
X64094Y-28238D01*
X63949Y-28509D01*
X63755Y-28747D01*
X63518Y-28943D01*
X63248Y-29089D01*
X62954Y-29180D01*
X62648Y-29212D01*
X62343Y-29185D01*
X62048Y-29098D01*
X61776Y-28955D01*
X61537Y-28763D01*
X61339Y-28527D01*
X61191Y-28258D01*
X61098Y-27965D01*
X61064Y-27659D01*
X61089Y-27354D01*
X61174Y-27059D01*
X61315Y-26785D01*
X61506Y-26544D01*
X61740Y-26345D01*
X62008Y-26195D01*
X62300Y-26100D01*
X62606Y-26064D01*
X62911Y-26087D01*
X63207Y-26170D01*
X63481Y-26309D01*
X63724Y-26498D01*
X63925Y-26731D01*
X64076Y-26998D01*
X64173Y-27290D01*
X64212Y-27595D01*
X64213Y-27638D01*
G54D20*
X45557Y-27305D02*
X45757Y-27305D01*
X45757Y-27305D02*
X45757Y-27105D01*
X45557Y-27105D02*
X45757Y-27105D01*
X45557Y-27305D02*
X45557Y-27105D01*
X46557Y-27305D02*
X46757Y-27305D01*
X46757Y-27305D02*
X46757Y-27105D01*
X46557Y-27105D02*
X46757Y-27105D01*
X46557Y-27305D02*
X46557Y-27105D01*
X47557Y-27305D02*
X47757Y-27305D01*
X47757Y-27305D02*
X47757Y-27105D01*
X47557Y-27105D02*
X47757Y-27105D01*
X47557Y-27305D02*
X47557Y-27105D01*
X52557Y-27305D02*
X52757Y-27305D01*
X52757Y-27305D02*
X52757Y-27105D01*
X52557Y-27105D02*
X52757Y-27105D01*
X52557Y-27305D02*
X52557Y-27105D01*
X53557Y-27305D02*
X53757Y-27305D01*
X53757Y-27305D02*
X53757Y-27105D01*
X53557Y-27105D02*
X53757Y-27105D01*
X53557Y-27305D02*
X53557Y-27105D01*
X54557Y-27305D02*
X54757Y-27305D01*
X54757Y-27305D02*
X54757Y-27105D01*
X54557Y-27105D02*
X54757Y-27105D01*
X54557Y-27305D02*
X54557Y-27105D01*
X48557Y-27305D02*
X48757Y-27305D01*
X48757Y-27305D02*
X48757Y-27105D01*
X48557Y-27105D02*
X48757Y-27105D01*
X48557Y-27305D02*
X48557Y-27105D01*
X51557Y-27305D02*
X51757Y-27305D01*
X51757Y-27305D02*
X51757Y-27105D01*
X51557Y-27105D02*
X51757Y-27105D01*
X51557Y-27305D02*
X51557Y-27105D01*
X50557Y-27305D02*
X50757Y-27305D01*
X50757Y-27305D02*
X50757Y-27105D01*
X50557Y-27105D02*
X50757Y-27105D01*
X50557Y-27305D02*
X50557Y-27105D01*
X49557Y-27305D02*
X49757Y-27305D01*
X49757Y-27305D02*
X49757Y-27105D01*
X49557Y-27105D02*
X49757Y-27105D01*
X49557Y-27305D02*
X49557Y-27105D01*
G54D17*
X45657Y-26205D02*
X45657Y-26055D01*
G54D23*
X45157Y-27205D02*
X45157Y-26055D01*
X45157Y-26055D02*
X45657Y-26055D01*
X45657Y-26055D02*
X45757Y-26055D01*
X45757Y-26055D02*
X47657Y-26055D01*
X47657Y-26055D02*
X48157Y-26055D01*
X55157Y-27205D02*
X55157Y-26055D01*
X55157Y-26055D02*
X48157Y-26055D01*
X45157Y-27205D02*
X45157Y-28355D01*
X45157Y-28355D02*
X48107Y-28355D01*
X55157Y-27205D02*
X55157Y-28355D01*
G54D17*
X55157Y-28355D02*
X48107Y-28355D01*
G54D23*
X45257Y-28355D02*
X45407Y-28355D01*
X45407Y-28355D02*
X45407Y-28105D01*
X45407Y-28105D02*
X45907Y-28105D01*
X45907Y-28105D02*
X45907Y-28355D01*
X45907Y-28355D02*
X46407Y-28355D01*
X46407Y-28355D02*
X46407Y-28105D01*
X46407Y-28105D02*
X46907Y-28105D01*
X46907Y-28105D02*
X46907Y-28355D01*
X46907Y-28355D02*
X47407Y-28355D01*
X47407Y-28355D02*
X47407Y-28105D01*
X47407Y-28105D02*
X47907Y-28105D01*
X47907Y-28105D02*
X47907Y-28355D01*
X47907Y-28355D02*
X52407Y-28355D01*
X52407Y-28355D02*
X52407Y-28105D01*
X52407Y-28105D02*
X52907Y-28105D01*
X52907Y-28105D02*
X52907Y-28355D01*
X52907Y-28355D02*
X53407Y-28355D01*
X53407Y-28355D02*
X53407Y-28105D01*
X53407Y-28105D02*
X53907Y-28105D01*
X53907Y-28105D02*
X53907Y-28355D01*
X53907Y-28355D02*
X54407Y-28355D01*
X54407Y-28355D02*
X54407Y-28105D01*
X54407Y-28105D02*
X54907Y-28105D01*
X54907Y-28105D02*
X54907Y-28355D01*
X54907Y-28355D02*
X55157Y-28355D01*
X45657Y-26455D02*
X45657Y-26055D01*
X45657Y-26455D02*
X45757Y-26455D01*
X45757Y-26455D02*
X47657Y-26455D01*
X47657Y-26455D02*
X47657Y-26055D01*
X52657Y-26455D02*
X52657Y-26055D01*
X52657Y-26455D02*
X54557Y-26455D01*
X54557Y-26455D02*
X54657Y-26455D01*
X54657Y-26455D02*
X54657Y-26055D01*
X45657Y-26455D02*
X45757Y-26655D01*
X45757Y-26655D02*
X47557Y-26655D01*
X47557Y-26655D02*
X47657Y-26455D01*
X45757Y-26055D02*
X45757Y-26455D01*
X52657Y-26455D02*
X52757Y-26655D01*
X52757Y-26655D02*
X54557Y-26655D01*
X54557Y-26655D02*
X54657Y-26455D01*
X54557Y-26055D02*
X54557Y-26455D01*
X48407Y-28355D02*
X48407Y-28105D01*
X48407Y-28105D02*
X48907Y-28105D01*
X48907Y-28105D02*
X48907Y-28355D01*
X51407Y-28355D02*
X51407Y-28105D01*
X51407Y-28105D02*
X51907Y-28105D01*
X51907Y-28105D02*
X51907Y-28355D01*
X49407Y-28355D02*
X49407Y-28105D01*
X49407Y-28105D02*
X49907Y-28105D01*
X49907Y-28105D02*
X49907Y-28355D01*
X50407Y-28355D02*
X50407Y-28105D01*
X50407Y-28105D02*
X50907Y-28105D01*
X50907Y-28105D02*
X50907Y-28355D01*
G54D20*
X36635Y-34175D02*
X36635Y-33975D01*
X36635Y-33975D02*
X36435Y-33975D01*
X36435Y-34175D02*
X36435Y-33975D01*
X36635Y-34175D02*
X36435Y-34175D01*
X36635Y-33175D02*
X36635Y-32975D01*
X36635Y-32975D02*
X36435Y-32975D01*
X36435Y-33175D02*
X36435Y-32975D01*
X36635Y-33175D02*
X36435Y-33175D01*
X36635Y-32175D02*
X36635Y-31975D01*
X36635Y-31975D02*
X36435Y-31975D01*
X36435Y-32175D02*
X36435Y-31975D01*
X36635Y-32175D02*
X36435Y-32175D01*
X36635Y-31175D02*
X36635Y-30975D01*
X36635Y-30975D02*
X36435Y-30975D01*
X36435Y-31175D02*
X36435Y-30975D01*
X36635Y-31175D02*
X36435Y-31175D01*
X36635Y-30175D02*
X36635Y-29975D01*
X36635Y-29975D02*
X36435Y-29975D01*
X36435Y-30175D02*
X36435Y-29975D01*
X36635Y-30175D02*
X36435Y-30175D01*
X36635Y-29175D02*
X36635Y-28975D01*
X36635Y-28975D02*
X36435Y-28975D01*
X36435Y-29175D02*
X36435Y-28975D01*
X36635Y-29175D02*
X36435Y-29175D01*
G54D17*
X35535Y-34075D02*
X35385Y-34075D01*
G54D23*
X36535Y-34575D02*
X35385Y-34575D01*
X35385Y-34575D02*
X35385Y-34075D01*
X35385Y-34075D02*
X35385Y-33975D01*
X35385Y-33975D02*
X35385Y-31575D01*
X36535Y-28575D02*
X35385Y-28575D01*
X35385Y-28575D02*
X35385Y-31575D01*
X36535Y-34575D02*
X37685Y-34575D01*
X37685Y-34575D02*
X37685Y-31625D01*
X36535Y-28575D02*
X37685Y-28575D01*
X37685Y-28575D02*
X37685Y-31625D01*
X37685Y-34475D02*
X37685Y-34325D01*
X37685Y-34325D02*
X37435Y-34325D01*
X37435Y-34325D02*
X37435Y-33825D01*
X37435Y-33825D02*
X37685Y-33825D01*
X37685Y-33825D02*
X37685Y-33325D01*
X37685Y-33325D02*
X37435Y-33325D01*
X37435Y-33325D02*
X37435Y-32825D01*
X37435Y-32825D02*
X37685Y-32825D01*
X37685Y-32825D02*
X37685Y-32325D01*
X37685Y-32325D02*
X37435Y-32325D01*
X37435Y-32325D02*
X37435Y-31825D01*
X37435Y-31825D02*
X37685Y-31825D01*
X37685Y-31825D02*
X37685Y-31325D01*
X37685Y-31325D02*
X37435Y-31325D01*
X37435Y-31325D02*
X37435Y-30825D01*
X37435Y-30825D02*
X37685Y-30825D01*
X37685Y-30825D02*
X37685Y-30325D01*
X37685Y-30325D02*
X37435Y-30325D01*
X37435Y-30325D02*
X37435Y-29825D01*
X37435Y-29825D02*
X37685Y-29825D01*
X37685Y-29825D02*
X37685Y-29325D01*
X37685Y-29325D02*
X37435Y-29325D01*
X37435Y-29325D02*
X37435Y-28825D01*
X37435Y-28825D02*
X37685Y-28825D01*
X37685Y-28825D02*
X37685Y-28575D01*
X35785Y-34075D02*
X35385Y-34075D01*
X35785Y-34075D02*
X35785Y-33975D01*
X35785Y-33975D02*
X35785Y-29175D01*
X35785Y-29175D02*
X35785Y-29075D01*
X35785Y-29075D02*
X35385Y-29075D01*
X35785Y-34075D02*
X35985Y-33975D01*
X35385Y-33975D02*
X35785Y-33975D01*
X35985Y-33975D02*
X35985Y-29175D01*
X35985Y-29175D02*
X35785Y-29075D01*
X35385Y-29175D02*
X35785Y-29175D01*
G54D20*
X67262Y-31435D02*
X67262Y-31635D01*
X67262Y-31635D02*
X67462Y-31635D01*
X67462Y-31435D02*
X67462Y-31635D01*
X67262Y-31435D02*
X67462Y-31435D01*
X67262Y-32435D02*
X67262Y-32635D01*
X67262Y-32635D02*
X67462Y-32635D01*
X67462Y-32435D02*
X67462Y-32635D01*
X67262Y-32435D02*
X67462Y-32435D01*
X67262Y-33435D02*
X67262Y-33635D01*
X67262Y-33635D02*
X67462Y-33635D01*
X67462Y-33435D02*
X67462Y-33635D01*
X67262Y-33435D02*
X67462Y-33435D01*
X67262Y-30435D02*
X67262Y-30635D01*
X67262Y-30635D02*
X67462Y-30635D01*
X67462Y-30435D02*
X67462Y-30635D01*
X67262Y-30435D02*
X67462Y-30435D01*
X67262Y-29435D02*
X67262Y-29635D01*
X67262Y-29635D02*
X67462Y-29635D01*
X67462Y-29435D02*
X67462Y-29635D01*
X67262Y-29435D02*
X67462Y-29435D01*
G54D17*
X68362Y-29535D02*
X68512Y-29535D01*
G54D23*
X67362Y-29035D02*
X68512Y-29035D01*
X68512Y-29035D02*
X68512Y-29535D01*
X68512Y-29535D02*
X68512Y-29635D01*
X68512Y-29635D02*
X68512Y-32035D01*
X67362Y-34035D02*
X68512Y-34035D01*
X68512Y-34035D02*
X68512Y-32035D01*
X67362Y-29035D02*
X66212Y-29035D01*
X66212Y-29035D02*
X66212Y-32035D01*
X67362Y-34035D02*
X66212Y-34035D01*
X66212Y-33785D02*
X66212Y-33285D01*
X66212Y-32785D02*
X66212Y-32285D01*
X66212Y-29135D02*
X66212Y-29285D01*
X66212Y-29285D02*
X66462Y-29285D01*
X66462Y-29285D02*
X66462Y-29785D01*
X66462Y-29785D02*
X66212Y-29785D01*
X66212Y-29785D02*
X66212Y-30285D01*
X66212Y-30285D02*
X66462Y-30285D01*
X66462Y-30285D02*
X66462Y-30785D01*
X66462Y-30785D02*
X66212Y-30785D01*
X66212Y-30785D02*
X66212Y-31285D01*
X66212Y-31285D02*
X66462Y-31285D01*
X66462Y-31285D02*
X66462Y-31785D01*
X66462Y-31785D02*
X66212Y-31785D01*
X66212Y-31785D02*
X66212Y-31285D01*
X66212Y-31785D02*
X66212Y-32285D01*
X66212Y-32785D02*
X66212Y-33285D01*
X66212Y-33785D02*
X66212Y-34035D01*
X68112Y-29535D02*
X68512Y-29535D01*
X68112Y-29535D02*
X68112Y-29635D01*
X68112Y-29635D02*
X68112Y-33435D01*
X68112Y-33435D02*
X68112Y-33535D01*
X68112Y-33535D02*
X68512Y-33535D01*
X68112Y-29535D02*
X67912Y-29635D01*
X68512Y-29635D02*
X68112Y-29635D01*
X67912Y-29635D02*
X67912Y-33435D01*
X67912Y-33435D02*
X68112Y-33535D01*
X68512Y-33435D02*
X68112Y-33435D01*
X66212Y-32285D02*
X66462Y-32285D01*
X66462Y-32285D02*
X66462Y-32785D01*
X66462Y-32785D02*
X66212Y-32785D01*
X66212Y-33285D02*
X66462Y-33285D01*
X66462Y-33285D02*
X66462Y-33785D01*
X66462Y-33785D02*
X66212Y-33785D01*
G54D20*
X59549Y-38876D02*
X59349Y-38876D01*
X59349Y-38876D02*
X59349Y-39076D01*
X59549Y-39076D02*
X59349Y-39076D01*
X59549Y-38876D02*
X59549Y-39076D01*
X58549Y-38876D02*
X58349Y-38876D01*
X58349Y-38876D02*
X58349Y-39076D01*
X58549Y-39076D02*
X58349Y-39076D01*
X58549Y-38876D02*
X58549Y-39076D01*
X57549Y-38876D02*
X57349Y-38876D01*
X57349Y-38876D02*
X57349Y-39076D01*
X57549Y-39076D02*
X57349Y-39076D01*
X57549Y-38876D02*
X57549Y-39076D01*
X60549Y-38876D02*
X60349Y-38876D01*
X60349Y-38876D02*
X60349Y-39076D01*
X60549Y-39076D02*
X60349Y-39076D01*
X60549Y-38876D02*
X60549Y-39076D01*
X61549Y-38876D02*
X61349Y-38876D01*
X61349Y-38876D02*
X61349Y-39076D01*
X61549Y-39076D02*
X61349Y-39076D01*
X61549Y-38876D02*
X61549Y-39076D01*
G54D17*
X61449Y-39976D02*
X61449Y-40126D01*
G54D23*
X61949Y-38976D02*
X61949Y-40126D01*
X61949Y-40126D02*
X61449Y-40126D01*
X61449Y-40126D02*
X61349Y-40126D01*
X61349Y-40126D02*
X58949Y-40126D01*
X56949Y-38976D02*
X56949Y-40126D01*
X56949Y-40126D02*
X58949Y-40126D01*
X61949Y-38976D02*
X61949Y-37826D01*
X61949Y-37826D02*
X58949Y-37826D01*
X56949Y-38976D02*
X56949Y-37826D01*
X57199Y-37826D02*
X57699Y-37826D01*
X58199Y-37826D02*
X58699Y-37826D01*
X61849Y-37826D02*
X61699Y-37826D01*
X61699Y-37826D02*
X61699Y-38076D01*
X61699Y-38076D02*
X61199Y-38076D01*
X61199Y-38076D02*
X61199Y-37826D01*
X61199Y-37826D02*
X60699Y-37826D01*
X60699Y-37826D02*
X60699Y-38076D01*
X60699Y-38076D02*
X60199Y-38076D01*
X60199Y-38076D02*
X60199Y-37826D01*
X60199Y-37826D02*
X59699Y-37826D01*
X59699Y-37826D02*
X59699Y-38076D01*
X59699Y-38076D02*
X59199Y-38076D01*
X59199Y-38076D02*
X59199Y-37826D01*
X59199Y-37826D02*
X59699Y-37826D01*
X59199Y-37826D02*
X58699Y-37826D01*
X58199Y-37826D02*
X57699Y-37826D01*
X57199Y-37826D02*
X56949Y-37826D01*
X61449Y-39726D02*
X61449Y-40126D01*
X61449Y-39726D02*
X61349Y-39726D01*
X61349Y-39726D02*
X57549Y-39726D01*
X57549Y-39726D02*
X57449Y-39726D01*
X57449Y-39726D02*
X57449Y-40126D01*
X61449Y-39726D02*
X61349Y-39526D01*
X61349Y-40126D02*
X61349Y-39726D01*
X61349Y-39526D02*
X57549Y-39526D01*
X57549Y-39526D02*
X57449Y-39726D01*
X57549Y-40126D02*
X57549Y-39726D01*
X58699Y-37826D02*
X58699Y-38076D01*
X58699Y-38076D02*
X58199Y-38076D01*
X58199Y-38076D02*
X58199Y-37826D01*
X57699Y-37826D02*
X57699Y-38076D01*
X57699Y-38076D02*
X57199Y-38076D01*
X57199Y-38076D02*
X57199Y-37826D01*
G54D20*
X42100Y-46400D02*
X41900Y-46400D01*
X41900Y-46400D02*
X41900Y-46600D01*
X42100Y-46600D02*
X41900Y-46600D01*
X42100Y-46400D02*
X42100Y-46600D01*
X41100Y-46400D02*
X40900Y-46400D01*
X40900Y-46400D02*
X40900Y-46600D01*
X41100Y-46600D02*
X40900Y-46600D01*
X41100Y-46400D02*
X41100Y-46600D01*
X40100Y-46400D02*
X39900Y-46400D01*
X39900Y-46400D02*
X39900Y-46600D01*
X40100Y-46600D02*
X39900Y-46600D01*
X40100Y-46400D02*
X40100Y-46600D01*
X39100Y-46400D02*
X38900Y-46400D01*
X38900Y-46400D02*
X38900Y-46600D01*
X39100Y-46600D02*
X38900Y-46600D01*
X39100Y-46400D02*
X39100Y-46600D01*
G54D17*
X42000Y-47500D02*
X42000Y-47650D01*
G54D23*
X42500Y-46500D02*
X42500Y-47650D01*
X42500Y-47650D02*
X42000Y-47650D01*
G54D17*
X41900Y-47650D02*
X42000Y-47650D01*
G54D23*
X42000Y-47650D02*
X41500Y-47650D01*
X38500Y-46500D02*
X38500Y-47650D01*
X38500Y-47650D02*
X41500Y-47650D01*
X42500Y-46500D02*
X42500Y-45350D01*
G54D17*
X42500Y-45350D02*
X41550Y-45350D01*
G54D23*
X38500Y-46500D02*
X38500Y-45350D01*
X38500Y-45350D02*
X41550Y-45350D01*
X42400Y-45350D02*
X42250Y-45350D01*
X42250Y-45350D02*
X42250Y-45600D01*
X42250Y-45600D02*
X41750Y-45600D01*
X41750Y-45600D02*
X41750Y-45350D01*
X41250Y-45350D02*
X41250Y-45600D01*
X41250Y-45600D02*
X40750Y-45600D01*
X40750Y-45600D02*
X40750Y-45350D01*
X40750Y-45350D02*
X42250Y-45350D01*
X41750Y-45350D02*
X41250Y-45350D01*
X40750Y-45350D02*
X40250Y-45350D01*
X40250Y-45350D02*
X40250Y-45600D01*
X40250Y-45600D02*
X39750Y-45600D01*
X39750Y-45600D02*
X39750Y-45350D01*
X39750Y-45350D02*
X39250Y-45350D01*
X39250Y-45350D02*
X39250Y-45600D01*
X39250Y-45600D02*
X38750Y-45600D01*
X38750Y-45600D02*
X38750Y-45350D01*
X38750Y-45350D02*
X38500Y-45350D01*
X42000Y-47250D02*
X42000Y-47650D01*
X42000Y-47250D02*
X41900Y-47250D01*
X41900Y-47250D02*
X39100Y-47250D01*
X39100Y-47250D02*
X39000Y-47250D01*
X39000Y-47250D02*
X39000Y-47650D01*
X42000Y-47250D02*
X41900Y-47050D01*
X41900Y-47650D02*
X41900Y-47250D01*
X41900Y-47050D02*
X39100Y-47050D01*
X39100Y-47050D02*
X39000Y-47250D01*
X39100Y-47650D02*
X39100Y-47250D01*
G54D20*
X46100Y-46400D02*
X45900Y-46400D01*
X45900Y-46400D02*
X45900Y-46600D01*
X46100Y-46600D02*
X45900Y-46600D01*
X46100Y-46400D02*
X46100Y-46600D01*
X45100Y-46400D02*
X44900Y-46400D01*
X44900Y-46400D02*
X44900Y-46600D01*
X45100Y-46600D02*
X44900Y-46600D01*
X45100Y-46400D02*
X45100Y-46600D01*
X44100Y-46400D02*
X43900Y-46400D01*
X43900Y-46400D02*
X43900Y-46600D01*
X44100Y-46600D02*
X43900Y-46600D01*
X44100Y-46400D02*
X44100Y-46600D01*
X43100Y-46400D02*
X42900Y-46400D01*
X42900Y-46400D02*
X42900Y-46600D01*
X43100Y-46600D02*
X42900Y-46600D01*
X43100Y-46400D02*
X43100Y-46600D01*
G54D17*
X46000Y-47500D02*
X46000Y-47650D01*
G54D23*
X46500Y-46500D02*
X46500Y-47650D01*
X46500Y-47650D02*
X46000Y-47650D01*
G54D17*
X45900Y-47650D02*
X46000Y-47650D01*
G54D23*
X46000Y-47650D02*
X45500Y-47650D01*
X42500Y-46500D02*
X42500Y-47650D01*
X42500Y-47650D02*
X45500Y-47650D01*
X46500Y-46500D02*
X46500Y-45350D01*
G54D17*
X46500Y-45350D02*
X45550Y-45350D01*
G54D23*
X42500Y-46500D02*
X42500Y-45350D01*
X42500Y-45350D02*
X45550Y-45350D01*
X46400Y-45350D02*
X46250Y-45350D01*
X46250Y-45350D02*
X46250Y-45600D01*
X46250Y-45600D02*
X45750Y-45600D01*
X45750Y-45600D02*
X45750Y-45350D01*
X45250Y-45350D02*
X45250Y-45600D01*
X45250Y-45600D02*
X44750Y-45600D01*
X44750Y-45600D02*
X44750Y-45350D01*
X44750Y-45350D02*
X46250Y-45350D01*
X45750Y-45350D02*
X45250Y-45350D01*
X44750Y-45350D02*
X44250Y-45350D01*
X44250Y-45350D02*
X44250Y-45600D01*
X44250Y-45600D02*
X43750Y-45600D01*
X43750Y-45600D02*
X43750Y-45350D01*
X43750Y-45350D02*
X43250Y-45350D01*
X43250Y-45350D02*
X43250Y-45600D01*
X43250Y-45600D02*
X42750Y-45600D01*
X42750Y-45600D02*
X42750Y-45350D01*
X42750Y-45350D02*
X42500Y-45350D01*
X46000Y-47250D02*
X46000Y-47650D01*
X46000Y-47250D02*
X45900Y-47250D01*
X45900Y-47250D02*
X43100Y-47250D01*
X43100Y-47250D02*
X43000Y-47250D01*
X43000Y-47250D02*
X43000Y-47650D01*
X46000Y-47250D02*
X45900Y-47050D01*
X45900Y-47650D02*
X45900Y-47250D01*
X45900Y-47050D02*
X43100Y-47050D01*
X43100Y-47050D02*
X43000Y-47250D01*
X43100Y-47650D02*
X43100Y-47250D01*
G54D20*
X50100Y-46400D02*
X49900Y-46400D01*
X49900Y-46400D02*
X49900Y-46600D01*
X50100Y-46600D02*
X49900Y-46600D01*
X50100Y-46400D02*
X50100Y-46600D01*
X49100Y-46400D02*
X48900Y-46400D01*
X48900Y-46400D02*
X48900Y-46600D01*
X49100Y-46600D02*
X48900Y-46600D01*
X49100Y-46400D02*
X49100Y-46600D01*
X48100Y-46400D02*
X47900Y-46400D01*
X47900Y-46400D02*
X47900Y-46600D01*
X48100Y-46600D02*
X47900Y-46600D01*
X48100Y-46400D02*
X48100Y-46600D01*
X47100Y-46400D02*
X46900Y-46400D01*
X46900Y-46400D02*
X46900Y-46600D01*
X47100Y-46600D02*
X46900Y-46600D01*
X47100Y-46400D02*
X47100Y-46600D01*
G54D17*
X50000Y-47500D02*
X50000Y-47650D01*
G54D23*
X50500Y-46500D02*
X50500Y-47650D01*
X50500Y-47650D02*
X50000Y-47650D01*
G54D17*
X49900Y-47650D02*
X50000Y-47650D01*
G54D23*
X50000Y-47650D02*
X49500Y-47650D01*
X46500Y-46500D02*
X46500Y-47650D01*
X46500Y-47650D02*
X49500Y-47650D01*
X50500Y-46500D02*
X50500Y-45350D01*
G54D17*
X50500Y-45350D02*
X49550Y-45350D01*
G54D23*
X46500Y-46500D02*
X46500Y-45350D01*
X46500Y-45350D02*
X49550Y-45350D01*
X50400Y-45350D02*
X50250Y-45350D01*
X50250Y-45350D02*
X50250Y-45600D01*
X50250Y-45600D02*
X49750Y-45600D01*
X49750Y-45600D02*
X49750Y-45350D01*
X49250Y-45350D02*
X49250Y-45600D01*
X49250Y-45600D02*
X48750Y-45600D01*
X48750Y-45600D02*
X48750Y-45350D01*
X48750Y-45350D02*
X50250Y-45350D01*
X49750Y-45350D02*
X49250Y-45350D01*
X48750Y-45350D02*
X48250Y-45350D01*
X48250Y-45350D02*
X48250Y-45600D01*
X48250Y-45600D02*
X47750Y-45600D01*
X47750Y-45600D02*
X47750Y-45350D01*
X47750Y-45350D02*
X47250Y-45350D01*
X47250Y-45350D02*
X47250Y-45600D01*
X47250Y-45600D02*
X46750Y-45600D01*
X46750Y-45600D02*
X46750Y-45350D01*
X46750Y-45350D02*
X46500Y-45350D01*
X50000Y-47250D02*
X50000Y-47650D01*
X50000Y-47250D02*
X49900Y-47250D01*
X49900Y-47250D02*
X47100Y-47250D01*
X47100Y-47250D02*
X47000Y-47250D01*
X47000Y-47250D02*
X47000Y-47650D01*
X50000Y-47250D02*
X49900Y-47050D01*
X49900Y-47650D02*
X49900Y-47250D01*
X49900Y-47050D02*
X47100Y-47050D01*
X47100Y-47050D02*
X47000Y-47250D01*
X47100Y-47650D02*
X47100Y-47250D01*
G54D20*
X61100Y-46400D02*
X60900Y-46400D01*
X60900Y-46400D02*
X60900Y-46600D01*
X61100Y-46600D02*
X60900Y-46600D01*
X61100Y-46400D02*
X61100Y-46600D01*
X60100Y-46400D02*
X59900Y-46400D01*
X59900Y-46400D02*
X59900Y-46600D01*
X60100Y-46600D02*
X59900Y-46600D01*
X60100Y-46400D02*
X60100Y-46600D01*
X59100Y-46400D02*
X58900Y-46400D01*
X58900Y-46400D02*
X58900Y-46600D01*
X59100Y-46600D02*
X58900Y-46600D01*
X59100Y-46400D02*
X59100Y-46600D01*
X58100Y-46400D02*
X57900Y-46400D01*
X57900Y-46400D02*
X57900Y-46600D01*
X58100Y-46600D02*
X57900Y-46600D01*
X58100Y-46400D02*
X58100Y-46600D01*
G54D17*
X61000Y-47500D02*
X61000Y-47650D01*
G54D23*
X61500Y-46500D02*
X61500Y-47650D01*
X61500Y-47650D02*
X61000Y-47650D01*
G54D17*
X60900Y-47650D02*
X61000Y-47650D01*
G54D23*
X61000Y-47650D02*
X60500Y-47650D01*
X57500Y-46500D02*
X57500Y-47650D01*
X57500Y-47650D02*
X60500Y-47650D01*
X61500Y-46500D02*
X61500Y-45350D01*
G54D17*
X61500Y-45350D02*
X60550Y-45350D01*
G54D23*
X57500Y-46500D02*
X57500Y-45350D01*
X57500Y-45350D02*
X60550Y-45350D01*
X61400Y-45350D02*
X61250Y-45350D01*
X61250Y-45350D02*
X61250Y-45600D01*
X61250Y-45600D02*
X60750Y-45600D01*
X60750Y-45600D02*
X60750Y-45350D01*
X60250Y-45350D02*
X60250Y-45600D01*
X60250Y-45600D02*
X59750Y-45600D01*
X59750Y-45600D02*
X59750Y-45350D01*
X59750Y-45350D02*
X61250Y-45350D01*
X60750Y-45350D02*
X60250Y-45350D01*
X59750Y-45350D02*
X59250Y-45350D01*
X59250Y-45350D02*
X59250Y-45600D01*
X59250Y-45600D02*
X58750Y-45600D01*
X58750Y-45600D02*
X58750Y-45350D01*
X58750Y-45350D02*
X58250Y-45350D01*
X58250Y-45350D02*
X58250Y-45600D01*
X58250Y-45600D02*
X57750Y-45600D01*
X57750Y-45600D02*
X57750Y-45350D01*
X57750Y-45350D02*
X57500Y-45350D01*
X61000Y-47250D02*
X61000Y-47650D01*
X61000Y-47250D02*
X60900Y-47250D01*
X60900Y-47250D02*
X58100Y-47250D01*
X58100Y-47250D02*
X58000Y-47250D01*
X58000Y-47250D02*
X58000Y-47650D01*
X61000Y-47250D02*
X60900Y-47050D01*
X60900Y-47650D02*
X60900Y-47250D01*
X60900Y-47050D02*
X58100Y-47050D01*
X58100Y-47050D02*
X58000Y-47250D01*
X58100Y-47650D02*
X58100Y-47250D01*
G54D20*
X65100Y-46400D02*
X64900Y-46400D01*
X64900Y-46400D02*
X64900Y-46600D01*
X65100Y-46600D02*
X64900Y-46600D01*
X65100Y-46400D02*
X65100Y-46600D01*
X64100Y-46400D02*
X63900Y-46400D01*
X63900Y-46400D02*
X63900Y-46600D01*
X64100Y-46600D02*
X63900Y-46600D01*
X64100Y-46400D02*
X64100Y-46600D01*
X63100Y-46400D02*
X62900Y-46400D01*
X62900Y-46400D02*
X62900Y-46600D01*
X63100Y-46600D02*
X62900Y-46600D01*
X63100Y-46400D02*
X63100Y-46600D01*
X62100Y-46400D02*
X61900Y-46400D01*
X61900Y-46400D02*
X61900Y-46600D01*
X62100Y-46600D02*
X61900Y-46600D01*
X62100Y-46400D02*
X62100Y-46600D01*
G54D17*
X65000Y-47500D02*
X65000Y-47650D01*
G54D23*
X65500Y-46500D02*
X65500Y-47650D01*
X65500Y-47650D02*
X65000Y-47650D01*
G54D17*
X64900Y-47650D02*
X65000Y-47650D01*
G54D23*
X65000Y-47650D02*
X64500Y-47650D01*
X61500Y-46500D02*
X61500Y-47650D01*
X61500Y-47650D02*
X64500Y-47650D01*
X65500Y-46500D02*
X65500Y-45350D01*
G54D17*
X65500Y-45350D02*
X64550Y-45350D01*
G54D23*
X61500Y-46500D02*
X61500Y-45350D01*
X61500Y-45350D02*
X64550Y-45350D01*
X65400Y-45350D02*
X65250Y-45350D01*
X65250Y-45350D02*
X65250Y-45600D01*
X65250Y-45600D02*
X64750Y-45600D01*
X64750Y-45600D02*
X64750Y-45350D01*
X64250Y-45350D02*
X64250Y-45600D01*
X64250Y-45600D02*
X63750Y-45600D01*
X63750Y-45600D02*
X63750Y-45350D01*
X63750Y-45350D02*
X65250Y-45350D01*
X64750Y-45350D02*
X64250Y-45350D01*
X63750Y-45350D02*
X63250Y-45350D01*
X63250Y-45350D02*
X63250Y-45600D01*
X63250Y-45600D02*
X62750Y-45600D01*
X62750Y-45600D02*
X62750Y-45350D01*
X62750Y-45350D02*
X62250Y-45350D01*
X62250Y-45350D02*
X62250Y-45600D01*
X62250Y-45600D02*
X61750Y-45600D01*
X61750Y-45600D02*
X61750Y-45350D01*
X61750Y-45350D02*
X61500Y-45350D01*
X65000Y-47250D02*
X65000Y-47650D01*
X65000Y-47250D02*
X64900Y-47250D01*
X64900Y-47250D02*
X62100Y-47250D01*
X62100Y-47250D02*
X62000Y-47250D01*
X62000Y-47250D02*
X62000Y-47650D01*
X65000Y-47250D02*
X64900Y-47050D01*
X64900Y-47650D02*
X64900Y-47250D01*
X64900Y-47050D02*
X62100Y-47050D01*
X62100Y-47050D02*
X62000Y-47250D01*
X62100Y-47650D02*
X62100Y-47250D01*
G54D20*
X67100Y-46400D02*
X66900Y-46400D01*
X66900Y-46400D02*
X66900Y-46600D01*
X67100Y-46600D02*
X66900Y-46600D01*
X67100Y-46400D02*
X67100Y-46600D01*
X66100Y-46400D02*
X65900Y-46400D01*
X65900Y-46400D02*
X65900Y-46600D01*
X66100Y-46600D02*
X65900Y-46600D01*
X66100Y-46400D02*
X66100Y-46600D01*
G54D17*
X67000Y-47500D02*
X67000Y-47650D01*
G54D23*
X67500Y-46500D02*
X67500Y-47650D01*
X67500Y-47650D02*
X67000Y-47650D01*
G54D17*
X66900Y-47650D02*
X67000Y-47650D01*
G54D23*
X67000Y-47650D02*
X66500Y-47650D01*
X65500Y-46500D02*
X65500Y-47650D01*
G54D17*
X65500Y-47650D02*
X66500Y-47650D01*
G54D23*
X67500Y-46500D02*
X67500Y-45350D01*
X67500Y-45350D02*
X66500Y-45350D01*
X65500Y-46500D02*
X65500Y-45350D01*
G54D17*
X65500Y-45350D02*
X65750Y-45350D01*
G54D23*
X65750Y-45350D02*
X66250Y-45350D01*
G54D17*
X66250Y-45350D02*
X66500Y-45350D01*
X67400Y-45350D02*
X67250Y-45350D01*
G54D23*
X67500Y-45350D02*
X67250Y-45350D01*
X67250Y-45350D02*
X67250Y-45600D01*
X67250Y-45600D02*
X66750Y-45600D01*
X66750Y-45600D02*
X66750Y-45350D01*
X66750Y-45350D02*
X66250Y-45350D01*
X66250Y-45350D02*
X66250Y-45600D01*
X66250Y-45600D02*
X65750Y-45600D01*
X65750Y-45600D02*
X65750Y-45350D01*
X65750Y-45350D02*
X65500Y-45350D01*
X67000Y-47250D02*
X67000Y-47650D01*
X67000Y-47250D02*
X66900Y-47250D01*
X66900Y-47250D02*
X66100Y-47250D01*
X66100Y-47250D02*
X66000Y-47250D01*
X66000Y-47250D02*
X66000Y-47650D01*
X67000Y-47250D02*
X66900Y-47050D01*
X66900Y-47650D02*
X66900Y-47250D01*
X66900Y-47050D02*
X66100Y-47050D01*
X66100Y-47050D02*
X66000Y-47250D01*
X66100Y-47650D02*
X66100Y-47250D01*
G54D20*
X64124Y-35927D02*
X64324Y-35927D01*
X64324Y-35927D02*
X64324Y-35727D01*
X64124Y-35727D02*
X64324Y-35727D01*
X64124Y-35927D02*
X64124Y-35727D01*
X65124Y-35927D02*
X65324Y-35927D01*
X65324Y-35927D02*
X65324Y-35727D01*
X65124Y-35727D02*
X65324Y-35727D01*
X65124Y-35927D02*
X65124Y-35727D01*
G54D17*
X64224Y-34827D02*
X64224Y-34677D01*
G54D23*
X63724Y-35827D02*
X63724Y-34677D01*
X63724Y-34677D02*
X64224Y-34677D01*
G54D17*
X64324Y-34677D02*
X64224Y-34677D01*
G54D23*
X64224Y-34677D02*
X64724Y-34677D01*
X65724Y-35827D02*
X65724Y-34677D01*
G54D17*
X65724Y-34677D02*
X64724Y-34677D01*
G54D23*
X63724Y-35827D02*
X63724Y-36977D01*
X63724Y-36977D02*
X64724Y-36977D01*
X65724Y-35827D02*
X65724Y-36977D01*
G54D17*
X65724Y-36977D02*
X65474Y-36977D01*
G54D23*
X65474Y-36977D02*
X64974Y-36977D01*
G54D17*
X64974Y-36977D02*
X64724Y-36977D01*
X63824Y-36977D02*
X63974Y-36977D01*
G54D23*
X63724Y-36977D02*
X63974Y-36977D01*
X63974Y-36977D02*
X63974Y-36727D01*
X63974Y-36727D02*
X64474Y-36727D01*
X64474Y-36727D02*
X64474Y-36977D01*
X64474Y-36977D02*
X64974Y-36977D01*
X64974Y-36977D02*
X64974Y-36727D01*
X64974Y-36727D02*
X65474Y-36727D01*
X65474Y-36727D02*
X65474Y-36977D01*
X65474Y-36977D02*
X65724Y-36977D01*
X64224Y-35077D02*
X64224Y-34677D01*
X64224Y-35077D02*
X64324Y-35077D01*
X64324Y-35077D02*
X65124Y-35077D01*
X65124Y-35077D02*
X65224Y-35077D01*
X65224Y-35077D02*
X65224Y-34677D01*
X64224Y-35077D02*
X64324Y-35277D01*
X64324Y-34677D02*
X64324Y-35077D01*
X64324Y-35277D02*
X65124Y-35277D01*
X65124Y-35277D02*
X65224Y-35077D01*
X65124Y-34677D02*
X65124Y-35077D01*
G54D20*
X59549Y-35727D02*
X59349Y-35727D01*
X59349Y-35727D02*
X59349Y-35927D01*
X59549Y-35927D02*
X59349Y-35927D01*
X59549Y-35727D02*
X59549Y-35927D01*
X58549Y-35727D02*
X58349Y-35727D01*
X58349Y-35727D02*
X58349Y-35927D01*
X58549Y-35927D02*
X58349Y-35927D01*
X58549Y-35727D02*
X58549Y-35927D01*
X57549Y-35727D02*
X57349Y-35727D01*
X57349Y-35727D02*
X57349Y-35927D01*
X57549Y-35927D02*
X57349Y-35927D01*
X57549Y-35727D02*
X57549Y-35927D01*
X60549Y-35727D02*
X60349Y-35727D01*
X60349Y-35727D02*
X60349Y-35927D01*
X60549Y-35927D02*
X60349Y-35927D01*
X60549Y-35727D02*
X60549Y-35927D01*
X61549Y-35727D02*
X61349Y-35727D01*
X61349Y-35727D02*
X61349Y-35927D01*
X61549Y-35927D02*
X61349Y-35927D01*
X61549Y-35727D02*
X61549Y-35927D01*
G54D17*
X61449Y-36827D02*
X61449Y-36977D01*
G54D23*
X61949Y-35827D02*
X61949Y-36977D01*
X61949Y-36977D02*
X61449Y-36977D01*
X61449Y-36977D02*
X61349Y-36977D01*
X61349Y-36977D02*
X58949Y-36977D01*
X56949Y-35827D02*
X56949Y-36977D01*
X56949Y-36977D02*
X58949Y-36977D01*
X61949Y-35827D02*
X61949Y-34677D01*
X61949Y-34677D02*
X58949Y-34677D01*
X56949Y-35827D02*
X56949Y-34677D01*
X57199Y-34677D02*
X57699Y-34677D01*
X58199Y-34677D02*
X58699Y-34677D01*
X61849Y-34677D02*
X61699Y-34677D01*
X61699Y-34677D02*
X61699Y-34927D01*
X61699Y-34927D02*
X61199Y-34927D01*
X61199Y-34927D02*
X61199Y-34677D01*
X61199Y-34677D02*
X60699Y-34677D01*
X60699Y-34677D02*
X60699Y-34927D01*
X60699Y-34927D02*
X60199Y-34927D01*
X60199Y-34927D02*
X60199Y-34677D01*
X60199Y-34677D02*
X59699Y-34677D01*
X59699Y-34677D02*
X59699Y-34927D01*
X59699Y-34927D02*
X59199Y-34927D01*
X59199Y-34927D02*
X59199Y-34677D01*
X59199Y-34677D02*
X59699Y-34677D01*
X59199Y-34677D02*
X58699Y-34677D01*
X58199Y-34677D02*
X57699Y-34677D01*
X57199Y-34677D02*
X56949Y-34677D01*
X61449Y-36577D02*
X61449Y-36977D01*
X61449Y-36577D02*
X61349Y-36577D01*
X61349Y-36577D02*
X57549Y-36577D01*
X57549Y-36577D02*
X57449Y-36577D01*
X57449Y-36577D02*
X57449Y-36977D01*
X61449Y-36577D02*
X61349Y-36377D01*
X61349Y-36977D02*
X61349Y-36577D01*
X61349Y-36377D02*
X57549Y-36377D01*
X57549Y-36377D02*
X57449Y-36577D01*
X57549Y-36977D02*
X57549Y-36577D01*
X58699Y-34677D02*
X58699Y-34927D01*
X58699Y-34927D02*
X58199Y-34927D01*
X58199Y-34927D02*
X58199Y-34677D01*
X57699Y-34677D02*
X57699Y-34927D01*
X57699Y-34927D02*
X57199Y-34927D01*
X57199Y-34927D02*
X57199Y-34677D01*
G54D24*
G36*
X40618Y-41296D02*
X40638Y-41285D01*
X40685Y-41256D01*
X40750Y-41213D01*
X40828Y-41161D01*
X40906Y-41109D01*
X40970Y-41066D01*
X41015Y-41037D01*
X41034Y-41026D01*
X41044Y-41030D01*
X41081Y-41048D01*
X41135Y-41076D01*
X41166Y-41092D01*
X41215Y-41113D01*
X41240Y-41118D01*
X41244Y-41111D01*
X41262Y-41073D01*
X41290Y-41009D01*
X41327Y-40923D01*
X41370Y-40823D01*
X41415Y-40716D01*
X41461Y-40606D01*
X41505Y-40501D01*
X41543Y-40407D01*
X41574Y-40330D01*
X41594Y-40277D01*
X41602Y-40254D01*
X41600Y-40249D01*
X41575Y-40225D01*
X41532Y-40193D01*
X41439Y-40117D01*
X41347Y-40002D01*
X41291Y-39872D01*
X41272Y-39727D01*
X41288Y-39593D01*
X41341Y-39464D01*
X41431Y-39348D01*
X41540Y-39261D01*
X41668Y-39207D01*
X41811Y-39189D01*
X41948Y-39205D01*
X42080Y-39257D01*
X42196Y-39345D01*
X42245Y-39402D01*
X42313Y-39519D01*
X42351Y-39645D01*
X42355Y-39677D01*
X42350Y-39815D01*
X42309Y-39948D01*
X42236Y-40067D01*
X42134Y-40164D01*
X42122Y-40173D01*
X42075Y-40208D01*
X42043Y-40232D01*
X42019Y-40252D01*
X42195Y-40676D01*
X42223Y-40743D01*
X42271Y-40859D01*
X42314Y-40959D01*
X42347Y-41038D01*
X42371Y-41091D01*
X42381Y-41113D01*
X42382Y-41114D01*
X42398Y-41117D01*
X42430Y-41105D01*
X42489Y-41076D01*
X42528Y-41056D01*
X42573Y-41034D01*
X42594Y-41026D01*
X42611Y-41036D01*
X42654Y-41064D01*
X42717Y-41106D01*
X42793Y-41157D01*
X42865Y-41206D01*
X42931Y-41250D01*
X42980Y-41281D01*
X43003Y-41294D01*
X43007Y-41294D01*
X43028Y-41282D01*
X43066Y-41250D01*
X43124Y-41196D01*
X43205Y-41115D01*
X43218Y-41103D01*
X43285Y-41034D01*
X43339Y-40977D01*
X43376Y-40936D01*
X43389Y-40918D01*
X43389Y-40918D01*
X43377Y-40895D01*
X43347Y-40847D01*
X43303Y-40779D01*
X43249Y-40701D01*
X43109Y-40497D01*
X43186Y-40304D01*
X43209Y-40245D01*
X43239Y-40174D01*
X43262Y-40123D01*
X43273Y-40101D01*
X43294Y-40093D01*
X43347Y-40081D01*
X43423Y-40065D01*
X43514Y-40048D01*
X43601Y-40032D01*
X43679Y-40017D01*
X43736Y-40006D01*
X43761Y-40001D01*
X43767Y-39997D01*
X43773Y-39985D01*
X43776Y-39958D01*
X43778Y-39911D01*
X43779Y-39836D01*
X43779Y-39727D01*
X43779Y-39715D01*
X43778Y-39612D01*
X43776Y-39529D01*
X43773Y-39475D01*
X43770Y-39454D01*
X43769Y-39454D01*
X43745Y-39448D01*
X43690Y-39436D01*
X43611Y-39421D01*
X43518Y-39403D01*
X43512Y-39402D01*
X43419Y-39384D01*
X43341Y-39368D01*
X43286Y-39355D01*
X43263Y-39348D01*
X43258Y-39341D01*
X43240Y-39305D01*
X43213Y-39247D01*
X43182Y-39177D01*
X43152Y-39104D01*
X43125Y-39038D01*
X43108Y-38989D01*
X43102Y-38967D01*
X43103Y-38966D01*
X43117Y-38944D01*
X43149Y-38896D01*
X43194Y-38829D01*
X43248Y-38749D01*
X43252Y-38743D01*
X43306Y-38665D01*
X43349Y-38598D01*
X43378Y-38551D01*
X43389Y-38529D01*
X43389Y-38528D01*
X43371Y-38504D01*
X43331Y-38460D01*
X43274Y-38400D01*
X43205Y-38330D01*
X43183Y-38309D01*
X43106Y-38234D01*
X43053Y-38185D01*
X43020Y-38159D01*
X43004Y-38153D01*
X43004Y-38154D01*
X42980Y-38168D01*
X42930Y-38200D01*
X42863Y-38246D01*
X42783Y-38300D01*
X42777Y-38304D01*
X42699Y-38358D01*
X42633Y-38402D01*
X42587Y-38433D01*
X42566Y-38445D01*
X42563Y-38445D01*
X42531Y-38436D01*
X42475Y-38416D01*
X42406Y-38389D01*
X42333Y-38360D01*
X42267Y-38332D01*
X42217Y-38310D01*
X42194Y-38296D01*
X42193Y-38295D01*
X42185Y-38267D01*
X42171Y-38208D01*
X42155Y-38127D01*
X42136Y-38031D01*
X42133Y-38015D01*
X42116Y-37921D01*
X42101Y-37844D01*
X42090Y-37790D01*
X42084Y-37768D01*
X42071Y-37765D01*
X42025Y-37762D01*
X41955Y-37760D01*
X41870Y-37759D01*
X41781Y-37760D01*
X41694Y-37762D01*
X41620Y-37764D01*
X41567Y-37768D01*
X41545Y-37772D01*
X41544Y-37774D01*
X41536Y-37803D01*
X41523Y-37862D01*
X41506Y-37943D01*
X41488Y-38040D01*
X41484Y-38057D01*
X41467Y-38150D01*
X41451Y-38227D01*
X41440Y-38280D01*
X41434Y-38301D01*
X41425Y-38305D01*
X41387Y-38322D01*
X41324Y-38348D01*
X41246Y-38379D01*
X41066Y-38452D01*
X40845Y-38301D01*
X40825Y-38287D01*
X40745Y-38233D01*
X40680Y-38190D01*
X40635Y-38160D01*
X40616Y-38150D01*
X40614Y-38150D01*
X40592Y-38170D01*
X40549Y-38211D01*
X40489Y-38269D01*
X40419Y-38338D01*
X40368Y-38390D01*
X40307Y-38452D01*
X40268Y-38493D01*
X40247Y-38520D01*
X40240Y-38536D01*
X40242Y-38547D01*
X40256Y-38570D01*
X40288Y-38618D01*
X40334Y-38685D01*
X40388Y-38763D01*
X40432Y-38829D01*
X40480Y-38903D01*
X40511Y-38956D01*
X40522Y-38982D01*
X40519Y-38992D01*
X40504Y-39036D01*
X40477Y-39101D01*
X40444Y-39179D01*
X40367Y-39354D01*
X40253Y-39376D01*
X40183Y-39389D01*
X40086Y-39408D01*
X39993Y-39426D01*
X39848Y-39454D01*
X39843Y-39987D01*
X39865Y-39997D01*
X39887Y-40003D01*
X39941Y-40015D01*
X40017Y-40030D01*
X40108Y-40047D01*
X40185Y-40061D01*
X40263Y-40076D01*
X40319Y-40087D01*
X40343Y-40092D01*
X40350Y-40101D01*
X40369Y-40138D01*
X40397Y-40198D01*
X40428Y-40270D01*
X40459Y-40345D01*
X40486Y-40414D01*
X40505Y-40466D01*
X40513Y-40493D01*
X40502Y-40514D01*
X40473Y-40560D01*
X40430Y-40625D01*
X40377Y-40702D01*
X40324Y-40779D01*
X40279Y-40845D01*
X40248Y-40893D01*
X40235Y-40915D01*
X40242Y-40929D01*
X40273Y-40967D01*
X40331Y-41027D01*
X40418Y-41113D01*
X40432Y-41127D01*
X40501Y-41193D01*
X40559Y-41247D01*
X40600Y-41283D01*
X40618Y-41296D01*
X40618Y-41296D01*
G37*
G54D25*
X56261Y-48470D02*
X55867Y-48470D01*
X55867Y-48320D01*
X55886Y-48283D01*
X55905Y-48264D01*
X55943Y-48245D01*
X55999Y-48245D01*
X56036Y-48264D01*
X56055Y-48283D01*
X56074Y-48320D01*
X56074Y-48470D01*
X56261Y-47870D02*
X56261Y-48095D01*
X56261Y-47982D02*
X55867Y-47982D01*
X55924Y-48020D01*
X55961Y-48057D01*
X55980Y-48095D01*
X56261Y-47495D02*
X56261Y-47720D01*
X56261Y-47607D02*
X55867Y-47607D01*
X55924Y-47645D01*
X55961Y-47682D01*
X55980Y-47720D01*
X53257Y-43834D02*
X53257Y-44228D01*
X53257Y-43853D02*
X53294Y-43834D01*
X53369Y-43834D01*
X53407Y-43853D01*
X53426Y-43871D01*
X53444Y-43909D01*
X53444Y-44021D01*
X53426Y-44059D01*
X53407Y-44078D01*
X53369Y-44096D01*
X53294Y-44096D01*
X53257Y-44078D01*
X53669Y-44096D02*
X53632Y-44078D01*
X53613Y-44059D01*
X53594Y-44021D01*
X53594Y-43909D01*
X53613Y-43871D01*
X53632Y-43853D01*
X53669Y-43834D01*
X53725Y-43834D01*
X53763Y-43853D01*
X53782Y-43871D01*
X53800Y-43909D01*
X53800Y-44021D01*
X53782Y-44059D01*
X53763Y-44078D01*
X53725Y-44096D01*
X53669Y-44096D01*
X53931Y-43834D02*
X54006Y-44096D01*
X54081Y-43909D01*
X54156Y-44096D01*
X54231Y-43834D01*
X54532Y-44078D02*
X54494Y-44096D01*
X54419Y-44096D01*
X54382Y-44078D01*
X54363Y-44040D01*
X54363Y-43890D01*
X54382Y-43853D01*
X54419Y-43834D01*
X54494Y-43834D01*
X54532Y-43853D01*
X54551Y-43890D01*
X54551Y-43928D01*
X54363Y-43965D01*
X54720Y-44096D02*
X54720Y-43834D01*
X54720Y-43909D02*
X54739Y-43871D01*
X54757Y-43853D01*
X54795Y-43834D01*
X54832Y-43834D01*
X53632Y-38663D02*
X53632Y-38269D01*
X54045Y-38626D02*
X54026Y-38645D01*
X53970Y-38663D01*
X53932Y-38663D01*
X53876Y-38645D01*
X53839Y-38607D01*
X53820Y-38570D01*
X53801Y-38495D01*
X53801Y-38438D01*
X53820Y-38363D01*
X53839Y-38326D01*
X53876Y-38288D01*
X53932Y-38269D01*
X53970Y-38269D01*
X54026Y-38288D01*
X54045Y-38307D01*
X54420Y-38663D02*
X54195Y-38663D01*
X54308Y-38663D02*
X54308Y-38269D01*
X54270Y-38326D01*
X54233Y-38363D01*
X54195Y-38382D01*
G54D13*
X53366Y-38977D02*
X53366Y-38780D01*
X53441Y-38780D01*
X53460Y-38790D01*
X53469Y-38799D01*
X53478Y-38818D01*
X53478Y-38846D01*
X53469Y-38865D01*
X53460Y-38874D01*
X53441Y-38883D01*
X53366Y-38883D01*
X53675Y-38958D02*
X53666Y-38968D01*
X53638Y-38977D01*
X53619Y-38977D01*
X53591Y-38968D01*
X53572Y-38949D01*
X53563Y-38930D01*
X53554Y-38893D01*
X53554Y-38865D01*
X53563Y-38827D01*
X53572Y-38808D01*
X53591Y-38790D01*
X53619Y-38780D01*
X53638Y-38780D01*
X53666Y-38790D01*
X53675Y-38799D01*
X53751Y-38921D02*
X53844Y-38921D01*
X53732Y-38977D02*
X53797Y-38780D01*
X53863Y-38977D01*
X53938Y-38977D02*
X53976Y-38977D01*
X53995Y-38968D01*
X54004Y-38958D01*
X54023Y-38930D01*
X54032Y-38893D01*
X54032Y-38818D01*
X54023Y-38799D01*
X54013Y-38790D01*
X53995Y-38780D01*
X53957Y-38780D01*
X53938Y-38790D01*
X53929Y-38799D01*
X53920Y-38818D01*
X53920Y-38865D01*
X53929Y-38883D01*
X53938Y-38893D01*
X53957Y-38902D01*
X53995Y-38902D01*
X54013Y-38893D01*
X54023Y-38883D01*
X54032Y-38865D01*
X54201Y-38780D02*
X54164Y-38780D01*
X54145Y-38790D01*
X54136Y-38799D01*
X54117Y-38827D01*
X54108Y-38865D01*
X54108Y-38940D01*
X54117Y-38958D01*
X54126Y-38968D01*
X54145Y-38977D01*
X54183Y-38977D01*
X54201Y-38968D01*
X54211Y-38958D01*
X54220Y-38940D01*
X54220Y-38893D01*
X54211Y-38874D01*
X54201Y-38865D01*
X54183Y-38855D01*
X54145Y-38855D01*
X54126Y-38865D01*
X54117Y-38874D01*
X54108Y-38893D01*
X54333Y-38865D02*
X54314Y-38855D01*
X54305Y-38846D01*
X54296Y-38827D01*
X54296Y-38818D01*
X54305Y-38799D01*
X54314Y-38790D01*
X54333Y-38780D01*
X54371Y-38780D01*
X54389Y-38790D01*
X54399Y-38799D01*
X54408Y-38818D01*
X54408Y-38827D01*
X54399Y-38846D01*
X54389Y-38855D01*
X54371Y-38865D01*
X54333Y-38865D01*
X54314Y-38874D01*
X54305Y-38883D01*
X54296Y-38902D01*
X54296Y-38940D01*
X54305Y-38958D01*
X54314Y-38968D01*
X54333Y-38977D01*
X54371Y-38977D01*
X54389Y-38968D01*
X54399Y-38958D01*
X54408Y-38940D01*
X54408Y-38902D01*
X54399Y-38883D01*
X54389Y-38874D01*
X54371Y-38865D01*
X54587Y-38780D02*
X54493Y-38780D01*
X54484Y-38874D01*
X54493Y-38865D01*
X54512Y-38855D01*
X54559Y-38855D01*
X54577Y-38865D01*
X54587Y-38874D01*
X54596Y-38893D01*
X54596Y-38940D01*
X54587Y-38958D01*
X54577Y-38968D01*
X54559Y-38977D01*
X54512Y-38977D01*
X54493Y-38968D01*
X54484Y-38958D01*
G54D25*
X46734Y-44882D02*
X46697Y-44863D01*
X46659Y-44826D01*
X46603Y-44769D01*
X46566Y-44751D01*
X46528Y-44751D01*
X46547Y-44844D02*
X46509Y-44826D01*
X46472Y-44788D01*
X46453Y-44713D01*
X46453Y-44582D01*
X46472Y-44507D01*
X46509Y-44469D01*
X46547Y-44450D01*
X46622Y-44450D01*
X46659Y-44469D01*
X46697Y-44507D01*
X46716Y-44582D01*
X46716Y-44713D01*
X46697Y-44788D01*
X46659Y-44826D01*
X46622Y-44844D01*
X46547Y-44844D01*
X46847Y-44450D02*
X47110Y-44450D01*
X46941Y-44844D01*
X48151Y-44882D02*
X48114Y-44863D01*
X48076Y-44826D01*
X48020Y-44769D01*
X47983Y-44751D01*
X47945Y-44751D01*
X47964Y-44844D02*
X47926Y-44826D01*
X47889Y-44788D01*
X47870Y-44713D01*
X47870Y-44582D01*
X47889Y-44507D01*
X47926Y-44469D01*
X47964Y-44450D01*
X48039Y-44450D01*
X48076Y-44469D01*
X48114Y-44507D01*
X48133Y-44582D01*
X48133Y-44713D01*
X48114Y-44788D01*
X48076Y-44826D01*
X48039Y-44844D01*
X47964Y-44844D01*
X48358Y-44619D02*
X48321Y-44601D01*
X48302Y-44582D01*
X48283Y-44544D01*
X48283Y-44526D01*
X48302Y-44488D01*
X48321Y-44469D01*
X48358Y-44450D01*
X48433Y-44450D01*
X48471Y-44469D01*
X48489Y-44488D01*
X48508Y-44526D01*
X48508Y-44544D01*
X48489Y-44582D01*
X48471Y-44601D01*
X48433Y-44619D01*
X48358Y-44619D01*
X48321Y-44638D01*
X48302Y-44657D01*
X48283Y-44694D01*
X48283Y-44769D01*
X48302Y-44807D01*
X48321Y-44826D01*
X48358Y-44844D01*
X48433Y-44844D01*
X48471Y-44826D01*
X48489Y-44807D01*
X48508Y-44769D01*
X48508Y-44694D01*
X48489Y-44657D01*
X48471Y-44638D01*
X48433Y-44619D01*
X49647Y-44882D02*
X49610Y-44863D01*
X49572Y-44826D01*
X49516Y-44769D01*
X49479Y-44751D01*
X49441Y-44751D01*
X49460Y-44844D02*
X49422Y-44826D01*
X49385Y-44788D01*
X49366Y-44713D01*
X49366Y-44582D01*
X49385Y-44507D01*
X49422Y-44469D01*
X49460Y-44450D01*
X49535Y-44450D01*
X49572Y-44469D01*
X49610Y-44507D01*
X49629Y-44582D01*
X49629Y-44713D01*
X49610Y-44788D01*
X49572Y-44826D01*
X49535Y-44844D01*
X49460Y-44844D01*
X49817Y-44844D02*
X49892Y-44844D01*
X49929Y-44826D01*
X49948Y-44807D01*
X49985Y-44751D01*
X50004Y-44676D01*
X50004Y-44526D01*
X49985Y-44488D01*
X49967Y-44469D01*
X49929Y-44450D01*
X49854Y-44450D01*
X49817Y-44469D01*
X49798Y-44488D01*
X49779Y-44526D01*
X49779Y-44619D01*
X49798Y-44657D01*
X49817Y-44676D01*
X49854Y-44694D01*
X49929Y-44694D01*
X49967Y-44676D01*
X49985Y-44657D01*
X50004Y-44619D01*
X51498Y-45027D02*
X51104Y-45027D01*
X51498Y-44614D02*
X51311Y-44745D01*
X51498Y-44839D02*
X51104Y-44839D01*
X51104Y-44689D01*
X51123Y-44652D01*
X51142Y-44633D01*
X51180Y-44614D01*
X51236Y-44614D01*
X51273Y-44633D01*
X51292Y-44652D01*
X51311Y-44689D01*
X51311Y-44839D01*
X51498Y-44258D02*
X51498Y-44445D01*
X51104Y-44445D01*
X51104Y-44182D02*
X51104Y-43957D01*
X51498Y-44070D02*
X51104Y-44070D01*
X51480Y-43845D02*
X51498Y-43789D01*
X51498Y-43695D01*
X51480Y-43657D01*
X51461Y-43639D01*
X51423Y-43620D01*
X51386Y-43620D01*
X51348Y-43639D01*
X51330Y-43657D01*
X51311Y-43695D01*
X51292Y-43770D01*
X51273Y-43807D01*
X51255Y-43826D01*
X51217Y-43845D01*
X51180Y-43845D01*
X51142Y-43826D01*
X51123Y-43807D01*
X51104Y-43770D01*
X51104Y-43676D01*
X51123Y-43620D01*
X51104Y-43282D02*
X51104Y-43357D01*
X51123Y-43395D01*
X51142Y-43414D01*
X51198Y-43451D01*
X51273Y-43470D01*
X51423Y-43470D01*
X51461Y-43451D01*
X51480Y-43432D01*
X51498Y-43395D01*
X51498Y-43320D01*
X51480Y-43282D01*
X51461Y-43264D01*
X51423Y-43245D01*
X51330Y-43245D01*
X51292Y-43264D01*
X51273Y-43282D01*
X51255Y-43320D01*
X51255Y-43395D01*
X51273Y-43432D01*
X51292Y-43451D01*
X51330Y-43470D01*
X51142Y-43095D02*
X51123Y-43076D01*
X51104Y-43039D01*
X51104Y-42945D01*
X51123Y-42907D01*
X51142Y-42889D01*
X51180Y-42870D01*
X51217Y-42870D01*
X51273Y-42889D01*
X51498Y-43114D01*
X51498Y-42870D01*
X51236Y-42532D02*
X51498Y-42532D01*
X51086Y-42626D02*
X51367Y-42720D01*
X51367Y-42476D01*
X51142Y-42345D02*
X51123Y-42326D01*
X51104Y-42289D01*
X51104Y-42195D01*
X51123Y-42157D01*
X51142Y-42139D01*
X51180Y-42120D01*
X51217Y-42120D01*
X51273Y-42139D01*
X51498Y-42364D01*
X51498Y-42120D01*
X57688Y-44843D02*
X57651Y-44824D01*
X57613Y-44787D01*
X57557Y-44730D01*
X57520Y-44712D01*
X57482Y-44712D01*
X57501Y-44805D02*
X57463Y-44787D01*
X57426Y-44749D01*
X57407Y-44674D01*
X57407Y-44543D01*
X57426Y-44468D01*
X57463Y-44430D01*
X57501Y-44411D01*
X57576Y-44411D01*
X57613Y-44430D01*
X57651Y-44468D01*
X57670Y-44543D01*
X57670Y-44674D01*
X57651Y-44749D01*
X57613Y-44787D01*
X57576Y-44805D01*
X57501Y-44805D01*
X58045Y-44805D02*
X57820Y-44805D01*
X57933Y-44805D02*
X57933Y-44411D01*
X57895Y-44468D01*
X57858Y-44505D01*
X57820Y-44524D01*
X58289Y-44411D02*
X58326Y-44411D01*
X58364Y-44430D01*
X58383Y-44449D01*
X58401Y-44487D01*
X58420Y-44562D01*
X58420Y-44655D01*
X58401Y-44730D01*
X58383Y-44768D01*
X58364Y-44787D01*
X58326Y-44805D01*
X58289Y-44805D01*
X58251Y-44787D01*
X58233Y-44768D01*
X58214Y-44730D01*
X58195Y-44655D01*
X58195Y-44562D01*
X58214Y-44487D01*
X58233Y-44449D01*
X58251Y-44430D01*
X58289Y-44411D01*
X56891Y-45105D02*
X56497Y-45105D01*
X56891Y-44692D02*
X56704Y-44823D01*
X56891Y-44917D02*
X56497Y-44917D01*
X56497Y-44767D01*
X56516Y-44730D01*
X56535Y-44711D01*
X56573Y-44692D01*
X56629Y-44692D01*
X56666Y-44711D01*
X56685Y-44730D01*
X56704Y-44767D01*
X56704Y-44917D01*
X56891Y-44336D02*
X56891Y-44523D01*
X56497Y-44523D01*
X56497Y-44260D02*
X56497Y-44035D01*
X56891Y-44148D02*
X56497Y-44148D01*
X56873Y-43923D02*
X56891Y-43867D01*
X56891Y-43773D01*
X56873Y-43735D01*
X56854Y-43717D01*
X56816Y-43698D01*
X56779Y-43698D01*
X56741Y-43717D01*
X56723Y-43735D01*
X56704Y-43773D01*
X56685Y-43848D01*
X56666Y-43885D01*
X56648Y-43904D01*
X56610Y-43923D01*
X56573Y-43923D01*
X56535Y-43904D01*
X56516Y-43885D01*
X56497Y-43848D01*
X56497Y-43754D01*
X56516Y-43698D01*
X56497Y-43360D02*
X56497Y-43435D01*
X56516Y-43473D01*
X56535Y-43492D01*
X56591Y-43529D01*
X56666Y-43548D01*
X56816Y-43548D01*
X56854Y-43529D01*
X56873Y-43510D01*
X56891Y-43473D01*
X56891Y-43398D01*
X56873Y-43360D01*
X56854Y-43342D01*
X56816Y-43323D01*
X56723Y-43323D01*
X56685Y-43342D01*
X56666Y-43360D01*
X56648Y-43398D01*
X56648Y-43473D01*
X56666Y-43510D01*
X56685Y-43529D01*
X56723Y-43548D01*
X56535Y-43173D02*
X56516Y-43154D01*
X56497Y-43117D01*
X56497Y-43023D01*
X56516Y-42985D01*
X56535Y-42967D01*
X56573Y-42948D01*
X56610Y-42948D01*
X56666Y-42967D01*
X56891Y-43192D01*
X56891Y-42948D01*
X56629Y-42610D02*
X56891Y-42610D01*
X56479Y-42704D02*
X56760Y-42798D01*
X56760Y-42554D01*
X56535Y-42423D02*
X56516Y-42404D01*
X56497Y-42367D01*
X56497Y-42273D01*
X56516Y-42235D01*
X56535Y-42217D01*
X56573Y-42198D01*
X56610Y-42198D01*
X56666Y-42217D01*
X56891Y-42442D01*
X56891Y-42198D01*
X43702Y-44882D02*
X43665Y-44863D01*
X43627Y-44826D01*
X43571Y-44769D01*
X43534Y-44751D01*
X43496Y-44751D01*
X43515Y-44844D02*
X43477Y-44826D01*
X43440Y-44788D01*
X43421Y-44713D01*
X43421Y-44582D01*
X43440Y-44507D01*
X43477Y-44469D01*
X43515Y-44450D01*
X43590Y-44450D01*
X43627Y-44469D01*
X43665Y-44507D01*
X43684Y-44582D01*
X43684Y-44713D01*
X43665Y-44788D01*
X43627Y-44826D01*
X43590Y-44844D01*
X43515Y-44844D01*
X44040Y-44450D02*
X43853Y-44450D01*
X43834Y-44638D01*
X43853Y-44619D01*
X43890Y-44601D01*
X43984Y-44601D01*
X44022Y-44619D01*
X44040Y-44638D01*
X44059Y-44676D01*
X44059Y-44769D01*
X44040Y-44807D01*
X44022Y-44826D01*
X43984Y-44844D01*
X43890Y-44844D01*
X43853Y-44826D01*
X43834Y-44807D01*
X42206Y-44882D02*
X42169Y-44863D01*
X42131Y-44826D01*
X42075Y-44769D01*
X42038Y-44751D01*
X42000Y-44751D01*
X42019Y-44844D02*
X41981Y-44826D01*
X41944Y-44788D01*
X41925Y-44713D01*
X41925Y-44582D01*
X41944Y-44507D01*
X41981Y-44469D01*
X42019Y-44450D01*
X42094Y-44450D01*
X42131Y-44469D01*
X42169Y-44507D01*
X42188Y-44582D01*
X42188Y-44713D01*
X42169Y-44788D01*
X42131Y-44826D01*
X42094Y-44844D01*
X42019Y-44844D01*
X42526Y-44582D02*
X42526Y-44844D01*
X42432Y-44432D02*
X42338Y-44713D01*
X42582Y-44713D01*
X40710Y-44882D02*
X40673Y-44863D01*
X40635Y-44826D01*
X40579Y-44769D01*
X40542Y-44751D01*
X40504Y-44751D01*
X40523Y-44844D02*
X40485Y-44826D01*
X40448Y-44788D01*
X40429Y-44713D01*
X40429Y-44582D01*
X40448Y-44507D01*
X40485Y-44469D01*
X40523Y-44450D01*
X40598Y-44450D01*
X40635Y-44469D01*
X40673Y-44507D01*
X40692Y-44582D01*
X40692Y-44713D01*
X40673Y-44788D01*
X40635Y-44826D01*
X40598Y-44844D01*
X40523Y-44844D01*
X40823Y-44450D02*
X41067Y-44450D01*
X40936Y-44601D01*
X40992Y-44601D01*
X41030Y-44619D01*
X41048Y-44638D01*
X41067Y-44676D01*
X41067Y-44769D01*
X41048Y-44807D01*
X41030Y-44826D01*
X40992Y-44844D01*
X40880Y-44844D01*
X40842Y-44826D01*
X40823Y-44807D01*
X39253Y-44921D02*
X39216Y-44902D01*
X39178Y-44865D01*
X39122Y-44808D01*
X39085Y-44790D01*
X39047Y-44790D01*
X39066Y-44883D02*
X39028Y-44865D01*
X38991Y-44827D01*
X38972Y-44752D01*
X38972Y-44621D01*
X38991Y-44546D01*
X39028Y-44508D01*
X39066Y-44489D01*
X39141Y-44489D01*
X39178Y-44508D01*
X39216Y-44546D01*
X39235Y-44621D01*
X39235Y-44752D01*
X39216Y-44827D01*
X39178Y-44865D01*
X39141Y-44883D01*
X39066Y-44883D01*
X39385Y-44527D02*
X39404Y-44508D01*
X39441Y-44489D01*
X39535Y-44489D01*
X39573Y-44508D01*
X39591Y-44527D01*
X39610Y-44565D01*
X39610Y-44602D01*
X39591Y-44658D01*
X39366Y-44883D01*
X39610Y-44883D01*
X37718Y-44921D02*
X37681Y-44902D01*
X37643Y-44865D01*
X37587Y-44808D01*
X37550Y-44790D01*
X37512Y-44790D01*
X37531Y-44883D02*
X37493Y-44865D01*
X37456Y-44827D01*
X37437Y-44752D01*
X37437Y-44621D01*
X37456Y-44546D01*
X37493Y-44508D01*
X37531Y-44489D01*
X37606Y-44489D01*
X37643Y-44508D01*
X37681Y-44546D01*
X37700Y-44621D01*
X37700Y-44752D01*
X37681Y-44827D01*
X37643Y-44865D01*
X37606Y-44883D01*
X37531Y-44883D01*
X38075Y-44883D02*
X37850Y-44883D01*
X37963Y-44883D02*
X37963Y-44489D01*
X37925Y-44546D01*
X37888Y-44583D01*
X37850Y-44602D01*
X37049Y-44948D02*
X36655Y-44948D01*
X37049Y-44535D02*
X36862Y-44666D01*
X37049Y-44760D02*
X36655Y-44760D01*
X36655Y-44610D01*
X36674Y-44573D01*
X36693Y-44554D01*
X36731Y-44535D01*
X36787Y-44535D01*
X36824Y-44554D01*
X36843Y-44573D01*
X36862Y-44610D01*
X36862Y-44760D01*
X37049Y-44179D02*
X37049Y-44366D01*
X36655Y-44366D01*
X36655Y-44103D02*
X36655Y-43878D01*
X37049Y-43991D02*
X36655Y-43991D01*
X37031Y-43766D02*
X37049Y-43710D01*
X37049Y-43616D01*
X37031Y-43578D01*
X37012Y-43560D01*
X36974Y-43541D01*
X36937Y-43541D01*
X36899Y-43560D01*
X36881Y-43578D01*
X36862Y-43616D01*
X36843Y-43691D01*
X36824Y-43728D01*
X36806Y-43747D01*
X36768Y-43766D01*
X36731Y-43766D01*
X36693Y-43747D01*
X36674Y-43728D01*
X36655Y-43691D01*
X36655Y-43597D01*
X36674Y-43541D01*
X36655Y-43203D02*
X36655Y-43278D01*
X36674Y-43316D01*
X36693Y-43335D01*
X36749Y-43372D01*
X36824Y-43391D01*
X36974Y-43391D01*
X37012Y-43372D01*
X37031Y-43353D01*
X37049Y-43316D01*
X37049Y-43241D01*
X37031Y-43203D01*
X37012Y-43185D01*
X36974Y-43166D01*
X36881Y-43166D01*
X36843Y-43185D01*
X36824Y-43203D01*
X36806Y-43241D01*
X36806Y-43316D01*
X36824Y-43353D01*
X36843Y-43372D01*
X36881Y-43391D01*
X36693Y-43016D02*
X36674Y-42997D01*
X36655Y-42960D01*
X36655Y-42866D01*
X36674Y-42828D01*
X36693Y-42810D01*
X36731Y-42791D01*
X36768Y-42791D01*
X36824Y-42810D01*
X37049Y-43035D01*
X37049Y-42791D01*
X36787Y-42453D02*
X37049Y-42453D01*
X36637Y-42547D02*
X36918Y-42641D01*
X36918Y-42397D01*
X36693Y-42266D02*
X36674Y-42247D01*
X36655Y-42210D01*
X36655Y-42116D01*
X36674Y-42078D01*
X36693Y-42060D01*
X36731Y-42041D01*
X36768Y-42041D01*
X36824Y-42060D01*
X37049Y-42285D01*
X37049Y-42041D01*
X45238Y-44882D02*
X45201Y-44863D01*
X45163Y-44826D01*
X45107Y-44769D01*
X45070Y-44751D01*
X45032Y-44751D01*
X45051Y-44844D02*
X45013Y-44826D01*
X44976Y-44788D01*
X44957Y-44713D01*
X44957Y-44582D01*
X44976Y-44507D01*
X45013Y-44469D01*
X45051Y-44450D01*
X45126Y-44450D01*
X45163Y-44469D01*
X45201Y-44507D01*
X45220Y-44582D01*
X45220Y-44713D01*
X45201Y-44788D01*
X45163Y-44826D01*
X45126Y-44844D01*
X45051Y-44844D01*
X45558Y-44450D02*
X45483Y-44450D01*
X45445Y-44469D01*
X45426Y-44488D01*
X45389Y-44544D01*
X45370Y-44619D01*
X45370Y-44769D01*
X45389Y-44807D01*
X45408Y-44826D01*
X45445Y-44844D01*
X45520Y-44844D01*
X45558Y-44826D01*
X45576Y-44807D01*
X45595Y-44769D01*
X45595Y-44676D01*
X45576Y-44638D01*
X45558Y-44619D01*
X45520Y-44601D01*
X45445Y-44601D01*
X45408Y-44619D01*
X45389Y-44638D01*
X45370Y-44676D01*
X59145Y-44843D02*
X59108Y-44824D01*
X59070Y-44787D01*
X59014Y-44730D01*
X58977Y-44712D01*
X58939Y-44712D01*
X58958Y-44805D02*
X58920Y-44787D01*
X58883Y-44749D01*
X58864Y-44674D01*
X58864Y-44543D01*
X58883Y-44468D01*
X58920Y-44430D01*
X58958Y-44411D01*
X59033Y-44411D01*
X59070Y-44430D01*
X59108Y-44468D01*
X59127Y-44543D01*
X59127Y-44674D01*
X59108Y-44749D01*
X59070Y-44787D01*
X59033Y-44805D01*
X58958Y-44805D01*
X59502Y-44805D02*
X59277Y-44805D01*
X59390Y-44805D02*
X59390Y-44411D01*
X59352Y-44468D01*
X59315Y-44505D01*
X59277Y-44524D01*
X59877Y-44805D02*
X59652Y-44805D01*
X59765Y-44805D02*
X59765Y-44411D01*
X59727Y-44468D01*
X59690Y-44505D01*
X59652Y-44524D01*
X60641Y-44843D02*
X60604Y-44824D01*
X60566Y-44787D01*
X60510Y-44730D01*
X60473Y-44712D01*
X60435Y-44712D01*
X60454Y-44805D02*
X60416Y-44787D01*
X60379Y-44749D01*
X60360Y-44674D01*
X60360Y-44543D01*
X60379Y-44468D01*
X60416Y-44430D01*
X60454Y-44411D01*
X60529Y-44411D01*
X60566Y-44430D01*
X60604Y-44468D01*
X60623Y-44543D01*
X60623Y-44674D01*
X60604Y-44749D01*
X60566Y-44787D01*
X60529Y-44805D01*
X60454Y-44805D01*
X60998Y-44805D02*
X60773Y-44805D01*
X60886Y-44805D02*
X60886Y-44411D01*
X60848Y-44468D01*
X60811Y-44505D01*
X60773Y-44524D01*
X61148Y-44449D02*
X61167Y-44430D01*
X61204Y-44411D01*
X61298Y-44411D01*
X61336Y-44430D01*
X61354Y-44449D01*
X61373Y-44487D01*
X61373Y-44524D01*
X61354Y-44580D01*
X61129Y-44805D01*
X61373Y-44805D01*
X62177Y-44882D02*
X62140Y-44863D01*
X62102Y-44826D01*
X62046Y-44769D01*
X62009Y-44751D01*
X61971Y-44751D01*
X61990Y-44844D02*
X61952Y-44826D01*
X61915Y-44788D01*
X61896Y-44713D01*
X61896Y-44582D01*
X61915Y-44507D01*
X61952Y-44469D01*
X61990Y-44450D01*
X62065Y-44450D01*
X62102Y-44469D01*
X62140Y-44507D01*
X62159Y-44582D01*
X62159Y-44713D01*
X62140Y-44788D01*
X62102Y-44826D01*
X62065Y-44844D01*
X61990Y-44844D01*
X62534Y-44844D02*
X62309Y-44844D01*
X62422Y-44844D02*
X62422Y-44450D01*
X62384Y-44507D01*
X62347Y-44544D01*
X62309Y-44563D01*
X62665Y-44450D02*
X62909Y-44450D01*
X62778Y-44601D01*
X62834Y-44601D01*
X62872Y-44619D01*
X62890Y-44638D01*
X62909Y-44676D01*
X62909Y-44769D01*
X62890Y-44807D01*
X62872Y-44826D01*
X62834Y-44844D01*
X62722Y-44844D01*
X62684Y-44826D01*
X62665Y-44807D01*
X63712Y-44882D02*
X63675Y-44863D01*
X63637Y-44826D01*
X63581Y-44769D01*
X63544Y-44751D01*
X63506Y-44751D01*
X63525Y-44844D02*
X63487Y-44826D01*
X63450Y-44788D01*
X63431Y-44713D01*
X63431Y-44582D01*
X63450Y-44507D01*
X63487Y-44469D01*
X63525Y-44450D01*
X63600Y-44450D01*
X63637Y-44469D01*
X63675Y-44507D01*
X63694Y-44582D01*
X63694Y-44713D01*
X63675Y-44788D01*
X63637Y-44826D01*
X63600Y-44844D01*
X63525Y-44844D01*
X64069Y-44844D02*
X63844Y-44844D01*
X63957Y-44844D02*
X63957Y-44450D01*
X63919Y-44507D01*
X63882Y-44544D01*
X63844Y-44563D01*
X64407Y-44582D02*
X64407Y-44844D01*
X64313Y-44432D02*
X64219Y-44713D01*
X64463Y-44713D01*
X65169Y-44882D02*
X65132Y-44863D01*
X65094Y-44826D01*
X65038Y-44769D01*
X65001Y-44751D01*
X64963Y-44751D01*
X64982Y-44844D02*
X64944Y-44826D01*
X64907Y-44788D01*
X64888Y-44713D01*
X64888Y-44582D01*
X64907Y-44507D01*
X64944Y-44469D01*
X64982Y-44450D01*
X65057Y-44450D01*
X65094Y-44469D01*
X65132Y-44507D01*
X65151Y-44582D01*
X65151Y-44713D01*
X65132Y-44788D01*
X65094Y-44826D01*
X65057Y-44844D01*
X64982Y-44844D01*
X65526Y-44844D02*
X65301Y-44844D01*
X65414Y-44844D02*
X65414Y-44450D01*
X65376Y-44507D01*
X65339Y-44544D01*
X65301Y-44563D01*
X65882Y-44450D02*
X65695Y-44450D01*
X65676Y-44638D01*
X65695Y-44619D01*
X65732Y-44601D01*
X65826Y-44601D01*
X65864Y-44619D01*
X65882Y-44638D01*
X65901Y-44676D01*
X65901Y-44769D01*
X65882Y-44807D01*
X65864Y-44826D01*
X65826Y-44844D01*
X65732Y-44844D01*
X65695Y-44826D01*
X65676Y-44807D01*
X66704Y-44882D02*
X66667Y-44863D01*
X66629Y-44826D01*
X66573Y-44769D01*
X66536Y-44751D01*
X66498Y-44751D01*
X66517Y-44844D02*
X66479Y-44826D01*
X66442Y-44788D01*
X66423Y-44713D01*
X66423Y-44582D01*
X66442Y-44507D01*
X66479Y-44469D01*
X66517Y-44450D01*
X66592Y-44450D01*
X66629Y-44469D01*
X66667Y-44507D01*
X66686Y-44582D01*
X66686Y-44713D01*
X66667Y-44788D01*
X66629Y-44826D01*
X66592Y-44844D01*
X66517Y-44844D01*
X67061Y-44844D02*
X66836Y-44844D01*
X66949Y-44844D02*
X66949Y-44450D01*
X66911Y-44507D01*
X66874Y-44544D01*
X66836Y-44563D01*
X67399Y-44450D02*
X67324Y-44450D01*
X67286Y-44469D01*
X67267Y-44488D01*
X67230Y-44544D01*
X67211Y-44619D01*
X67211Y-44769D01*
X67230Y-44807D01*
X67249Y-44826D01*
X67286Y-44844D01*
X67361Y-44844D01*
X67399Y-44826D01*
X67417Y-44807D01*
X67436Y-44769D01*
X67436Y-44676D01*
X67417Y-44638D01*
X67399Y-44619D01*
X67361Y-44601D01*
X67286Y-44601D01*
X67249Y-44619D01*
X67230Y-44638D01*
X67211Y-44676D01*
X68545Y-45027D02*
X68151Y-45027D01*
X68545Y-44614D02*
X68358Y-44745D01*
X68545Y-44839D02*
X68151Y-44839D01*
X68151Y-44689D01*
X68170Y-44652D01*
X68189Y-44633D01*
X68227Y-44614D01*
X68283Y-44614D01*
X68320Y-44633D01*
X68339Y-44652D01*
X68358Y-44689D01*
X68358Y-44839D01*
X68545Y-44258D02*
X68545Y-44445D01*
X68151Y-44445D01*
X68151Y-44182D02*
X68151Y-43957D01*
X68545Y-44070D02*
X68151Y-44070D01*
X68527Y-43845D02*
X68545Y-43789D01*
X68545Y-43695D01*
X68527Y-43657D01*
X68508Y-43639D01*
X68470Y-43620D01*
X68433Y-43620D01*
X68395Y-43639D01*
X68377Y-43657D01*
X68358Y-43695D01*
X68339Y-43770D01*
X68320Y-43807D01*
X68302Y-43826D01*
X68264Y-43845D01*
X68227Y-43845D01*
X68189Y-43826D01*
X68170Y-43807D01*
X68151Y-43770D01*
X68151Y-43676D01*
X68170Y-43620D01*
X68151Y-43282D02*
X68151Y-43357D01*
X68170Y-43395D01*
X68189Y-43414D01*
X68245Y-43451D01*
X68320Y-43470D01*
X68470Y-43470D01*
X68508Y-43451D01*
X68527Y-43432D01*
X68545Y-43395D01*
X68545Y-43320D01*
X68527Y-43282D01*
X68508Y-43264D01*
X68470Y-43245D01*
X68377Y-43245D01*
X68339Y-43264D01*
X68320Y-43282D01*
X68302Y-43320D01*
X68302Y-43395D01*
X68320Y-43432D01*
X68339Y-43451D01*
X68377Y-43470D01*
X68189Y-43095D02*
X68170Y-43076D01*
X68151Y-43039D01*
X68151Y-42945D01*
X68170Y-42907D01*
X68189Y-42889D01*
X68227Y-42870D01*
X68264Y-42870D01*
X68320Y-42889D01*
X68545Y-43114D01*
X68545Y-42870D01*
X68283Y-42532D02*
X68545Y-42532D01*
X68133Y-42626D02*
X68414Y-42720D01*
X68414Y-42476D01*
X68189Y-42345D02*
X68170Y-42326D01*
X68151Y-42289D01*
X68151Y-42195D01*
X68170Y-42157D01*
X68189Y-42139D01*
X68227Y-42120D01*
X68264Y-42120D01*
X68320Y-42139D01*
X68545Y-42364D01*
X68545Y-42120D01*
X64134Y-33138D02*
X64115Y-33175D01*
X64078Y-33213D01*
X64021Y-33269D01*
X64003Y-33306D01*
X64003Y-33344D01*
X64096Y-33325D02*
X64078Y-33363D01*
X64040Y-33400D01*
X63965Y-33419D01*
X63834Y-33419D01*
X63759Y-33400D01*
X63721Y-33363D01*
X63702Y-33325D01*
X63702Y-33250D01*
X63721Y-33213D01*
X63759Y-33175D01*
X63834Y-33156D01*
X63965Y-33156D01*
X64040Y-33175D01*
X64078Y-33213D01*
X64096Y-33250D01*
X64096Y-33325D01*
X64096Y-32781D02*
X64096Y-33006D01*
X64096Y-32893D02*
X63702Y-32893D01*
X63759Y-32931D01*
X63796Y-32968D01*
X63815Y-33006D01*
X63702Y-32650D02*
X63702Y-32387D01*
X64096Y-32556D01*
X64134Y-31879D02*
X64115Y-31916D01*
X64078Y-31954D01*
X64021Y-32010D01*
X64003Y-32047D01*
X64003Y-32085D01*
X64096Y-32066D02*
X64078Y-32104D01*
X64040Y-32141D01*
X63965Y-32160D01*
X63834Y-32160D01*
X63759Y-32141D01*
X63721Y-32104D01*
X63702Y-32066D01*
X63702Y-31991D01*
X63721Y-31954D01*
X63759Y-31916D01*
X63834Y-31897D01*
X63965Y-31897D01*
X64040Y-31916D01*
X64078Y-31954D01*
X64096Y-31991D01*
X64096Y-32066D01*
X64096Y-31522D02*
X64096Y-31747D01*
X64096Y-31634D02*
X63702Y-31634D01*
X63759Y-31672D01*
X63796Y-31709D01*
X63815Y-31747D01*
X63871Y-31297D02*
X63853Y-31334D01*
X63834Y-31353D01*
X63796Y-31372D01*
X63778Y-31372D01*
X63740Y-31353D01*
X63721Y-31334D01*
X63702Y-31297D01*
X63702Y-31222D01*
X63721Y-31184D01*
X63740Y-31166D01*
X63778Y-31147D01*
X63796Y-31147D01*
X63834Y-31166D01*
X63853Y-31184D01*
X63871Y-31222D01*
X63871Y-31297D01*
X63890Y-31334D01*
X63909Y-31353D01*
X63946Y-31372D01*
X64021Y-31372D01*
X64059Y-31353D01*
X64078Y-31334D01*
X64096Y-31297D01*
X64096Y-31222D01*
X64078Y-31184D01*
X64059Y-31166D01*
X64021Y-31147D01*
X63946Y-31147D01*
X63909Y-31166D01*
X63890Y-31184D01*
X63871Y-31222D01*
X64134Y-30619D02*
X64115Y-30656D01*
X64078Y-30694D01*
X64021Y-30750D01*
X64003Y-30787D01*
X64003Y-30825D01*
X64096Y-30806D02*
X64078Y-30844D01*
X64040Y-30881D01*
X63965Y-30900D01*
X63834Y-30900D01*
X63759Y-30881D01*
X63721Y-30844D01*
X63702Y-30806D01*
X63702Y-30731D01*
X63721Y-30694D01*
X63759Y-30656D01*
X63834Y-30637D01*
X63965Y-30637D01*
X64040Y-30656D01*
X64078Y-30694D01*
X64096Y-30731D01*
X64096Y-30806D01*
X64096Y-30262D02*
X64096Y-30487D01*
X64096Y-30374D02*
X63702Y-30374D01*
X63759Y-30412D01*
X63796Y-30449D01*
X63815Y-30487D01*
X64096Y-30074D02*
X64096Y-29999D01*
X64078Y-29962D01*
X64059Y-29943D01*
X64003Y-29906D01*
X63928Y-29887D01*
X63778Y-29887D01*
X63740Y-29906D01*
X63721Y-29924D01*
X63702Y-29962D01*
X63702Y-30037D01*
X63721Y-30074D01*
X63740Y-30093D01*
X63778Y-30112D01*
X63871Y-30112D01*
X63909Y-30093D01*
X63928Y-30074D01*
X63946Y-30037D01*
X63946Y-29962D01*
X63928Y-29924D01*
X63909Y-29906D01*
X63871Y-29887D01*
X63436Y-29646D02*
X63399Y-29627D01*
X63361Y-29590D01*
X63305Y-29533D01*
X63268Y-29515D01*
X63230Y-29515D01*
X63249Y-29608D02*
X63211Y-29590D01*
X63174Y-29552D01*
X63155Y-29477D01*
X63155Y-29346D01*
X63174Y-29271D01*
X63211Y-29233D01*
X63249Y-29214D01*
X63324Y-29214D01*
X63361Y-29233D01*
X63399Y-29271D01*
X63418Y-29346D01*
X63418Y-29477D01*
X63399Y-29552D01*
X63361Y-29590D01*
X63324Y-29608D01*
X63249Y-29608D01*
X63568Y-29252D02*
X63587Y-29233D01*
X63624Y-29214D01*
X63718Y-29214D01*
X63756Y-29233D01*
X63774Y-29252D01*
X63793Y-29290D01*
X63793Y-29327D01*
X63774Y-29383D01*
X63549Y-29608D01*
X63793Y-29608D01*
X64037Y-29214D02*
X64074Y-29214D01*
X64112Y-29233D01*
X64131Y-29252D01*
X64149Y-29290D01*
X64168Y-29365D01*
X64168Y-29458D01*
X64149Y-29533D01*
X64131Y-29571D01*
X64112Y-29590D01*
X64074Y-29608D01*
X64037Y-29608D01*
X63999Y-29590D01*
X63981Y-29571D01*
X63962Y-29533D01*
X63943Y-29458D01*
X63943Y-29365D01*
X63962Y-29290D01*
X63981Y-29252D01*
X63999Y-29233D01*
X64037Y-29214D01*
G54D13*
X64277Y-28465D02*
X64277Y-28268D01*
X64483Y-28465D02*
X64418Y-28371D01*
X64371Y-28465D02*
X64371Y-28268D01*
X64446Y-28268D01*
X64465Y-28278D01*
X64474Y-28287D01*
X64483Y-28306D01*
X64483Y-28334D01*
X64474Y-28353D01*
X64465Y-28362D01*
X64446Y-28371D01*
X64371Y-28371D01*
X64662Y-28465D02*
X64568Y-28465D01*
X64568Y-28268D01*
X64699Y-28268D02*
X64811Y-28268D01*
X64755Y-28465D02*
X64755Y-28268D01*
X64868Y-28456D02*
X64896Y-28465D01*
X64943Y-28465D01*
X64961Y-28456D01*
X64971Y-28446D01*
X64980Y-28428D01*
X64980Y-28409D01*
X64971Y-28390D01*
X64961Y-28381D01*
X64943Y-28371D01*
X64905Y-28362D01*
X64886Y-28353D01*
X64877Y-28343D01*
X64868Y-28325D01*
X64868Y-28306D01*
X64877Y-28287D01*
X64886Y-28278D01*
X64905Y-28268D01*
X64952Y-28268D01*
X64980Y-28278D01*
X65149Y-28268D02*
X65112Y-28268D01*
X65093Y-28278D01*
X65084Y-28287D01*
X65065Y-28315D01*
X65056Y-28353D01*
X65056Y-28428D01*
X65065Y-28446D01*
X65074Y-28456D01*
X65093Y-28465D01*
X65131Y-28465D01*
X65149Y-28456D01*
X65159Y-28446D01*
X65168Y-28428D01*
X65168Y-28381D01*
X65159Y-28362D01*
X65149Y-28353D01*
X65131Y-28343D01*
X65093Y-28343D01*
X65074Y-28353D01*
X65065Y-28362D01*
X65056Y-28381D01*
X65244Y-28287D02*
X65253Y-28278D01*
X65272Y-28268D01*
X65319Y-28268D01*
X65337Y-28278D01*
X65347Y-28287D01*
X65356Y-28306D01*
X65356Y-28325D01*
X65347Y-28353D01*
X65234Y-28465D01*
X65356Y-28465D01*
X65525Y-28334D02*
X65525Y-28465D01*
X65478Y-28259D02*
X65432Y-28400D01*
X65553Y-28400D01*
X65620Y-28287D02*
X65629Y-28278D01*
X65648Y-28268D01*
X65695Y-28268D01*
X65713Y-28278D01*
X65723Y-28287D01*
X65732Y-28306D01*
X65732Y-28325D01*
X65723Y-28353D01*
X65610Y-28465D01*
X65732Y-28465D01*
G54D25*
X44222Y-30671D02*
X44222Y-30277D01*
X44635Y-30634D02*
X44616Y-30653D01*
X44560Y-30671D01*
X44522Y-30671D01*
X44466Y-30653D01*
X44429Y-30615D01*
X44410Y-30578D01*
X44391Y-30503D01*
X44391Y-30446D01*
X44410Y-30371D01*
X44429Y-30334D01*
X44466Y-30296D01*
X44522Y-30277D01*
X44560Y-30277D01*
X44616Y-30296D01*
X44635Y-30315D01*
X44785Y-30315D02*
X44804Y-30296D01*
X44841Y-30277D01*
X44935Y-30277D01*
X44973Y-30296D01*
X44991Y-30315D01*
X45010Y-30353D01*
X45010Y-30390D01*
X44991Y-30446D01*
X44766Y-30671D01*
X45010Y-30671D01*
G54D13*
X45364Y-29905D02*
X45457Y-29905D01*
X45345Y-29961D02*
X45410Y-29764D01*
X45476Y-29961D01*
X45514Y-29764D02*
X45626Y-29764D01*
X45570Y-29961D02*
X45570Y-29764D01*
X45692Y-29961D02*
X45692Y-29764D01*
X45758Y-29905D01*
X45823Y-29764D01*
X45823Y-29961D01*
X45917Y-29858D02*
X45983Y-29858D01*
X46011Y-29961D02*
X45917Y-29961D01*
X45917Y-29764D01*
X46011Y-29764D01*
X46198Y-29774D02*
X46179Y-29764D01*
X46151Y-29764D01*
X46123Y-29774D01*
X46104Y-29792D01*
X46095Y-29811D01*
X46086Y-29849D01*
X46086Y-29877D01*
X46095Y-29914D01*
X46104Y-29933D01*
X46123Y-29952D01*
X46151Y-29961D01*
X46170Y-29961D01*
X46198Y-29952D01*
X46207Y-29942D01*
X46207Y-29877D01*
X46170Y-29877D01*
X46283Y-29905D02*
X46376Y-29905D01*
X46264Y-29961D02*
X46329Y-29764D01*
X46395Y-29961D01*
X46442Y-29764D02*
X46564Y-29764D01*
X46498Y-29839D01*
X46527Y-29839D01*
X46545Y-29849D01*
X46555Y-29858D01*
X46564Y-29877D01*
X46564Y-29924D01*
X46555Y-29942D01*
X46545Y-29952D01*
X46527Y-29961D01*
X46470Y-29961D01*
X46452Y-29952D01*
X46442Y-29942D01*
X46640Y-29783D02*
X46649Y-29774D01*
X46668Y-29764D01*
X46715Y-29764D01*
X46733Y-29774D01*
X46743Y-29783D01*
X46752Y-29802D01*
X46752Y-29821D01*
X46743Y-29849D01*
X46630Y-29961D01*
X46752Y-29961D01*
X46865Y-29849D02*
X46846Y-29839D01*
X46837Y-29830D01*
X46828Y-29811D01*
X46828Y-29802D01*
X46837Y-29783D01*
X46846Y-29774D01*
X46865Y-29764D01*
X46903Y-29764D01*
X46921Y-29774D01*
X46931Y-29783D01*
X46940Y-29802D01*
X46940Y-29811D01*
X46931Y-29830D01*
X46921Y-29839D01*
X46903Y-29849D01*
X46865Y-29849D01*
X46846Y-29858D01*
X46837Y-29867D01*
X46828Y-29886D01*
X46828Y-29924D01*
X46837Y-29942D01*
X46846Y-29952D01*
X46865Y-29961D01*
X46903Y-29961D01*
X46921Y-29952D01*
X46931Y-29942D01*
X46940Y-29924D01*
X46940Y-29886D01*
X46931Y-29867D01*
X46921Y-29858D01*
X46903Y-29849D01*
X47025Y-29961D02*
X47025Y-29764D01*
X47100Y-29764D01*
X47119Y-29774D01*
X47128Y-29783D01*
X47137Y-29802D01*
X47137Y-29830D01*
X47128Y-29849D01*
X47119Y-29858D01*
X47100Y-29867D01*
X47025Y-29867D01*
X47222Y-29886D02*
X47372Y-29886D01*
X47457Y-29905D02*
X47550Y-29905D01*
X47438Y-29961D02*
X47503Y-29764D01*
X47569Y-29961D01*
G54D25*
X59765Y-30891D02*
X60084Y-30891D01*
X60122Y-30872D01*
X60141Y-30854D01*
X60159Y-30816D01*
X60159Y-30741D01*
X60141Y-30704D01*
X60122Y-30685D01*
X60084Y-30666D01*
X59765Y-30666D01*
X59765Y-30291D02*
X59765Y-30478D01*
X59953Y-30497D01*
X59934Y-30478D01*
X59916Y-30441D01*
X59916Y-30347D01*
X59934Y-30309D01*
X59953Y-30291D01*
X59991Y-30272D01*
X60084Y-30272D01*
X60122Y-30291D01*
X60141Y-30309D01*
X60159Y-30347D01*
X60159Y-30441D01*
X60141Y-30478D01*
X60122Y-30497D01*
X58867Y-31681D02*
X58552Y-31681D01*
X58777Y-31576D01*
X58552Y-31471D01*
X58867Y-31471D01*
X58837Y-31141D02*
X58852Y-31156D01*
X58867Y-31201D01*
X58867Y-31231D01*
X58852Y-31276D01*
X58822Y-31306D01*
X58792Y-31321D01*
X58732Y-31336D01*
X58687Y-31336D01*
X58627Y-31321D01*
X58597Y-31306D01*
X58567Y-31276D01*
X58552Y-31231D01*
X58552Y-31201D01*
X58567Y-31156D01*
X58582Y-31141D01*
X58552Y-31036D02*
X58552Y-30841D01*
X58672Y-30946D01*
X58672Y-30901D01*
X58687Y-30871D01*
X58702Y-30856D01*
X58732Y-30841D01*
X58807Y-30841D01*
X58837Y-30856D01*
X58852Y-30871D01*
X58867Y-30901D01*
X58867Y-30991D01*
X58852Y-31021D01*
X58837Y-31036D01*
X58657Y-30571D02*
X58867Y-30571D01*
X58537Y-30646D02*
X58762Y-30721D01*
X58762Y-30526D01*
X58552Y-30346D02*
X58552Y-30316D01*
X58567Y-30286D01*
X58582Y-30271D01*
X58612Y-30256D01*
X58672Y-30241D01*
X58747Y-30241D01*
X58807Y-30256D01*
X58837Y-30271D01*
X58852Y-30286D01*
X58867Y-30316D01*
X58867Y-30346D01*
X58852Y-30376D01*
X58837Y-30391D01*
X58807Y-30406D01*
X58747Y-30421D01*
X58672Y-30421D01*
X58612Y-30406D01*
X58582Y-30391D01*
X58567Y-30376D01*
X58552Y-30346D01*
X58552Y-29971D02*
X58552Y-30031D01*
X58567Y-30061D01*
X58582Y-30076D01*
X58627Y-30106D01*
X58687Y-30121D01*
X58807Y-30121D01*
X58837Y-30106D01*
X58852Y-30091D01*
X58867Y-30061D01*
X58867Y-30001D01*
X58852Y-29971D01*
X58837Y-29956D01*
X58807Y-29941D01*
X58732Y-29941D01*
X58702Y-29956D01*
X58687Y-29971D01*
X58672Y-30001D01*
X58672Y-30061D01*
X58687Y-30091D01*
X58702Y-30106D01*
X58732Y-30121D01*
X58552Y-29836D02*
X58552Y-29641D01*
X58672Y-29746D01*
X58672Y-29701D01*
X58687Y-29671D01*
X58702Y-29656D01*
X58732Y-29641D01*
X58807Y-29641D01*
X58837Y-29656D01*
X58852Y-29671D01*
X58867Y-29701D01*
X58867Y-29791D01*
X58852Y-29821D01*
X58837Y-29836D01*
G54D13*
X58456Y-26418D02*
X58391Y-26324D01*
X58344Y-26418D02*
X58344Y-26221D01*
X58419Y-26221D01*
X58438Y-26231D01*
X58447Y-26240D01*
X58456Y-26259D01*
X58456Y-26287D01*
X58447Y-26306D01*
X58438Y-26315D01*
X58419Y-26324D01*
X58344Y-26324D01*
X58644Y-26418D02*
X58532Y-26418D01*
X58588Y-26418D02*
X58588Y-26221D01*
X58569Y-26249D01*
X58550Y-26268D01*
X58532Y-26278D01*
X58710Y-26221D02*
X58832Y-26221D01*
X58766Y-26296D01*
X58795Y-26296D01*
X58813Y-26306D01*
X58823Y-26315D01*
X58832Y-26334D01*
X58832Y-26381D01*
X58823Y-26399D01*
X58813Y-26409D01*
X58795Y-26418D01*
X58738Y-26418D01*
X58720Y-26409D01*
X58710Y-26399D01*
X58662Y-27422D02*
X58662Y-27403D01*
X58672Y-27384D01*
X58681Y-27375D01*
X58700Y-27365D01*
X58737Y-27356D01*
X58784Y-27356D01*
X58822Y-27365D01*
X58840Y-27375D01*
X58850Y-27384D01*
X58859Y-27403D01*
X58859Y-27422D01*
X58850Y-27440D01*
X58840Y-27450D01*
X58822Y-27459D01*
X58784Y-27468D01*
X58737Y-27468D01*
X58700Y-27459D01*
X58681Y-27450D01*
X58672Y-27440D01*
X58662Y-27422D01*
X58859Y-27159D02*
X58765Y-27224D01*
X58859Y-27271D02*
X58662Y-27271D01*
X58662Y-27196D01*
X58672Y-27177D01*
X58681Y-27168D01*
X58700Y-27159D01*
X58728Y-27159D01*
X58747Y-27168D01*
X58756Y-27177D01*
X58765Y-27196D01*
X58765Y-27271D01*
X58681Y-27083D02*
X58672Y-27074D01*
X58662Y-27055D01*
X58662Y-27008D01*
X58672Y-26990D01*
X58681Y-26980D01*
X58700Y-26971D01*
X58719Y-26971D01*
X58747Y-26980D01*
X58859Y-27093D01*
X58859Y-26971D01*
X58681Y-26895D02*
X58672Y-26886D01*
X58662Y-26867D01*
X58662Y-26820D01*
X58672Y-26802D01*
X58681Y-26792D01*
X58700Y-26783D01*
X58719Y-26783D01*
X58747Y-26792D01*
X58859Y-26905D01*
X58859Y-26783D01*
X60779Y-26280D02*
X60770Y-26290D01*
X60742Y-26299D01*
X60723Y-26299D01*
X60695Y-26290D01*
X60676Y-26271D01*
X60667Y-26252D01*
X60658Y-26215D01*
X60658Y-26187D01*
X60667Y-26149D01*
X60676Y-26130D01*
X60695Y-26112D01*
X60723Y-26102D01*
X60742Y-26102D01*
X60770Y-26112D01*
X60779Y-26121D01*
X60855Y-26121D02*
X60864Y-26112D01*
X60883Y-26102D01*
X60930Y-26102D01*
X60948Y-26112D01*
X60958Y-26121D01*
X60967Y-26140D01*
X60967Y-26159D01*
X60958Y-26187D01*
X60845Y-26299D01*
X60967Y-26299D01*
X61155Y-26299D02*
X61043Y-26299D01*
X61099Y-26299D02*
X61099Y-26102D01*
X61080Y-26130D01*
X61061Y-26149D01*
X61043Y-26159D01*
X59649Y-27796D02*
X59537Y-27796D01*
X59593Y-27796D02*
X59593Y-27599D01*
X59574Y-27627D01*
X59555Y-27646D01*
X59537Y-27656D01*
X59771Y-27599D02*
X59790Y-27599D01*
X59809Y-27609D01*
X59818Y-27618D01*
X59828Y-27637D01*
X59837Y-27674D01*
X59837Y-27721D01*
X59828Y-27759D01*
X59818Y-27777D01*
X59809Y-27787D01*
X59790Y-27796D01*
X59771Y-27796D01*
X59753Y-27787D01*
X59743Y-27777D01*
X59734Y-27759D01*
X59725Y-27721D01*
X59725Y-27674D01*
X59734Y-27637D01*
X59743Y-27618D01*
X59753Y-27609D01*
X59771Y-27599D01*
X60006Y-27665D02*
X60006Y-27796D01*
X59922Y-27665D02*
X59922Y-27768D01*
X59931Y-27787D01*
X59950Y-27796D01*
X59978Y-27796D01*
X59997Y-27787D01*
X60006Y-27777D01*
X60166Y-27693D02*
X60100Y-27693D01*
X60100Y-27796D02*
X60100Y-27599D01*
X60194Y-27599D01*
X60410Y-27590D02*
X60241Y-27843D01*
X60456Y-27599D02*
X60578Y-27599D01*
X60512Y-27674D01*
X60541Y-27674D01*
X60559Y-27684D01*
X60569Y-27693D01*
X60578Y-27712D01*
X60578Y-27759D01*
X60569Y-27777D01*
X60559Y-27787D01*
X60541Y-27796D01*
X60484Y-27796D01*
X60466Y-27787D01*
X60456Y-27777D01*
X60757Y-27599D02*
X60663Y-27599D01*
X60654Y-27693D01*
X60663Y-27684D01*
X60682Y-27674D01*
X60729Y-27674D01*
X60747Y-27684D01*
X60757Y-27693D01*
X60766Y-27712D01*
X60766Y-27759D01*
X60757Y-27777D01*
X60747Y-27787D01*
X60729Y-27796D01*
X60682Y-27796D01*
X60663Y-27787D01*
X60654Y-27777D01*
X60823Y-27599D02*
X60888Y-27796D01*
X60954Y-27599D01*
X53731Y-30611D02*
X53722Y-30621D01*
X53694Y-30630D01*
X53675Y-30630D01*
X53647Y-30621D01*
X53628Y-30602D01*
X53619Y-30583D01*
X53610Y-30546D01*
X53610Y-30518D01*
X53619Y-30480D01*
X53628Y-30461D01*
X53647Y-30443D01*
X53675Y-30433D01*
X53694Y-30433D01*
X53722Y-30443D01*
X53731Y-30452D01*
X53807Y-30452D02*
X53816Y-30443D01*
X53835Y-30433D01*
X53882Y-30433D01*
X53900Y-30443D01*
X53910Y-30452D01*
X53919Y-30471D01*
X53919Y-30490D01*
X53910Y-30518D01*
X53797Y-30630D01*
X53919Y-30630D01*
X54088Y-30499D02*
X54088Y-30630D01*
X54041Y-30424D02*
X53995Y-30565D01*
X54116Y-30565D01*
X55105Y-31362D02*
X55236Y-31362D01*
X55030Y-31409D02*
X55171Y-31455D01*
X55171Y-31334D01*
X55217Y-31258D02*
X55227Y-31249D01*
X55236Y-31258D01*
X55227Y-31267D01*
X55217Y-31258D01*
X55236Y-31258D01*
X55039Y-31183D02*
X55039Y-31052D01*
X55236Y-31136D01*
X55105Y-30892D02*
X55236Y-30892D01*
X55105Y-30976D02*
X55208Y-30976D01*
X55227Y-30967D01*
X55236Y-30948D01*
X55236Y-30920D01*
X55227Y-30901D01*
X55217Y-30892D01*
X55133Y-30732D02*
X55133Y-30798D01*
X55236Y-30798D02*
X55039Y-30798D01*
X55039Y-30704D01*
X55030Y-30488D02*
X55283Y-30657D01*
X55236Y-30320D02*
X55236Y-30432D01*
X55236Y-30376D02*
X55039Y-30376D01*
X55067Y-30395D01*
X55086Y-30414D01*
X55096Y-30432D01*
X55039Y-30151D02*
X55039Y-30188D01*
X55049Y-30207D01*
X55058Y-30216D01*
X55086Y-30235D01*
X55124Y-30244D01*
X55199Y-30244D01*
X55217Y-30235D01*
X55227Y-30226D01*
X55236Y-30207D01*
X55236Y-30169D01*
X55227Y-30151D01*
X55217Y-30141D01*
X55199Y-30132D01*
X55152Y-30132D01*
X55133Y-30141D01*
X55124Y-30151D01*
X55114Y-30169D01*
X55114Y-30207D01*
X55124Y-30226D01*
X55133Y-30235D01*
X55152Y-30244D01*
X55039Y-30075D02*
X55236Y-30010D01*
X55039Y-29944D01*
G54D25*
X40998Y-32130D02*
X40979Y-32149D01*
X40923Y-32167D01*
X40885Y-32167D01*
X40829Y-32149D01*
X40792Y-32111D01*
X40773Y-32074D01*
X40754Y-31999D01*
X40754Y-31942D01*
X40773Y-31867D01*
X40792Y-31830D01*
X40829Y-31792D01*
X40885Y-31773D01*
X40923Y-31773D01*
X40979Y-31792D01*
X40998Y-31811D01*
X41373Y-32167D02*
X41148Y-32167D01*
X41261Y-32167D02*
X41261Y-31773D01*
X41223Y-31830D01*
X41186Y-31867D01*
X41148Y-31886D01*
X39942Y-32757D02*
X39717Y-32757D01*
X39830Y-32757D02*
X39830Y-32363D01*
X39792Y-32420D01*
X39755Y-32457D01*
X39717Y-32476D01*
X40186Y-32363D02*
X40223Y-32363D01*
X40261Y-32382D01*
X40280Y-32401D01*
X40298Y-32439D01*
X40317Y-32514D01*
X40317Y-32607D01*
X40298Y-32682D01*
X40280Y-32720D01*
X40261Y-32739D01*
X40223Y-32757D01*
X40186Y-32757D01*
X40148Y-32739D01*
X40130Y-32720D01*
X40111Y-32682D01*
X40092Y-32607D01*
X40092Y-32514D01*
X40111Y-32439D01*
X40130Y-32401D01*
X40148Y-32382D01*
X40186Y-32363D01*
X40561Y-32363D02*
X40598Y-32363D01*
X40636Y-32382D01*
X40655Y-32401D01*
X40673Y-32439D01*
X40692Y-32514D01*
X40692Y-32607D01*
X40673Y-32682D01*
X40655Y-32720D01*
X40636Y-32739D01*
X40598Y-32757D01*
X40561Y-32757D01*
X40523Y-32739D01*
X40505Y-32720D01*
X40486Y-32682D01*
X40467Y-32607D01*
X40467Y-32514D01*
X40486Y-32439D01*
X40505Y-32401D01*
X40523Y-32382D01*
X40561Y-32363D01*
X40861Y-32495D02*
X40861Y-32757D01*
X40861Y-32532D02*
X40880Y-32514D01*
X40917Y-32495D01*
X40973Y-32495D01*
X41011Y-32514D01*
X41030Y-32551D01*
X41030Y-32757D01*
X41348Y-32551D02*
X41217Y-32551D01*
X41217Y-32757D02*
X41217Y-32363D01*
X41404Y-32363D01*
G54D13*
X55109Y-29173D02*
X55044Y-29079D01*
X54997Y-29173D02*
X54997Y-28976D01*
X55072Y-28976D01*
X55091Y-28986D01*
X55100Y-28995D01*
X55109Y-29014D01*
X55109Y-29042D01*
X55100Y-29061D01*
X55091Y-29070D01*
X55072Y-29079D01*
X54997Y-29079D01*
X55297Y-29173D02*
X55185Y-29173D01*
X55241Y-29173D02*
X55241Y-28976D01*
X55222Y-29004D01*
X55203Y-29023D01*
X55185Y-29033D01*
X55476Y-28976D02*
X55382Y-28976D01*
X55373Y-29070D01*
X55382Y-29061D01*
X55401Y-29051D01*
X55448Y-29051D01*
X55466Y-29061D01*
X55476Y-29070D01*
X55485Y-29089D01*
X55485Y-29136D01*
X55476Y-29154D01*
X55466Y-29164D01*
X55448Y-29173D01*
X55401Y-29173D01*
X55382Y-29164D01*
X55373Y-29154D01*
X55198Y-29567D02*
X55086Y-29567D01*
X55142Y-29567D02*
X55142Y-29370D01*
X55123Y-29398D01*
X55104Y-29417D01*
X55086Y-29427D01*
X55386Y-29567D02*
X55274Y-29567D01*
X55330Y-29567D02*
X55330Y-29370D01*
X55311Y-29398D01*
X55292Y-29417D01*
X55274Y-29427D01*
X55471Y-29567D02*
X55471Y-29370D01*
X55490Y-29492D02*
X55546Y-29567D01*
X55546Y-29436D02*
X55471Y-29511D01*
X52865Y-29173D02*
X52800Y-29079D01*
X52753Y-29173D02*
X52753Y-28976D01*
X52828Y-28976D01*
X52847Y-28986D01*
X52856Y-28995D01*
X52865Y-29014D01*
X52865Y-29042D01*
X52856Y-29061D01*
X52847Y-29070D01*
X52828Y-29079D01*
X52753Y-29079D01*
X53053Y-29173D02*
X52941Y-29173D01*
X52997Y-29173D02*
X52997Y-28976D01*
X52978Y-29004D01*
X52959Y-29023D01*
X52941Y-29033D01*
X53222Y-29042D02*
X53222Y-29173D01*
X53175Y-28967D02*
X53129Y-29108D01*
X53250Y-29108D01*
X52875Y-29646D02*
X52763Y-29646D01*
X52819Y-29646D02*
X52819Y-29449D01*
X52800Y-29477D01*
X52781Y-29496D01*
X52763Y-29506D01*
X52988Y-29534D02*
X52969Y-29524D01*
X52960Y-29515D01*
X52951Y-29496D01*
X52951Y-29487D01*
X52960Y-29468D01*
X52969Y-29459D01*
X52988Y-29449D01*
X53026Y-29449D01*
X53044Y-29459D01*
X53054Y-29468D01*
X53063Y-29487D01*
X53063Y-29496D01*
X53054Y-29515D01*
X53044Y-29524D01*
X53026Y-29534D01*
X52988Y-29534D01*
X52969Y-29543D01*
X52960Y-29552D01*
X52951Y-29571D01*
X52951Y-29609D01*
X52960Y-29627D01*
X52969Y-29637D01*
X52988Y-29646D01*
X53026Y-29646D01*
X53044Y-29637D01*
X53054Y-29627D01*
X53063Y-29609D01*
X53063Y-29571D01*
X53054Y-29552D01*
X53044Y-29543D01*
X53026Y-29534D01*
X53148Y-29646D02*
X53148Y-29449D01*
X53167Y-29571D02*
X53223Y-29646D01*
X53223Y-29515D02*
X53148Y-29590D01*
G54D25*
X39108Y-33624D02*
X38977Y-33437D01*
X38883Y-33624D02*
X38883Y-33230D01*
X39033Y-33230D01*
X39070Y-33249D01*
X39089Y-33268D01*
X39108Y-33306D01*
X39108Y-33362D01*
X39089Y-33399D01*
X39070Y-33418D01*
X39033Y-33437D01*
X38883Y-33437D01*
X39446Y-33362D02*
X39446Y-33624D01*
X39352Y-33212D02*
X39258Y-33493D01*
X39502Y-33493D01*
X38782Y-34135D02*
X38557Y-34135D01*
X38670Y-34135D02*
X38670Y-33741D01*
X38632Y-33798D01*
X38595Y-33835D01*
X38557Y-33854D01*
X39026Y-33741D02*
X39063Y-33741D01*
X39101Y-33760D01*
X39120Y-33779D01*
X39138Y-33817D01*
X39157Y-33892D01*
X39157Y-33985D01*
X39138Y-34060D01*
X39120Y-34098D01*
X39101Y-34117D01*
X39063Y-34135D01*
X39026Y-34135D01*
X38988Y-34117D01*
X38970Y-34098D01*
X38951Y-34060D01*
X38932Y-33985D01*
X38932Y-33892D01*
X38951Y-33817D01*
X38970Y-33779D01*
X38988Y-33760D01*
X39026Y-33741D01*
X39326Y-34135D02*
X39326Y-33741D01*
X39363Y-33985D02*
X39476Y-34135D01*
X39476Y-33873D02*
X39326Y-34023D01*
X56155Y-35750D02*
X56024Y-35563D01*
X55930Y-35750D02*
X55930Y-35356D01*
X56080Y-35356D01*
X56117Y-35375D01*
X56136Y-35394D01*
X56155Y-35432D01*
X56155Y-35488D01*
X56136Y-35525D01*
X56117Y-35544D01*
X56080Y-35563D01*
X55930Y-35563D01*
X56286Y-35356D02*
X56530Y-35356D01*
X56399Y-35507D01*
X56455Y-35507D01*
X56493Y-35525D01*
X56511Y-35544D01*
X56530Y-35582D01*
X56530Y-35675D01*
X56511Y-35713D01*
X56493Y-35732D01*
X56455Y-35750D01*
X56343Y-35750D01*
X56305Y-35732D01*
X56286Y-35713D01*
X56144Y-36301D02*
X55919Y-36301D01*
X56032Y-36301D02*
X56032Y-35907D01*
X55994Y-35964D01*
X55957Y-36001D01*
X55919Y-36020D01*
X56388Y-35907D02*
X56425Y-35907D01*
X56463Y-35926D01*
X56482Y-35945D01*
X56500Y-35983D01*
X56519Y-36058D01*
X56519Y-36151D01*
X56500Y-36226D01*
X56482Y-36264D01*
X56463Y-36283D01*
X56425Y-36301D01*
X56388Y-36301D01*
X56350Y-36283D01*
X56332Y-36264D01*
X56313Y-36226D01*
X56294Y-36151D01*
X56294Y-36058D01*
X56313Y-35983D01*
X56332Y-35945D01*
X56350Y-35926D01*
X56388Y-35907D01*
X56688Y-36301D02*
X56688Y-35907D01*
X56725Y-36151D02*
X56838Y-36301D01*
X56838Y-36039D02*
X56688Y-36189D01*
X53872Y-35710D02*
X53741Y-35523D01*
X53647Y-35710D02*
X53647Y-35316D01*
X53797Y-35316D01*
X53834Y-35335D01*
X53853Y-35354D01*
X53872Y-35392D01*
X53872Y-35448D01*
X53853Y-35485D01*
X53834Y-35504D01*
X53797Y-35523D01*
X53647Y-35523D01*
X54022Y-35354D02*
X54041Y-35335D01*
X54078Y-35316D01*
X54172Y-35316D01*
X54210Y-35335D01*
X54228Y-35354D01*
X54247Y-35392D01*
X54247Y-35429D01*
X54228Y-35485D01*
X54003Y-35710D01*
X54247Y-35710D01*
X53546Y-36261D02*
X53321Y-36261D01*
X53434Y-36261D02*
X53434Y-35867D01*
X53396Y-35924D01*
X53359Y-35961D01*
X53321Y-35980D01*
X53790Y-35867D02*
X53827Y-35867D01*
X53865Y-35886D01*
X53884Y-35905D01*
X53902Y-35943D01*
X53921Y-36018D01*
X53921Y-36111D01*
X53902Y-36186D01*
X53884Y-36224D01*
X53865Y-36243D01*
X53827Y-36261D01*
X53790Y-36261D01*
X53752Y-36243D01*
X53734Y-36224D01*
X53715Y-36186D01*
X53696Y-36111D01*
X53696Y-36018D01*
X53715Y-35943D01*
X53734Y-35905D01*
X53752Y-35886D01*
X53790Y-35867D01*
X54090Y-36261D02*
X54090Y-35867D01*
X54127Y-36111D02*
X54240Y-36261D01*
X54240Y-35999D02*
X54090Y-36149D01*
X43242Y-27915D02*
X43111Y-27728D01*
X43017Y-27915D02*
X43017Y-27521D01*
X43167Y-27521D01*
X43204Y-27540D01*
X43223Y-27559D01*
X43242Y-27597D01*
X43242Y-27653D01*
X43223Y-27690D01*
X43204Y-27709D01*
X43167Y-27728D01*
X43017Y-27728D01*
X43617Y-27915D02*
X43392Y-27915D01*
X43505Y-27915D02*
X43505Y-27521D01*
X43467Y-27578D01*
X43430Y-27615D01*
X43392Y-27634D01*
X42229Y-28149D02*
X42248Y-28130D01*
X42285Y-28111D01*
X42379Y-28111D01*
X42417Y-28130D01*
X42435Y-28149D01*
X42454Y-28187D01*
X42454Y-28224D01*
X42435Y-28280D01*
X42210Y-28505D01*
X42454Y-28505D01*
X42585Y-28111D02*
X42848Y-28111D01*
X42679Y-28505D01*
X43073Y-28111D02*
X43110Y-28111D01*
X43148Y-28130D01*
X43167Y-28149D01*
X43185Y-28187D01*
X43204Y-28262D01*
X43204Y-28355D01*
X43185Y-28430D01*
X43167Y-28468D01*
X43148Y-28487D01*
X43110Y-28505D01*
X43073Y-28505D01*
X43035Y-28487D01*
X43017Y-28468D01*
X42998Y-28430D01*
X42979Y-28355D01*
X42979Y-28262D01*
X42998Y-28187D01*
X43017Y-28149D01*
X43035Y-28130D01*
X43073Y-28111D01*
X43598Y-28505D02*
X43467Y-28318D01*
X43373Y-28505D02*
X43373Y-28111D01*
X43523Y-28111D01*
X43560Y-28130D01*
X43579Y-28149D01*
X43598Y-28187D01*
X43598Y-28243D01*
X43579Y-28280D01*
X43560Y-28299D01*
X43523Y-28318D01*
X43373Y-28318D01*
X50762Y-32287D02*
X50743Y-32306D01*
X50687Y-32324D01*
X50649Y-32324D01*
X50593Y-32306D01*
X50556Y-32268D01*
X50537Y-32231D01*
X50518Y-32156D01*
X50518Y-32099D01*
X50537Y-32024D01*
X50556Y-31987D01*
X50593Y-31949D01*
X50649Y-31930D01*
X50687Y-31930D01*
X50743Y-31949D01*
X50762Y-31968D01*
X50912Y-31968D02*
X50931Y-31949D01*
X50968Y-31930D01*
X51062Y-31930D01*
X51100Y-31949D01*
X51118Y-31968D01*
X51137Y-32006D01*
X51137Y-32043D01*
X51118Y-32099D01*
X50893Y-32324D01*
X51137Y-32324D01*
X50769Y-32915D02*
X50544Y-32915D01*
X50657Y-32915D02*
X50657Y-32521D01*
X50619Y-32578D01*
X50582Y-32615D01*
X50544Y-32634D01*
X51013Y-32521D02*
X51050Y-32521D01*
X51088Y-32540D01*
X51107Y-32559D01*
X51125Y-32597D01*
X51144Y-32672D01*
X51144Y-32765D01*
X51125Y-32840D01*
X51107Y-32878D01*
X51088Y-32897D01*
X51050Y-32915D01*
X51013Y-32915D01*
X50975Y-32897D01*
X50957Y-32878D01*
X50938Y-32840D01*
X50919Y-32765D01*
X50919Y-32672D01*
X50938Y-32597D01*
X50957Y-32559D01*
X50975Y-32540D01*
X51013Y-32521D01*
X51388Y-32521D02*
X51425Y-32521D01*
X51463Y-32540D01*
X51482Y-32559D01*
X51500Y-32597D01*
X51519Y-32672D01*
X51519Y-32765D01*
X51500Y-32840D01*
X51482Y-32878D01*
X51463Y-32897D01*
X51425Y-32915D01*
X51388Y-32915D01*
X51350Y-32897D01*
X51332Y-32878D01*
X51313Y-32840D01*
X51294Y-32765D01*
X51294Y-32672D01*
X51313Y-32597D01*
X51332Y-32559D01*
X51350Y-32540D01*
X51388Y-32521D01*
X51688Y-32653D02*
X51688Y-32915D01*
X51688Y-32690D02*
X51707Y-32672D01*
X51744Y-32653D01*
X51800Y-32653D01*
X51838Y-32672D01*
X51857Y-32709D01*
X51857Y-32915D01*
X52175Y-32709D02*
X52044Y-32709D01*
X52044Y-32915D02*
X52044Y-32521D01*
X52231Y-32521D01*
G54D13*
X55006Y-38052D02*
X54997Y-38062D01*
X54969Y-38071D01*
X54950Y-38071D01*
X54922Y-38062D01*
X54903Y-38043D01*
X54894Y-38024D01*
X54885Y-37987D01*
X54885Y-37959D01*
X54894Y-37921D01*
X54903Y-37902D01*
X54922Y-37884D01*
X54950Y-37874D01*
X54969Y-37874D01*
X54997Y-37884D01*
X55006Y-37893D01*
X55072Y-37874D02*
X55194Y-37874D01*
X55128Y-37949D01*
X55157Y-37949D01*
X55175Y-37959D01*
X55185Y-37968D01*
X55194Y-37987D01*
X55194Y-38034D01*
X55185Y-38052D01*
X55175Y-38062D01*
X55157Y-38071D01*
X55100Y-38071D01*
X55082Y-38062D01*
X55072Y-38052D01*
X55561Y-38071D02*
X55449Y-38071D01*
X55505Y-38071D02*
X55505Y-37874D01*
X55486Y-37902D01*
X55467Y-37921D01*
X55449Y-37931D01*
X55683Y-37874D02*
X55702Y-37874D01*
X55721Y-37884D01*
X55730Y-37893D01*
X55740Y-37912D01*
X55749Y-37949D01*
X55749Y-37996D01*
X55740Y-38034D01*
X55730Y-38052D01*
X55721Y-38062D01*
X55702Y-38071D01*
X55683Y-38071D01*
X55665Y-38062D01*
X55655Y-38052D01*
X55646Y-38034D01*
X55637Y-37996D01*
X55637Y-37949D01*
X55646Y-37912D01*
X55655Y-37893D01*
X55665Y-37884D01*
X55683Y-37874D01*
X55871Y-37874D02*
X55890Y-37874D01*
X55909Y-37884D01*
X55918Y-37893D01*
X55928Y-37912D01*
X55937Y-37949D01*
X55937Y-37996D01*
X55928Y-38034D01*
X55918Y-38052D01*
X55909Y-38062D01*
X55890Y-38071D01*
X55871Y-38071D01*
X55853Y-38062D01*
X55843Y-38052D01*
X55834Y-38034D01*
X55825Y-37996D01*
X55825Y-37949D01*
X55834Y-37912D01*
X55843Y-37893D01*
X55853Y-37884D01*
X55871Y-37874D01*
X56022Y-37940D02*
X56022Y-38071D01*
X56022Y-37959D02*
X56031Y-37949D01*
X56050Y-37940D01*
X56078Y-37940D01*
X56097Y-37949D01*
X56106Y-37968D01*
X56106Y-38071D01*
X56266Y-37968D02*
X56200Y-37968D01*
X56200Y-38071D02*
X56200Y-37874D01*
X56294Y-37874D01*
G54D25*
X62188Y-30398D02*
X62169Y-30417D01*
X62113Y-30435D01*
X62075Y-30435D01*
X62019Y-30417D01*
X61982Y-30379D01*
X61963Y-30342D01*
X61944Y-30267D01*
X61944Y-30210D01*
X61963Y-30135D01*
X61982Y-30098D01*
X62019Y-30060D01*
X62075Y-30041D01*
X62113Y-30041D01*
X62169Y-30060D01*
X62188Y-30079D01*
X62338Y-30079D02*
X62357Y-30060D01*
X62394Y-30041D01*
X62488Y-30041D01*
X62526Y-30060D01*
X62544Y-30079D01*
X62563Y-30117D01*
X62563Y-30154D01*
X62544Y-30210D01*
X62319Y-30435D01*
X62563Y-30435D01*
X62919Y-30041D02*
X62732Y-30041D01*
X62713Y-30229D01*
X62732Y-30210D01*
X62769Y-30192D01*
X62863Y-30192D01*
X62901Y-30210D01*
X62919Y-30229D01*
X62938Y-30267D01*
X62938Y-30360D01*
X62919Y-30398D01*
X62901Y-30417D01*
X62863Y-30435D01*
X62769Y-30435D01*
X62732Y-30417D01*
X62713Y-30398D01*
X62026Y-30800D02*
X61989Y-30782D01*
X61970Y-30763D01*
X61951Y-30725D01*
X61951Y-30707D01*
X61970Y-30669D01*
X61989Y-30650D01*
X62026Y-30631D01*
X62101Y-30631D01*
X62139Y-30650D01*
X62157Y-30669D01*
X62176Y-30707D01*
X62176Y-30725D01*
X62157Y-30763D01*
X62139Y-30782D01*
X62101Y-30800D01*
X62026Y-30800D01*
X61989Y-30819D01*
X61970Y-30838D01*
X61951Y-30875D01*
X61951Y-30950D01*
X61970Y-30988D01*
X61989Y-31007D01*
X62026Y-31025D01*
X62101Y-31025D01*
X62139Y-31007D01*
X62157Y-30988D01*
X62176Y-30950D01*
X62176Y-30875D01*
X62157Y-30838D01*
X62139Y-30819D01*
X62101Y-30800D01*
X62326Y-30669D02*
X62345Y-30650D01*
X62382Y-30631D01*
X62476Y-30631D01*
X62514Y-30650D01*
X62532Y-30669D01*
X62551Y-30707D01*
X62551Y-30744D01*
X62532Y-30800D01*
X62307Y-31025D01*
X62551Y-31025D01*
X62720Y-30763D02*
X62720Y-31157D01*
X62720Y-30782D02*
X62757Y-30763D01*
X62832Y-30763D01*
X62870Y-30782D01*
X62889Y-30800D01*
X62907Y-30838D01*
X62907Y-30950D01*
X62889Y-30988D01*
X62870Y-31007D01*
X62832Y-31025D01*
X62757Y-31025D01*
X62720Y-31007D01*
X63207Y-30819D02*
X63076Y-30819D01*
X63076Y-31025D02*
X63076Y-30631D01*
X63263Y-30631D01*
X42396Y-37128D02*
X42396Y-36734D01*
X42546Y-36734D01*
X42583Y-36753D01*
X42602Y-36772D01*
X42621Y-36810D01*
X42621Y-36866D01*
X42602Y-36903D01*
X42583Y-36922D01*
X42546Y-36941D01*
X42396Y-36941D01*
X42996Y-37128D02*
X42771Y-37128D01*
X42884Y-37128D02*
X42884Y-36734D01*
X42846Y-36791D01*
X42809Y-36828D01*
X42771Y-36847D01*
X43127Y-36734D02*
X43371Y-36734D01*
X43240Y-36885D01*
X43296Y-36885D01*
X43334Y-36903D01*
X43352Y-36922D01*
X43371Y-36960D01*
X43371Y-37053D01*
X43352Y-37091D01*
X43334Y-37110D01*
X43296Y-37128D01*
X43184Y-37128D01*
X43146Y-37110D01*
X43127Y-37091D01*
X39775Y-34621D02*
X39775Y-34883D01*
X39775Y-34658D02*
X39794Y-34640D01*
X39831Y-34621D01*
X39887Y-34621D01*
X39925Y-34640D01*
X39944Y-34677D01*
X39944Y-34883D01*
X40356Y-34883D02*
X40225Y-34696D01*
X40131Y-34883D02*
X40131Y-34489D01*
X40281Y-34489D01*
X40318Y-34508D01*
X40337Y-34527D01*
X40356Y-34565D01*
X40356Y-34621D01*
X40337Y-34658D01*
X40318Y-34677D01*
X40281Y-34696D01*
X40131Y-34696D01*
X40656Y-34677D02*
X40525Y-34677D01*
X40525Y-34883D02*
X40525Y-34489D01*
X40712Y-34489D01*
X40844Y-34527D02*
X40863Y-34508D01*
X40900Y-34489D01*
X40994Y-34489D01*
X41032Y-34508D01*
X41050Y-34527D01*
X41069Y-34565D01*
X41069Y-34602D01*
X41050Y-34658D01*
X40825Y-34883D01*
X41069Y-34883D01*
X41407Y-34621D02*
X41407Y-34883D01*
X41313Y-34471D02*
X41219Y-34752D01*
X41463Y-34752D01*
X41800Y-34883D02*
X41613Y-34883D01*
X41613Y-34489D01*
X42007Y-34489D02*
X42044Y-34489D01*
X42082Y-34508D01*
X42101Y-34527D01*
X42119Y-34565D01*
X42138Y-34640D01*
X42138Y-34733D01*
X42119Y-34808D01*
X42101Y-34846D01*
X42082Y-34865D01*
X42044Y-34883D01*
X42007Y-34883D01*
X41969Y-34865D01*
X41951Y-34846D01*
X41932Y-34808D01*
X41913Y-34733D01*
X41913Y-34640D01*
X41932Y-34565D01*
X41951Y-34527D01*
X41969Y-34508D01*
X42007Y-34489D01*
X42513Y-34883D02*
X42288Y-34883D01*
X42401Y-34883D02*
X42401Y-34489D01*
X42363Y-34546D01*
X42326Y-34583D01*
X42288Y-34602D01*
X42682Y-34733D02*
X42982Y-34733D01*
X42832Y-34883D02*
X42832Y-34583D01*
X47908Y-36264D02*
X47889Y-36283D01*
X47833Y-36301D01*
X47795Y-36301D01*
X47739Y-36283D01*
X47702Y-36245D01*
X47683Y-36208D01*
X47664Y-36133D01*
X47664Y-36076D01*
X47683Y-36001D01*
X47702Y-35964D01*
X47739Y-35926D01*
X47795Y-35907D01*
X47833Y-35907D01*
X47889Y-35926D01*
X47908Y-35945D01*
X48152Y-35907D02*
X48227Y-35907D01*
X48264Y-35926D01*
X48302Y-35964D01*
X48321Y-36039D01*
X48321Y-36170D01*
X48302Y-36245D01*
X48264Y-36283D01*
X48227Y-36301D01*
X48152Y-36301D01*
X48114Y-36283D01*
X48077Y-36245D01*
X48058Y-36170D01*
X48058Y-36039D01*
X48077Y-35964D01*
X48114Y-35926D01*
X48152Y-35907D01*
X48490Y-36301D02*
X48490Y-35907D01*
X48715Y-36301D01*
X48715Y-35907D01*
X49109Y-36301D02*
X48884Y-36301D01*
X48997Y-36301D02*
X48997Y-35907D01*
X48959Y-35964D01*
X48922Y-36001D01*
X48884Y-36020D01*
X48317Y-37049D02*
X48317Y-36655D01*
X48486Y-37031D02*
X48542Y-37049D01*
X48636Y-37049D01*
X48674Y-37031D01*
X48692Y-37012D01*
X48711Y-36974D01*
X48711Y-36937D01*
X48692Y-36899D01*
X48674Y-36881D01*
X48636Y-36862D01*
X48561Y-36843D01*
X48524Y-36824D01*
X48505Y-36806D01*
X48486Y-36768D01*
X48486Y-36731D01*
X48505Y-36693D01*
X48524Y-36674D01*
X48561Y-36655D01*
X48655Y-36655D01*
X48711Y-36674D01*
X48880Y-37049D02*
X48880Y-36655D01*
X49030Y-36655D01*
X49067Y-36674D01*
X49086Y-36693D01*
X49105Y-36731D01*
X49105Y-36787D01*
X49086Y-36824D01*
X49067Y-36843D01*
X49030Y-36862D01*
X48880Y-36862D01*
X43017Y-26734D02*
X43017Y-26340D01*
X43111Y-26340D01*
X43167Y-26359D01*
X43204Y-26397D01*
X43223Y-26434D01*
X43242Y-26509D01*
X43242Y-26566D01*
X43223Y-26641D01*
X43204Y-26678D01*
X43167Y-26716D01*
X43111Y-26734D01*
X43017Y-26734D01*
X43617Y-26734D02*
X43392Y-26734D01*
X43505Y-26734D02*
X43505Y-26340D01*
X43467Y-26397D01*
X43430Y-26434D01*
X43392Y-26453D01*
X42857Y-27324D02*
X42670Y-27324D01*
X42670Y-26930D01*
X42989Y-27118D02*
X43120Y-27118D01*
X43176Y-27324D02*
X42989Y-27324D01*
X42989Y-26930D01*
X43176Y-26930D01*
X43345Y-27324D02*
X43345Y-26930D01*
X43439Y-26930D01*
X43495Y-26949D01*
X43532Y-26987D01*
X43551Y-27024D01*
X43570Y-27099D01*
X43570Y-27156D01*
X43551Y-27231D01*
X43532Y-27268D01*
X43495Y-27306D01*
X43439Y-27324D01*
X43345Y-27324D01*
X58320Y-32442D02*
X58133Y-32442D01*
X58133Y-32048D01*
X58639Y-32048D02*
X58452Y-32048D01*
X58433Y-32236D01*
X58452Y-32217D01*
X58489Y-32199D01*
X58583Y-32199D01*
X58621Y-32217D01*
X58639Y-32236D01*
X58658Y-32274D01*
X58658Y-32367D01*
X58639Y-32405D01*
X58621Y-32424D01*
X58583Y-32442D01*
X58489Y-32442D01*
X58452Y-32424D01*
X58433Y-32405D01*
X56038Y-30749D02*
X56282Y-30749D01*
X56151Y-30900D01*
X56207Y-30900D01*
X56245Y-30918D01*
X56263Y-30937D01*
X56282Y-30975D01*
X56282Y-31068D01*
X56263Y-31106D01*
X56245Y-31125D01*
X56207Y-31143D01*
X56095Y-31143D01*
X56057Y-31125D01*
X56038Y-31106D01*
X56413Y-30749D02*
X56657Y-30749D01*
X56526Y-30900D01*
X56582Y-30900D01*
X56620Y-30918D01*
X56638Y-30937D01*
X56657Y-30975D01*
X56657Y-31068D01*
X56638Y-31106D01*
X56620Y-31125D01*
X56582Y-31143D01*
X56470Y-31143D01*
X56432Y-31125D01*
X56413Y-31106D01*
X56901Y-30749D02*
X56938Y-30749D01*
X56976Y-30768D01*
X56995Y-30787D01*
X57013Y-30825D01*
X57032Y-30900D01*
X57032Y-30993D01*
X57013Y-31068D01*
X56995Y-31106D01*
X56976Y-31125D01*
X56938Y-31143D01*
X56901Y-31143D01*
X56863Y-31125D01*
X56845Y-31106D01*
X56826Y-31068D01*
X56807Y-30993D01*
X56807Y-30900D01*
X56826Y-30825D01*
X56845Y-30787D01*
X56863Y-30768D01*
X56901Y-30749D01*
X57370Y-30881D02*
X57370Y-31143D01*
X57201Y-30881D02*
X57201Y-31087D01*
X57220Y-31125D01*
X57257Y-31143D01*
X57313Y-31143D01*
X57351Y-31125D01*
X57370Y-31106D01*
X57557Y-31143D02*
X57557Y-30749D01*
X57557Y-30937D02*
X57782Y-30937D01*
X57782Y-31143D02*
X57782Y-30749D01*
X58017Y-33112D02*
X58017Y-32718D01*
X58111Y-32718D01*
X58167Y-32737D01*
X58204Y-32775D01*
X58223Y-32812D01*
X58242Y-32887D01*
X58242Y-32944D01*
X58223Y-33019D01*
X58204Y-33056D01*
X58167Y-33094D01*
X58111Y-33112D01*
X58017Y-33112D01*
X58598Y-32718D02*
X58411Y-32718D01*
X58392Y-32906D01*
X58411Y-32887D01*
X58448Y-32869D01*
X58542Y-32869D01*
X58580Y-32887D01*
X58598Y-32906D01*
X58617Y-32944D01*
X58617Y-33037D01*
X58598Y-33075D01*
X58580Y-33094D01*
X58542Y-33112D01*
X58448Y-33112D01*
X58411Y-33094D01*
X58392Y-33075D01*
X59166Y-33802D02*
X59222Y-33820D01*
X59316Y-33820D01*
X59354Y-33802D01*
X59372Y-33783D01*
X59391Y-33745D01*
X59391Y-33708D01*
X59372Y-33670D01*
X59354Y-33652D01*
X59316Y-33633D01*
X59241Y-33614D01*
X59204Y-33595D01*
X59185Y-33577D01*
X59166Y-33539D01*
X59166Y-33502D01*
X59185Y-33464D01*
X59204Y-33445D01*
X59241Y-33426D01*
X59335Y-33426D01*
X59391Y-33445D01*
X59560Y-33820D02*
X59560Y-33426D01*
X59785Y-33820D02*
X59616Y-33595D01*
X59785Y-33426D02*
X59560Y-33652D01*
X59860Y-33858D02*
X60160Y-33858D01*
X60216Y-33426D02*
X60460Y-33426D01*
X60329Y-33577D01*
X60385Y-33577D01*
X60423Y-33595D01*
X60441Y-33614D01*
X60460Y-33652D01*
X60460Y-33745D01*
X60441Y-33783D01*
X60423Y-33802D01*
X60385Y-33820D01*
X60273Y-33820D01*
X60235Y-33802D01*
X60216Y-33783D01*
X60798Y-33558D02*
X60798Y-33820D01*
X60704Y-33408D02*
X60610Y-33689D01*
X60854Y-33689D01*
X58172Y-29295D02*
X58153Y-29314D01*
X58097Y-29332D01*
X58059Y-29332D01*
X58003Y-29314D01*
X57966Y-29276D01*
X57947Y-29239D01*
X57928Y-29164D01*
X57928Y-29107D01*
X57947Y-29032D01*
X57966Y-28995D01*
X58003Y-28957D01*
X58059Y-28938D01*
X58097Y-28938D01*
X58153Y-28957D01*
X58172Y-28976D01*
X58322Y-28976D02*
X58341Y-28957D01*
X58378Y-28938D01*
X58472Y-28938D01*
X58510Y-28957D01*
X58528Y-28976D01*
X58547Y-29014D01*
X58547Y-29051D01*
X58528Y-29107D01*
X58303Y-29332D01*
X58547Y-29332D01*
X58678Y-28938D02*
X58922Y-28938D01*
X58791Y-29089D01*
X58847Y-29089D01*
X58885Y-29107D01*
X58903Y-29126D01*
X58922Y-29164D01*
X58922Y-29257D01*
X58903Y-29295D01*
X58885Y-29314D01*
X58847Y-29332D01*
X58735Y-29332D01*
X58697Y-29314D01*
X58678Y-29295D01*
X55662Y-27480D02*
X55677Y-27461D01*
X55707Y-27442D01*
X55782Y-27442D01*
X55812Y-27461D01*
X55827Y-27480D01*
X55842Y-27518D01*
X55842Y-27555D01*
X55827Y-27611D01*
X55647Y-27836D01*
X55842Y-27836D01*
X55962Y-27480D02*
X55977Y-27461D01*
X56007Y-27442D01*
X56082Y-27442D01*
X56112Y-27461D01*
X56127Y-27480D01*
X56142Y-27518D01*
X56142Y-27555D01*
X56127Y-27611D01*
X55947Y-27836D01*
X56142Y-27836D01*
X56337Y-27442D02*
X56367Y-27442D01*
X56397Y-27461D01*
X56412Y-27480D01*
X56427Y-27518D01*
X56442Y-27593D01*
X56442Y-27686D01*
X56427Y-27761D01*
X56412Y-27799D01*
X56397Y-27818D01*
X56367Y-27836D01*
X56337Y-27836D01*
X56307Y-27818D01*
X56292Y-27799D01*
X56277Y-27761D01*
X56262Y-27686D01*
X56262Y-27593D01*
X56277Y-27518D01*
X56292Y-27480D01*
X56307Y-27461D01*
X56337Y-27442D01*
X56712Y-27574D02*
X56712Y-27836D01*
X56577Y-27574D02*
X56577Y-27780D01*
X56592Y-27818D01*
X56622Y-27836D01*
X56667Y-27836D01*
X56697Y-27818D01*
X56712Y-27799D01*
X56967Y-27630D02*
X56862Y-27630D01*
X56862Y-27836D02*
X56862Y-27442D01*
X57012Y-27442D01*
X57357Y-27424D02*
X57087Y-27930D01*
X57432Y-27442D02*
X57627Y-27442D01*
X57522Y-27593D01*
X57567Y-27593D01*
X57597Y-27611D01*
X57612Y-27630D01*
X57627Y-27668D01*
X57627Y-27761D01*
X57612Y-27799D01*
X57597Y-27818D01*
X57567Y-27836D01*
X57477Y-27836D01*
X57447Y-27818D01*
X57432Y-27799D01*
X57912Y-27442D02*
X57762Y-27442D01*
X57747Y-27630D01*
X57762Y-27611D01*
X57792Y-27593D01*
X57867Y-27593D01*
X57897Y-27611D01*
X57912Y-27630D01*
X57927Y-27668D01*
X57927Y-27761D01*
X57912Y-27799D01*
X57897Y-27818D01*
X57867Y-27836D01*
X57792Y-27836D01*
X57762Y-27818D01*
X57747Y-27799D01*
X58017Y-27442D02*
X58122Y-27836D01*
X58227Y-27442D01*
X64156Y-26421D02*
X64137Y-26440D01*
X64081Y-26458D01*
X64043Y-26458D01*
X63987Y-26440D01*
X63950Y-26402D01*
X63931Y-26365D01*
X63912Y-26290D01*
X63912Y-26233D01*
X63931Y-26158D01*
X63950Y-26121D01*
X63987Y-26083D01*
X64043Y-26064D01*
X64081Y-26064D01*
X64137Y-26083D01*
X64156Y-26102D01*
X64306Y-26102D02*
X64325Y-26083D01*
X64362Y-26064D01*
X64456Y-26064D01*
X64494Y-26083D01*
X64512Y-26102D01*
X64531Y-26140D01*
X64531Y-26177D01*
X64512Y-26233D01*
X64287Y-26458D01*
X64531Y-26458D01*
X64681Y-26102D02*
X64700Y-26083D01*
X64737Y-26064D01*
X64831Y-26064D01*
X64869Y-26083D01*
X64887Y-26102D01*
X64906Y-26140D01*
X64906Y-26177D01*
X64887Y-26233D01*
X64662Y-26458D01*
X64906Y-26458D01*
X61371Y-27519D02*
X61386Y-27504D01*
X61416Y-27489D01*
X61491Y-27489D01*
X61521Y-27504D01*
X61536Y-27519D01*
X61551Y-27549D01*
X61551Y-27579D01*
X61536Y-27624D01*
X61356Y-27804D01*
X61551Y-27804D01*
X61671Y-27519D02*
X61686Y-27504D01*
X61716Y-27489D01*
X61791Y-27489D01*
X61821Y-27504D01*
X61836Y-27519D01*
X61851Y-27549D01*
X61851Y-27579D01*
X61836Y-27624D01*
X61656Y-27804D01*
X61851Y-27804D01*
X62046Y-27489D02*
X62076Y-27489D01*
X62106Y-27504D01*
X62121Y-27519D01*
X62136Y-27549D01*
X62151Y-27609D01*
X62151Y-27684D01*
X62136Y-27744D01*
X62121Y-27774D01*
X62106Y-27789D01*
X62076Y-27804D01*
X62046Y-27804D01*
X62016Y-27789D01*
X62001Y-27774D01*
X61986Y-27744D01*
X61971Y-27684D01*
X61971Y-27609D01*
X61986Y-27549D01*
X62001Y-27519D01*
X62016Y-27504D01*
X62046Y-27489D01*
X62421Y-27594D02*
X62421Y-27804D01*
X62286Y-27594D02*
X62286Y-27759D01*
X62301Y-27789D01*
X62331Y-27804D01*
X62376Y-27804D01*
X62406Y-27789D01*
X62421Y-27774D01*
X62676Y-27639D02*
X62571Y-27639D01*
X62571Y-27804D02*
X62571Y-27489D01*
X62721Y-27489D01*
X63066Y-27474D02*
X62796Y-27879D01*
X63141Y-27489D02*
X63336Y-27489D01*
X63231Y-27609D01*
X63276Y-27609D01*
X63306Y-27624D01*
X63321Y-27639D01*
X63336Y-27669D01*
X63336Y-27744D01*
X63321Y-27774D01*
X63306Y-27789D01*
X63276Y-27804D01*
X63186Y-27804D01*
X63156Y-27789D01*
X63141Y-27774D01*
X63621Y-27489D02*
X63471Y-27489D01*
X63456Y-27639D01*
X63471Y-27624D01*
X63501Y-27609D01*
X63576Y-27609D01*
X63606Y-27624D01*
X63621Y-27639D01*
X63636Y-27669D01*
X63636Y-27744D01*
X63621Y-27774D01*
X63606Y-27789D01*
X63576Y-27804D01*
X63501Y-27804D01*
X63471Y-27789D01*
X63456Y-27774D01*
X63726Y-27489D02*
X63831Y-27804D01*
X63936Y-27489D01*
X51127Y-29450D02*
X51127Y-29056D01*
X51277Y-29056D01*
X51314Y-29075D01*
X51333Y-29094D01*
X51352Y-29132D01*
X51352Y-29188D01*
X51333Y-29225D01*
X51314Y-29244D01*
X51277Y-29263D01*
X51127Y-29263D01*
X51540Y-29450D02*
X51615Y-29450D01*
X51652Y-29432D01*
X51671Y-29413D01*
X51708Y-29357D01*
X51727Y-29282D01*
X51727Y-29132D01*
X51708Y-29094D01*
X51690Y-29075D01*
X51652Y-29056D01*
X51577Y-29056D01*
X51540Y-29075D01*
X51521Y-29094D01*
X51502Y-29132D01*
X51502Y-29225D01*
X51521Y-29263D01*
X51540Y-29282D01*
X51577Y-29300D01*
X51652Y-29300D01*
X51690Y-29282D01*
X51708Y-29263D01*
X51727Y-29225D01*
X49792Y-29070D02*
X49792Y-29389D01*
X49773Y-29426D01*
X49754Y-29445D01*
X49717Y-29464D01*
X49660Y-29464D01*
X49623Y-29445D01*
X49792Y-29314D02*
X49754Y-29332D01*
X49679Y-29332D01*
X49642Y-29314D01*
X49623Y-29295D01*
X49604Y-29257D01*
X49604Y-29145D01*
X49623Y-29107D01*
X49642Y-29089D01*
X49679Y-29070D01*
X49754Y-29070D01*
X49792Y-29089D01*
X49979Y-29070D02*
X49979Y-29464D01*
X49979Y-29089D02*
X50016Y-29070D01*
X50091Y-29070D01*
X50129Y-29089D01*
X50148Y-29107D01*
X50166Y-29145D01*
X50166Y-29257D01*
X50148Y-29295D01*
X50129Y-29314D01*
X50091Y-29332D01*
X50016Y-29332D01*
X49979Y-29314D01*
X50335Y-29332D02*
X50335Y-29070D01*
X50335Y-28938D02*
X50316Y-28957D01*
X50335Y-28976D01*
X50354Y-28957D01*
X50335Y-28938D01*
X50335Y-28976D01*
X50579Y-29332D02*
X50542Y-29314D01*
X50523Y-29295D01*
X50504Y-29257D01*
X50504Y-29145D01*
X50523Y-29107D01*
X50542Y-29089D01*
X50579Y-29070D01*
X50635Y-29070D01*
X50673Y-29089D01*
X50692Y-29107D01*
X50710Y-29145D01*
X50710Y-29257D01*
X50692Y-29295D01*
X50673Y-29314D01*
X50635Y-29332D01*
X50579Y-29332D01*
G54D26*
X45574Y-28273D02*
X45288Y-28273D01*
X45431Y-28273D02*
X45431Y-27773D01*
X45383Y-27845D01*
X45336Y-27892D01*
X45288Y-27916D01*
X45883Y-27773D02*
X45931Y-27773D01*
X45979Y-27797D01*
X46002Y-27821D01*
X46026Y-27869D01*
X46050Y-27964D01*
X46050Y-28083D01*
X46026Y-28178D01*
X46002Y-28226D01*
X45979Y-28250D01*
X45931Y-28273D01*
X45883Y-28273D01*
X45836Y-28250D01*
X45812Y-28226D01*
X45788Y-28178D01*
X45764Y-28083D01*
X45764Y-27964D01*
X45788Y-27869D01*
X45812Y-27821D01*
X45836Y-27797D01*
X45883Y-27773D01*
G54D25*
X37868Y-31025D02*
X37868Y-30631D01*
X38018Y-30631D01*
X38055Y-30650D01*
X38074Y-30669D01*
X38093Y-30707D01*
X38093Y-30763D01*
X38074Y-30800D01*
X38055Y-30819D01*
X38018Y-30838D01*
X37868Y-30838D01*
X38468Y-31025D02*
X38243Y-31025D01*
X38356Y-31025D02*
X38356Y-30631D01*
X38318Y-30688D01*
X38281Y-30725D01*
X38243Y-30744D01*
X38712Y-30631D02*
X38749Y-30631D01*
X38787Y-30650D01*
X38806Y-30669D01*
X38824Y-30707D01*
X38843Y-30782D01*
X38843Y-30875D01*
X38824Y-30950D01*
X38806Y-30988D01*
X38787Y-31007D01*
X38749Y-31025D01*
X38712Y-31025D01*
X38674Y-31007D01*
X38656Y-30988D01*
X38637Y-30950D01*
X38618Y-30875D01*
X38618Y-30782D01*
X38637Y-30707D01*
X38656Y-30669D01*
X38674Y-30650D01*
X38712Y-30631D01*
X38001Y-30189D02*
X37870Y-30189D01*
X37870Y-30395D02*
X37870Y-30001D01*
X38057Y-30001D01*
X38152Y-30001D02*
X38377Y-30001D01*
X38264Y-30395D02*
X38264Y-30001D01*
X38508Y-30395D02*
X38508Y-30001D01*
X38602Y-30001D01*
X38658Y-30020D01*
X38695Y-30058D01*
X38714Y-30095D01*
X38733Y-30170D01*
X38733Y-30227D01*
X38714Y-30302D01*
X38695Y-30339D01*
X38658Y-30377D01*
X38602Y-30395D01*
X38508Y-30395D01*
X38902Y-30395D02*
X38902Y-30001D01*
G54D26*
X36985Y-33566D02*
X36985Y-33661D01*
X37009Y-33709D01*
X37033Y-33732D01*
X37104Y-33780D01*
X37200Y-33804D01*
X37390Y-33804D01*
X37438Y-33780D01*
X37462Y-33756D01*
X37485Y-33709D01*
X37485Y-33613D01*
X37462Y-33566D01*
X37438Y-33542D01*
X37390Y-33518D01*
X37271Y-33518D01*
X37223Y-33542D01*
X37200Y-33566D01*
X37176Y-33613D01*
X37176Y-33709D01*
X37200Y-33756D01*
X37223Y-33780D01*
X37271Y-33804D01*
G54D25*
X68742Y-28912D02*
X68348Y-28912D01*
X68348Y-28762D01*
X68367Y-28725D01*
X68386Y-28706D01*
X68424Y-28687D01*
X68480Y-28687D01*
X68517Y-28706D01*
X68536Y-28725D01*
X68555Y-28762D01*
X68555Y-28912D01*
X68348Y-28556D02*
X68348Y-28293D01*
X68742Y-28462D01*
X66772Y-34529D02*
X66772Y-34267D01*
X66772Y-34342D02*
X66791Y-34304D01*
X66809Y-34286D01*
X66847Y-34267D01*
X66884Y-34267D01*
X67185Y-34267D02*
X67185Y-34586D01*
X67166Y-34623D01*
X67147Y-34642D01*
X67110Y-34661D01*
X67053Y-34661D01*
X67016Y-34642D01*
X67185Y-34511D02*
X67147Y-34529D01*
X67072Y-34529D01*
X67035Y-34511D01*
X67016Y-34492D01*
X66997Y-34454D01*
X66997Y-34342D01*
X67016Y-34304D01*
X67035Y-34286D01*
X67072Y-34267D01*
X67147Y-34267D01*
X67185Y-34286D01*
X67372Y-34529D02*
X67372Y-34135D01*
X67372Y-34286D02*
X67409Y-34267D01*
X67484Y-34267D01*
X67522Y-34286D01*
X67541Y-34304D01*
X67559Y-34342D01*
X67559Y-34454D01*
X67541Y-34492D01*
X67522Y-34511D01*
X67484Y-34529D01*
X67409Y-34529D01*
X67372Y-34511D01*
X67690Y-34267D02*
X67765Y-34529D01*
X67840Y-34342D01*
X67915Y-34529D01*
X67990Y-34267D01*
G54D26*
X67143Y-28706D02*
X67143Y-28944D01*
X67381Y-28968D01*
X67358Y-28944D01*
X67334Y-28896D01*
X67334Y-28777D01*
X67358Y-28730D01*
X67381Y-28706D01*
X67429Y-28682D01*
X67548Y-28682D01*
X67596Y-28706D01*
X67620Y-28730D01*
X67643Y-28777D01*
X67643Y-28896D01*
X67620Y-28944D01*
X67596Y-28968D01*
G54D25*
X62081Y-38230D02*
X62081Y-37836D01*
X62231Y-37836D01*
X62268Y-37855D01*
X62287Y-37874D01*
X62306Y-37912D01*
X62306Y-37968D01*
X62287Y-38005D01*
X62268Y-38024D01*
X62231Y-38043D01*
X62081Y-38043D01*
X62681Y-38230D02*
X62456Y-38230D01*
X62569Y-38230D02*
X62569Y-37836D01*
X62531Y-37893D01*
X62494Y-37930D01*
X62456Y-37949D01*
X62831Y-37874D02*
X62850Y-37855D01*
X62887Y-37836D01*
X62981Y-37836D01*
X63019Y-37855D01*
X63037Y-37874D01*
X63056Y-37912D01*
X63056Y-37949D01*
X63037Y-38005D01*
X62812Y-38230D01*
X63056Y-38230D01*
X56061Y-39923D02*
X56061Y-39661D01*
X56061Y-39529D02*
X56042Y-39548D01*
X56061Y-39567D01*
X56080Y-39548D01*
X56061Y-39529D01*
X56061Y-39567D01*
X56230Y-39567D02*
X56249Y-39548D01*
X56286Y-39529D01*
X56380Y-39529D01*
X56418Y-39548D01*
X56436Y-39567D01*
X56455Y-39605D01*
X56455Y-39642D01*
X56436Y-39698D01*
X56211Y-39923D01*
X56455Y-39923D01*
X56793Y-39905D02*
X56755Y-39923D01*
X56680Y-39923D01*
X56643Y-39905D01*
X56624Y-39886D01*
X56605Y-39848D01*
X56605Y-39736D01*
X56624Y-39698D01*
X56643Y-39680D01*
X56680Y-39661D01*
X56755Y-39661D01*
X56793Y-39680D01*
G54D26*
X62278Y-38757D02*
X62040Y-38757D01*
X62016Y-38995D01*
X62040Y-38972D01*
X62088Y-38948D01*
X62207Y-38948D01*
X62254Y-38972D01*
X62278Y-38995D01*
X62302Y-39043D01*
X62302Y-39162D01*
X62278Y-39210D01*
X62254Y-39234D01*
X62207Y-39257D01*
X62088Y-39257D01*
X62040Y-39234D01*
X62016Y-39210D01*
G54D25*
X38490Y-48820D02*
X38490Y-48426D01*
X38640Y-48426D01*
X38677Y-48445D01*
X38696Y-48464D01*
X38715Y-48502D01*
X38715Y-48558D01*
X38696Y-48595D01*
X38677Y-48614D01*
X38640Y-48633D01*
X38490Y-48633D01*
X39090Y-48820D02*
X38865Y-48820D01*
X38978Y-48820D02*
X38978Y-48426D01*
X38940Y-48483D01*
X38903Y-48520D01*
X38865Y-48539D01*
X38484Y-48151D02*
X38484Y-47889D01*
X38484Y-47964D02*
X38503Y-47926D01*
X38521Y-47908D01*
X38559Y-47889D01*
X38596Y-47889D01*
X38897Y-47889D02*
X38897Y-48208D01*
X38878Y-48245D01*
X38859Y-48264D01*
X38822Y-48283D01*
X38765Y-48283D01*
X38728Y-48264D01*
X38897Y-48133D02*
X38859Y-48151D01*
X38784Y-48151D01*
X38747Y-48133D01*
X38728Y-48114D01*
X38709Y-48076D01*
X38709Y-47964D01*
X38728Y-47926D01*
X38747Y-47908D01*
X38784Y-47889D01*
X38859Y-47889D01*
X38897Y-47908D01*
X39084Y-48151D02*
X39084Y-47757D01*
X39084Y-47908D02*
X39121Y-47889D01*
X39196Y-47889D01*
X39234Y-47908D01*
X39253Y-47926D01*
X39271Y-47964D01*
X39271Y-48076D01*
X39253Y-48114D01*
X39234Y-48133D01*
X39196Y-48151D01*
X39121Y-48151D01*
X39084Y-48133D01*
X39515Y-47757D02*
X39552Y-47757D01*
X39590Y-47776D01*
X39609Y-47795D01*
X39627Y-47833D01*
X39646Y-47908D01*
X39646Y-48001D01*
X39627Y-48076D01*
X39609Y-48114D01*
X39590Y-48133D01*
X39552Y-48151D01*
X39515Y-48151D01*
X39477Y-48133D01*
X39459Y-48114D01*
X39440Y-48076D01*
X39421Y-48001D01*
X39421Y-47908D01*
X39440Y-47833D01*
X39459Y-47795D01*
X39477Y-47776D01*
X39515Y-47757D01*
G54D26*
X42418Y-47231D02*
X42418Y-47564D01*
X42299Y-47041D02*
X42180Y-47398D01*
X42490Y-47398D01*
G54D25*
X42623Y-48820D02*
X42623Y-48426D01*
X42773Y-48426D01*
X42810Y-48445D01*
X42829Y-48464D01*
X42848Y-48502D01*
X42848Y-48558D01*
X42829Y-48595D01*
X42810Y-48614D01*
X42773Y-48633D01*
X42623Y-48633D01*
X42998Y-48464D02*
X43017Y-48445D01*
X43054Y-48426D01*
X43148Y-48426D01*
X43186Y-48445D01*
X43204Y-48464D01*
X43223Y-48502D01*
X43223Y-48539D01*
X43204Y-48595D01*
X42979Y-48820D01*
X43223Y-48820D01*
X42618Y-48190D02*
X42618Y-47928D01*
X42618Y-48003D02*
X42637Y-47965D01*
X42655Y-47947D01*
X42693Y-47928D01*
X42730Y-47928D01*
X43031Y-47928D02*
X43031Y-48247D01*
X43012Y-48284D01*
X42993Y-48303D01*
X42956Y-48322D01*
X42899Y-48322D01*
X42862Y-48303D01*
X43031Y-48172D02*
X42993Y-48190D01*
X42918Y-48190D01*
X42881Y-48172D01*
X42862Y-48153D01*
X42843Y-48115D01*
X42843Y-48003D01*
X42862Y-47965D01*
X42881Y-47947D01*
X42918Y-47928D01*
X42993Y-47928D01*
X43031Y-47947D01*
X43218Y-48190D02*
X43218Y-47796D01*
X43218Y-47947D02*
X43255Y-47928D01*
X43330Y-47928D01*
X43368Y-47947D01*
X43387Y-47965D01*
X43405Y-48003D01*
X43405Y-48115D01*
X43387Y-48153D01*
X43368Y-48172D01*
X43330Y-48190D01*
X43255Y-48190D01*
X43218Y-48172D01*
X43780Y-48190D02*
X43555Y-48190D01*
X43668Y-48190D02*
X43668Y-47796D01*
X43630Y-47853D01*
X43593Y-47890D01*
X43555Y-47909D01*
G54D26*
X46355Y-47271D02*
X46355Y-47604D01*
X46236Y-47081D02*
X46117Y-47438D01*
X46427Y-47438D01*
G54D25*
X46521Y-48781D02*
X46521Y-48387D01*
X46671Y-48387D01*
X46708Y-48406D01*
X46727Y-48425D01*
X46746Y-48463D01*
X46746Y-48519D01*
X46727Y-48556D01*
X46708Y-48575D01*
X46671Y-48594D01*
X46521Y-48594D01*
X46877Y-48387D02*
X47121Y-48387D01*
X46990Y-48538D01*
X47046Y-48538D01*
X47084Y-48556D01*
X47102Y-48575D01*
X47121Y-48613D01*
X47121Y-48706D01*
X47102Y-48744D01*
X47084Y-48763D01*
X47046Y-48781D01*
X46934Y-48781D01*
X46896Y-48763D01*
X46877Y-48744D01*
X46516Y-48151D02*
X46516Y-47889D01*
X46516Y-47964D02*
X46535Y-47926D01*
X46553Y-47908D01*
X46591Y-47889D01*
X46628Y-47889D01*
X46929Y-47889D02*
X46929Y-48208D01*
X46910Y-48245D01*
X46891Y-48264D01*
X46854Y-48283D01*
X46797Y-48283D01*
X46760Y-48264D01*
X46929Y-48133D02*
X46891Y-48151D01*
X46816Y-48151D01*
X46779Y-48133D01*
X46760Y-48114D01*
X46741Y-48076D01*
X46741Y-47964D01*
X46760Y-47926D01*
X46779Y-47908D01*
X46816Y-47889D01*
X46891Y-47889D01*
X46929Y-47908D01*
X47116Y-48151D02*
X47116Y-47757D01*
X47116Y-47908D02*
X47153Y-47889D01*
X47228Y-47889D01*
X47266Y-47908D01*
X47285Y-47926D01*
X47303Y-47964D01*
X47303Y-48076D01*
X47285Y-48114D01*
X47266Y-48133D01*
X47228Y-48151D01*
X47153Y-48151D01*
X47116Y-48133D01*
X47453Y-47795D02*
X47472Y-47776D01*
X47509Y-47757D01*
X47603Y-47757D01*
X47641Y-47776D01*
X47659Y-47795D01*
X47678Y-47833D01*
X47678Y-47870D01*
X47659Y-47926D01*
X47434Y-48151D01*
X47678Y-48151D01*
G54D26*
X50292Y-47271D02*
X50292Y-47604D01*
X50173Y-47081D02*
X50054Y-47438D01*
X50364Y-47438D01*
G54D25*
X57466Y-48781D02*
X57466Y-48387D01*
X57616Y-48387D01*
X57653Y-48406D01*
X57672Y-48425D01*
X57691Y-48463D01*
X57691Y-48519D01*
X57672Y-48556D01*
X57653Y-48575D01*
X57616Y-48594D01*
X57466Y-48594D01*
X58029Y-48519D02*
X58029Y-48781D01*
X57935Y-48369D02*
X57841Y-48650D01*
X58085Y-48650D01*
X57460Y-48151D02*
X57460Y-47889D01*
X57460Y-47964D02*
X57479Y-47926D01*
X57497Y-47908D01*
X57535Y-47889D01*
X57572Y-47889D01*
X57873Y-47889D02*
X57873Y-48208D01*
X57854Y-48245D01*
X57835Y-48264D01*
X57798Y-48283D01*
X57741Y-48283D01*
X57704Y-48264D01*
X57873Y-48133D02*
X57835Y-48151D01*
X57760Y-48151D01*
X57723Y-48133D01*
X57704Y-48114D01*
X57685Y-48076D01*
X57685Y-47964D01*
X57704Y-47926D01*
X57723Y-47908D01*
X57760Y-47889D01*
X57835Y-47889D01*
X57873Y-47908D01*
X58060Y-48151D02*
X58060Y-47757D01*
X58060Y-47908D02*
X58097Y-47889D01*
X58172Y-47889D01*
X58210Y-47908D01*
X58229Y-47926D01*
X58247Y-47964D01*
X58247Y-48076D01*
X58229Y-48114D01*
X58210Y-48133D01*
X58172Y-48151D01*
X58097Y-48151D01*
X58060Y-48133D01*
X58378Y-47757D02*
X58622Y-47757D01*
X58491Y-47908D01*
X58547Y-47908D01*
X58585Y-47926D01*
X58603Y-47945D01*
X58622Y-47983D01*
X58622Y-48076D01*
X58603Y-48114D01*
X58585Y-48133D01*
X58547Y-48151D01*
X58435Y-48151D01*
X58397Y-48133D01*
X58378Y-48114D01*
G54D26*
X61394Y-47231D02*
X61394Y-47564D01*
X61275Y-47041D02*
X61156Y-47398D01*
X61466Y-47398D01*
G54D25*
X61600Y-48820D02*
X61600Y-48426D01*
X61750Y-48426D01*
X61787Y-48445D01*
X61806Y-48464D01*
X61825Y-48502D01*
X61825Y-48558D01*
X61806Y-48595D01*
X61787Y-48614D01*
X61750Y-48633D01*
X61600Y-48633D01*
X62181Y-48426D02*
X61994Y-48426D01*
X61975Y-48614D01*
X61994Y-48595D01*
X62031Y-48577D01*
X62125Y-48577D01*
X62163Y-48595D01*
X62181Y-48614D01*
X62200Y-48652D01*
X62200Y-48745D01*
X62181Y-48783D01*
X62163Y-48802D01*
X62125Y-48820D01*
X62031Y-48820D01*
X61994Y-48802D01*
X61975Y-48783D01*
X61594Y-48151D02*
X61594Y-47889D01*
X61594Y-47964D02*
X61613Y-47926D01*
X61631Y-47908D01*
X61669Y-47889D01*
X61706Y-47889D01*
X62007Y-47889D02*
X62007Y-48208D01*
X61988Y-48245D01*
X61969Y-48264D01*
X61932Y-48283D01*
X61875Y-48283D01*
X61838Y-48264D01*
X62007Y-48133D02*
X61969Y-48151D01*
X61894Y-48151D01*
X61857Y-48133D01*
X61838Y-48114D01*
X61819Y-48076D01*
X61819Y-47964D01*
X61838Y-47926D01*
X61857Y-47908D01*
X61894Y-47889D01*
X61969Y-47889D01*
X62007Y-47908D01*
X62194Y-48151D02*
X62194Y-47757D01*
X62194Y-47908D02*
X62231Y-47889D01*
X62306Y-47889D01*
X62344Y-47908D01*
X62363Y-47926D01*
X62381Y-47964D01*
X62381Y-48076D01*
X62363Y-48114D01*
X62344Y-48133D01*
X62306Y-48151D01*
X62231Y-48151D01*
X62194Y-48133D01*
X62719Y-47889D02*
X62719Y-48151D01*
X62625Y-47739D02*
X62531Y-48020D01*
X62775Y-48020D01*
G54D26*
X65331Y-47231D02*
X65331Y-47564D01*
X65212Y-47041D02*
X65093Y-47398D01*
X65403Y-47398D01*
G54D25*
X65537Y-48820D02*
X65537Y-48426D01*
X65687Y-48426D01*
X65724Y-48445D01*
X65743Y-48464D01*
X65762Y-48502D01*
X65762Y-48558D01*
X65743Y-48595D01*
X65724Y-48614D01*
X65687Y-48633D01*
X65537Y-48633D01*
X66100Y-48426D02*
X66025Y-48426D01*
X65987Y-48445D01*
X65968Y-48464D01*
X65931Y-48520D01*
X65912Y-48595D01*
X65912Y-48745D01*
X65931Y-48783D01*
X65950Y-48802D01*
X65987Y-48820D01*
X66062Y-48820D01*
X66100Y-48802D01*
X66118Y-48783D01*
X66137Y-48745D01*
X66137Y-48652D01*
X66118Y-48614D01*
X66100Y-48595D01*
X66062Y-48577D01*
X65987Y-48577D01*
X65950Y-48595D01*
X65931Y-48614D01*
X65912Y-48652D01*
X65606Y-48190D02*
X65569Y-48172D01*
X65550Y-48134D01*
X65550Y-47796D01*
X65906Y-48172D02*
X65868Y-48190D01*
X65793Y-48190D01*
X65756Y-48172D01*
X65737Y-48134D01*
X65737Y-47984D01*
X65756Y-47947D01*
X65793Y-47928D01*
X65868Y-47928D01*
X65906Y-47947D01*
X65925Y-47984D01*
X65925Y-48022D01*
X65737Y-48059D01*
X66263Y-48190D02*
X66263Y-47796D01*
X66263Y-48172D02*
X66225Y-48190D01*
X66150Y-48190D01*
X66113Y-48172D01*
X66094Y-48153D01*
X66075Y-48115D01*
X66075Y-48003D01*
X66094Y-47965D01*
X66113Y-47947D01*
X66150Y-47928D01*
X66225Y-47928D01*
X66263Y-47947D01*
G54D26*
X67101Y-47112D02*
X67125Y-47088D01*
X67173Y-47064D01*
X67292Y-47064D01*
X67339Y-47088D01*
X67363Y-47112D01*
X67387Y-47160D01*
X67387Y-47207D01*
X67363Y-47279D01*
X67077Y-47564D01*
X67387Y-47564D01*
G54D25*
X65852Y-36970D02*
X65852Y-36576D01*
X66002Y-36576D01*
X66039Y-36595D01*
X66058Y-36614D01*
X66077Y-36652D01*
X66077Y-36708D01*
X66058Y-36745D01*
X66039Y-36764D01*
X66002Y-36783D01*
X65852Y-36783D01*
X66302Y-36745D02*
X66265Y-36727D01*
X66246Y-36708D01*
X66227Y-36670D01*
X66227Y-36652D01*
X66246Y-36614D01*
X66265Y-36595D01*
X66302Y-36576D01*
X66377Y-36576D01*
X66415Y-36595D01*
X66433Y-36614D01*
X66452Y-36652D01*
X66452Y-36670D01*
X66433Y-36708D01*
X66415Y-36727D01*
X66377Y-36745D01*
X66302Y-36745D01*
X66265Y-36764D01*
X66246Y-36783D01*
X66227Y-36820D01*
X66227Y-36895D01*
X66246Y-36933D01*
X66265Y-36952D01*
X66302Y-36970D01*
X66377Y-36970D01*
X66415Y-36952D01*
X66433Y-36933D01*
X66452Y-36895D01*
X66452Y-36820D01*
X66433Y-36783D01*
X66415Y-36764D01*
X66377Y-36745D01*
X65881Y-36231D02*
X66275Y-36231D01*
X65900Y-36231D02*
X65881Y-36194D01*
X65881Y-36119D01*
X65900Y-36081D01*
X65918Y-36062D01*
X65956Y-36044D01*
X66068Y-36044D01*
X66106Y-36062D01*
X66125Y-36081D01*
X66143Y-36119D01*
X66143Y-36194D01*
X66125Y-36231D01*
X66143Y-35819D02*
X66125Y-35856D01*
X66106Y-35875D01*
X66068Y-35894D01*
X65956Y-35894D01*
X65918Y-35875D01*
X65900Y-35856D01*
X65881Y-35819D01*
X65881Y-35763D01*
X65900Y-35725D01*
X65918Y-35706D01*
X65956Y-35688D01*
X66068Y-35688D01*
X66106Y-35706D01*
X66125Y-35725D01*
X66143Y-35763D01*
X66143Y-35819D01*
X65881Y-35557D02*
X66143Y-35482D01*
X65956Y-35407D01*
X66143Y-35332D01*
X65881Y-35257D01*
X66125Y-34956D02*
X66143Y-34994D01*
X66143Y-35069D01*
X66125Y-35106D01*
X66087Y-35125D01*
X65937Y-35125D01*
X65900Y-35106D01*
X65881Y-35069D01*
X65881Y-34994D01*
X65900Y-34956D01*
X65937Y-34937D01*
X65975Y-34937D01*
X66012Y-35125D01*
X66143Y-34768D02*
X65881Y-34768D01*
X65956Y-34768D02*
X65918Y-34749D01*
X65900Y-34731D01*
X65881Y-34693D01*
X65881Y-34656D01*
G54D26*
X63371Y-35597D02*
X63395Y-35573D01*
X63443Y-35549D01*
X63562Y-35549D01*
X63609Y-35573D01*
X63633Y-35597D01*
X63657Y-35645D01*
X63657Y-35692D01*
X63633Y-35764D01*
X63347Y-36049D01*
X63657Y-36049D01*
G54D25*
X46906Y-38505D02*
X46906Y-38299D01*
X46887Y-38262D01*
X46849Y-38243D01*
X46774Y-38243D01*
X46737Y-38262D01*
X46906Y-38487D02*
X46868Y-38505D01*
X46774Y-38505D01*
X46737Y-38487D01*
X46718Y-38449D01*
X46718Y-38412D01*
X46737Y-38374D01*
X46774Y-38355D01*
X46868Y-38355D01*
X46906Y-38337D01*
X47280Y-38111D02*
X47093Y-38111D01*
X47074Y-38299D01*
X47093Y-38280D01*
X47130Y-38262D01*
X47224Y-38262D01*
X47262Y-38280D01*
X47280Y-38299D01*
X47299Y-38337D01*
X47299Y-38430D01*
X47280Y-38468D01*
X47262Y-38487D01*
X47224Y-38505D01*
X47130Y-38505D01*
X47093Y-38487D01*
X47074Y-38468D01*
X47772Y-38505D02*
X47772Y-38299D01*
X47753Y-38262D01*
X47715Y-38243D01*
X47640Y-38243D01*
X47603Y-38262D01*
X47772Y-38487D02*
X47734Y-38505D01*
X47640Y-38505D01*
X47603Y-38487D01*
X47584Y-38449D01*
X47584Y-38412D01*
X47603Y-38374D01*
X47640Y-38355D01*
X47734Y-38355D01*
X47772Y-38337D01*
X48128Y-38243D02*
X48128Y-38505D01*
X48034Y-38093D02*
X47940Y-38374D01*
X48184Y-38374D01*
X48638Y-38505D02*
X48638Y-38299D01*
X48619Y-38262D01*
X48581Y-38243D01*
X48506Y-38243D01*
X48469Y-38262D01*
X48638Y-38487D02*
X48600Y-38505D01*
X48506Y-38505D01*
X48469Y-38487D01*
X48450Y-38449D01*
X48450Y-38412D01*
X48469Y-38374D01*
X48506Y-38355D01*
X48600Y-38355D01*
X48638Y-38337D01*
X48787Y-38111D02*
X49031Y-38111D01*
X48900Y-38262D01*
X48956Y-38262D01*
X48994Y-38280D01*
X49012Y-38299D01*
X49031Y-38337D01*
X49031Y-38430D01*
X49012Y-38468D01*
X48994Y-38487D01*
X48956Y-38505D01*
X48844Y-38505D01*
X48806Y-38487D01*
X48787Y-38468D01*
X49543Y-38505D02*
X49543Y-38299D01*
X49524Y-38262D01*
X49486Y-38243D01*
X49411Y-38243D01*
X49374Y-38262D01*
X49543Y-38487D02*
X49505Y-38505D01*
X49411Y-38505D01*
X49374Y-38487D01*
X49355Y-38449D01*
X49355Y-38412D01*
X49374Y-38374D01*
X49411Y-38355D01*
X49505Y-38355D01*
X49543Y-38337D01*
X49711Y-38149D02*
X49730Y-38130D01*
X49767Y-38111D01*
X49861Y-38111D01*
X49899Y-38130D01*
X49917Y-38149D01*
X49936Y-38187D01*
X49936Y-38224D01*
X49917Y-38280D01*
X49692Y-38505D01*
X49936Y-38505D01*
X50409Y-38505D02*
X50409Y-38299D01*
X50390Y-38262D01*
X50352Y-38243D01*
X50277Y-38243D01*
X50240Y-38262D01*
X50409Y-38487D02*
X50371Y-38505D01*
X50277Y-38505D01*
X50240Y-38487D01*
X50221Y-38449D01*
X50221Y-38412D01*
X50240Y-38374D01*
X50277Y-38355D01*
X50371Y-38355D01*
X50409Y-38337D01*
X50802Y-38505D02*
X50577Y-38505D01*
X50690Y-38505D02*
X50690Y-38111D01*
X50652Y-38168D01*
X50615Y-38205D01*
X50577Y-38224D01*
X51276Y-38505D02*
X51276Y-38299D01*
X51257Y-38262D01*
X51219Y-38243D01*
X51144Y-38243D01*
X51107Y-38262D01*
X51276Y-38487D02*
X51238Y-38505D01*
X51144Y-38505D01*
X51107Y-38487D01*
X51088Y-38449D01*
X51088Y-38412D01*
X51107Y-38374D01*
X51144Y-38355D01*
X51238Y-38355D01*
X51276Y-38337D01*
X51538Y-38111D02*
X51575Y-38111D01*
X51613Y-38130D01*
X51632Y-38149D01*
X51650Y-38187D01*
X51669Y-38262D01*
X51669Y-38355D01*
X51650Y-38430D01*
X51632Y-38468D01*
X51613Y-38487D01*
X51575Y-38505D01*
X51538Y-38505D01*
X51500Y-38487D01*
X51482Y-38468D01*
X51463Y-38430D01*
X51444Y-38355D01*
X51444Y-38262D01*
X51463Y-38187D01*
X51482Y-38149D01*
X51500Y-38130D01*
X51538Y-38111D01*
X62081Y-36970D02*
X62081Y-36576D01*
X62231Y-36576D01*
X62268Y-36595D01*
X62287Y-36614D01*
X62306Y-36652D01*
X62306Y-36708D01*
X62287Y-36745D01*
X62268Y-36764D01*
X62231Y-36783D01*
X62081Y-36783D01*
X62681Y-36970D02*
X62456Y-36970D01*
X62569Y-36970D02*
X62569Y-36576D01*
X62531Y-36633D01*
X62494Y-36670D01*
X62456Y-36689D01*
X63019Y-36708D02*
X63019Y-36970D01*
X62925Y-36558D02*
X62831Y-36839D01*
X63075Y-36839D01*
X56061Y-37167D02*
X56061Y-36905D01*
X56061Y-36773D02*
X56042Y-36792D01*
X56061Y-36811D01*
X56080Y-36792D01*
X56061Y-36773D01*
X56061Y-36811D01*
X56230Y-36811D02*
X56249Y-36792D01*
X56286Y-36773D01*
X56380Y-36773D01*
X56418Y-36792D01*
X56436Y-36811D01*
X56455Y-36849D01*
X56455Y-36886D01*
X56436Y-36942D01*
X56211Y-37167D01*
X56455Y-37167D01*
X56793Y-37149D02*
X56755Y-37167D01*
X56680Y-37167D01*
X56643Y-37149D01*
X56624Y-37130D01*
X56605Y-37092D01*
X56605Y-36980D01*
X56624Y-36942D01*
X56643Y-36924D01*
X56680Y-36905D01*
X56755Y-36905D01*
X56793Y-36924D01*
G54D26*
X62278Y-35608D02*
X62040Y-35608D01*
X62016Y-35846D01*
X62040Y-35823D01*
X62088Y-35799D01*
X62207Y-35799D01*
X62254Y-35823D01*
X62278Y-35846D01*
X62302Y-35894D01*
X62302Y-36013D01*
X62278Y-36061D01*
X62254Y-36085D01*
X62207Y-36108D01*
X62088Y-36108D01*
X62040Y-36085D01*
X62016Y-36061D01*
M02*
